<ttFont>
          <CharString index="0">
            180 43 rmoveto
            -41 -21 21 35 45 32 21 59 4 hvcurveto
            70 7 rlineto
            -98 vlineto
            -21 -25 -39 -14 -35 hhcurveto
            -28 -51 rmoveto
            51 48 21 33 31 hvcurveto
            -34 8 23 -18 35 hhcurveto
            23 34 9 4 13 hvcurveto
            34 vlineto
            -41 4 rlineto
            -15 1 -7 7 16 vvcurveto
            205 vlineto
            101 -48 48 -97 -77 -66 -30 -57 -20 vhcurveto
            19 -18 rlineto
            33 35 41 14 46 hhcurveto
            62 29 -26 -76 hvcurveto
            -49 vlineto
            -83 -7 rlineto
            -75 -6 -86 -24 -85 vvcurveto
            -65 50 -35 67 vhcurveto
            return
          </CharString>
          <CharString index="1">
            379 568 rmoveto
            -38 vlineto
            63 -15 callsubr
            -8 -13 vvcurveto
            -291 vlineto
            -111 -40 -61 -101 -85 -54 46 131 vhcurveto
            285 33 callgsubr
            12 2 vhcurveto
            64 12 rlineto
            38 -226 -38 vlineto
            42 -10 rlineto
            12 -3 34 callsubr
            -278 vlineto
            -152 64 -74 144 134 78 65 152 vhcurveto
            -73 callsubr
            vlineto
            return
          </CharString>
          <CharString index="2">
            rmoveto
            38 1 -24 28 -31 hhcurveto
            -24 -17 -16 -23 -17 10 -9 8 -6 hvcurveto
            7 -4 9 -4 -17 vvcurveto
            -20 -18 -19 -18 -15 vhcurveto
            20 -22 rlineto
            41 21 36 37 48 vvcurveto
            endchar
          </CharString>
          <CharString index="3">
            178 411 rmoveto
            -11 12 -42 -1 -52 -6 -43 -13 rlinecurve
            -102 callsubr
            return
          </CharString>
          <CharString index="4">
            424 151 rmoveto
            93 -76 41 -79 38 vhcurveto
            -86 41 -48 23 66 vvcurveto
            54 33 31 63 35 30 -11 -13 16 vhcurveto
            10 -8 3 -9 3 -10 14 -74 rcurveline
            47 hlineto
            6 42 3 45 -4 48 rrcurveto
            18 -38 -58 12 -53 hhcurveto
            -123 -63 -63 -86 -99 84 -40 71 -33 hvcurveto
            76 -35 52 -25 -71 vvcurveto
            -60 -38 -38 -71 -45 -38 19 20 -19 vhcurveto
            -9 9 -2 8 -2 9 -14 85 rcurveline
            -48 hlineto
            return
          </CharString>
          <CharString index="5">
            -100 callgsubr
            206 37 vlineto
            -44 7 -46 callsubr
            return
          </CharString>
          <CharString index="6">
            63 12 17 43 hvcurveto
            7 43 3 48 -1 39 -47 5 rcurveline
            -25 -75 -4 -12 32 callsubr
            -13 -22 -33 -9 -32 hhcurveto
            -118 -47 105 152 174 63 74 101 35 35 -9 -10 16 hvcurveto
            11 -6 5 -8 3 -11 17 -82 rcurveline
            47 hlineto
            7 48 3 50 -2 42 rrcurveto
            19 -50 -62 8 -47 hhcurveto
            -167 -107 -101 -202 return
          </CharString>
          <CharString index="7">
            -3 -11 -8 -5 -11 -3 rlinecurve
            -44 -49 callsubr
            189 37 vlineto
            -72 14 40 123 rlineto
            219 hlineto
            43 -123 -73 -14 rlineto
            -37 216 37 vlineto
            -42 11 -11 3 -7 5 -4 11 rlinecurve
            return
          </CharString>
          <CharString index="8">
            -48 19 -47 14 49 vvcurveto
            42 31 19 43 -1 vhcurveto
            23 -1 17 -6 11 -6 13 -8 4 -8 3 -13 12 -51 rcurveline
            39 hlineto
            7 36 2 36 -1 35 rrcurveto
            13 -31 -49 11 -43 hhcurveto
            -91 -63 -41 -79 -67 46 -27 66 -27 hvcurveto
            72 -30 40 -14 -47 vvcurveto
            -39 -26 -25 -51 vhcurveto
            return
          </CharString>
          <CharString index="9">
            90 0 37 213 40 243 35 -35 41 hstemhm
            117 80 200 86 hintmask 11011100
            197 528 rmoveto
            2 13 29 3 29 hhcurveto
            99 30 -42 -73 -88 -43 -39 -62 -1 hvcurveto
            -16 -47 -1 2 -32 hvcurveto
            82 -291 rmoveto
            37 vlineto
            -61 11 rlineto
            -14 3 -7 6 13 vvcurveto
            180 94 vlineto
            17 -18 16 -30 18 -37 36 -77 rcurveline
            -54 26 16 -34 23 hhcurveto
            112 37 hlineto
            -40 9 -16 4 -8 4 -9 18 rlinecurve
            -54 106 -21 40 -19 26 -28 18 rlinecurve
            51 13 72 35 113 vvcurveto
            102 -56 49 -146 vhcurveto
            hintmask 11101100
            -49 -32 -6 -43 hhcurveto
            -117 -38 hlineto
            57 -11 rlineto
            13 -2 7 -7 -14 vvcurveto
            -426 -85 callgsubr
            -57 -49 callsubr
            vlineto
            return
          </CharString>
          <CharString index="10">
            40 202 rmoveto
            -122 62 -88 122 72 54 30 49 23 vhcurveto
            -22 19 rlineto
            -24 -23 -36 -20 -45 hhcurveto
            -77 -44 56 117 111 39 54 68 25 20 -7 -10 12 hvcurveto
            10 -8 2 -8 3 -14 16 -61 rcurveline
            40 hlineto
            6 38 4 47 -3 37 rrcurveto
            15 -29 -52 12 -46 hhcurveto
            -132 -69 -94 -129 hvcurveto
            return
          </CharString>
          <CharString index="11">
            402 75 rmoveto
            -4 -11 -6 -7 -11 -4 rrcurveto
            -6 -17 -28 -3 -35 hhcurveto
            -103 452 hlineto
            22 callsubr
            76 12 rlineto
            38 -253 -38 vlineto
            58 -11 -43 callsubr
            -426 vlineto
            -13 -1 callgsubr
            -10 rlineto
            -37 419 vlineto
            12 54 3 62 1 52 -41 5 rcurveline
            return
          </CharString>
          <CharString index="12">
            rmoveto
            28 -19 20 -28 -28 -19 -20 -28 -29 19 -19 28 28 52 callgsubr
            178 hmoveto
            28 -19 20 -28 -28 -19 -20 -28 -29 19 -19 28 28 52 callgsubr
            return
          </CharString>
          <CharString index="13">
            rmoveto
            -42 57 -173 -117 16 -30 65 23 92 35 42 32 rlinecurve
            return
          </CharString>
          <CharString index="14">
            hstem
            10 177 312 150 vstem
            169 -6 rmoveto
            68 hlineto
            93 328 98 -328 rlineto
            67 hlineto
            108 357 4 11 7 6 11 3 rlinecurve
            24 7 rlineto
            35 -150 -35 vlineto
            57 -11 -81 -291 -93 337 rlineto
            -73 hlineto
            -94 -339 -84 293 56 11 rlineto
            35 -177 -35 vlineto
            23 -7 11 -3 7 -5 3 -12 rlinecurve
            return
          </CharString>
          <CharString index="15">
            60 39 72 58 30 39 -53 46 rcurveline
            -133 -156 rlineto
            endchar
          </CharString>
          <CharString index="16">
            167 411 rmoveto
            -12 12 -39 -1 -47 -7 -39 -12 rlinecurve
            -36 vlineto
            50 -7 rlineto
            15 -2 5 -8 -14 vvcurveto
            -269 vlineto
            -14 6 callgsubr
            236 36 vlineto
            -73 8 rlineto
            -13 1 -8 8 14 vvcurveto
            242 vlineto
            31 31 37 14 34 hhcurveto
            15 6 -6 -16 4 hvcurveto
            11 -56 rlineto
            37 hlineto
            return
          </CharString>
          <CharString index="17">
            rmoveto
            50 11 rlineto
            38 -227 -38 vlineto
            58 -15 callsubr
            -9 -12 vvcurveto
            -356 vlineto
            -132 -19 -44 -92 -65 vhcurveto
            19 -37 rlineto
            152 66 21 58 168 vvcurveto
            342 vlineto
            13 7 7 13 3 vhcurveto
            return
          </CharString>
          <CharString index="18">
            20 0 44 362 162 -42 42 hstemhm
            25 428 hintmask 10110000
            441 hmoveto
            8 48 6 70 -2 48 -43 5 rcurveline
            -30 -96 -3 -12 -7 -6 -10 -4 rlinecurve
            -6 -18 -29 -3 -34 hhcurveto
            -150 hlineto
            324 492 -16 32 rlineto
            -366 hlineto
            hintmask 11010000
            -8 -51 -4 -59 3 -52 rrcurveto
            45 hlineto
            hintmask 10110000
            25 91 4 11 6 6 11 4 rlinecurve
            7 17 29 1 34 hhcurveto
            119 hlineto
            -327 -493 19 -33 rlineto
            return
          </CharString>
          <CharString index="19">
            rlineto
            -158 -104 callgsubr
            215 37 vlineto
            -66 44 callgsubr
            return
          </CharString>
          <CharString index="20">
            -12 49 callsubr
            49 callgsubr
            55 -8 rlineto
            13 -2 7 -7 -13 vvcurveto
            -504 -85 callgsubr
            -53 -52 callgsubr
            223 36 vlineto
            -53 8 1 callgsubr
            return
          </CharString>
          <CharString index="21">
            rmoveto
            -32 17 rlineto
            -43 -25 -38 -20 -41 hhcurveto
            -46 -35 23 40 -22 hvcurveto
            -37 -17 rlineto
            -56 11 52 -51 74 hhcurveto
            72 52 49 58 15 hvcurveto
            return
          </CharString>
          <CharString index="22">
            rmoveto
            103 102 113 -101 30 26 -112 144 -61 -6 -101 -141 rlineto
            endchar
          </CharString>
          <CharString index="23">
            54 vlineto
            73 28 23 63 1 vhcurveto
            22 31 -4 -7 27 hvcurveto
            17 51 rlineto
            18 -30 -31 12 -32 hhcurveto
            -83 -87 -84 -111 -1 hvcurveto
            -26 -28 callsubr
            return
          </CharString>
          <CharString index="24">
            131 0 36 233 46 218 35 -35 41 hstemhm
            117 81 278 87 hintmask 11011100
            45 269 rmoveto
            72 -200 hlineto
            -11 -6 -8 -12 -2 vhcurveto
            -14 callgsubr
            118 vlineto
            39 49 -5 32 hhcurveto
            174 -4 110 106 204 vvcurveto
            178 -85 95 -188 vhcurveto
            hintmask 11101100
            -45 -41 -6 -47 hhcurveto
            -116 -38 hlineto
            60 -12 rlineto
            10 -2 6 -8 -10 vvcurveto
            -183 -72 vlineto
            153 -272 rmoveto
            226 129 46 -129 vlineto
            hintmask 11011100
            213 vlineto
            1 17 26 4 31 hhcurveto
            138 66 -77 -169 -175 -69 -73 -121 -3 hvcurveto
            hintmask 11101100
            -26 -1 -40 3 -22 5 rrcurveto
            endchar
          </CharString>
          <CharString index="25">
            -8 53 338 42 -9 -20 246 37 callgsubr
            41 84 202 78 hintmask 11001110
            233 45 rmoveto
            -58 -50 36 127 hvcurveto
            134 1 54 41 69 hhcurveto
            31 30 -9 -10 17 hvcurveto
            -286 vlineto
            -20 -25 -32 -13 -37 hhcurveto
            -28 -53 rmoveto
            56 41 25 31 28 hvcurveto
            -31 9 19 -23 40 hhcurveto
            23 30 7 6 17 hvcurveto
            34 vlineto
            -42 4 rlineto
            -13 1 -8 5 18 vvcurveto
            hintmask 11010110
            573 vlineto
            hintmask 10101110
            -12 12 -41 -31 callsubr
            -154 vlineto
            hintmask 11001110
            5 -20 -27 4 -27 hhcurveto
            -126 -86 -74 -155 -144 75 -60 89 hvcurveto
            return
          </CharString>
          <CharString index="26">
            145 rmoveto
            69 -60 35 -84 39 vhcurveto
            -74 34 -45 20 48 vvcurveto
            37 26 28 57 33 25 -10 -11 14 vhcurveto
            9 -7 4 -7 1 -7 13 -62 rcurveline
            47 1 6 37 2 38 -3 42 rlinecurve
            hintmask 11110110
            -28 13 -39 9 -39 3 rrcurveto
            83 -54 -83 vlineto
            -97 -7 -51 -52 -67 vvcurveto
            -78 72 -35 70 -31 vhcurveto
            72 -33 43 -21 -48 vvcurveto
            -43 -33 -32 -60 -45 -33 17 16 -15 vhcurveto
            -7 7 -4 7 -1 7 -12 69 rcurveline
            -49 hlineto
            -6 -40 -2 -43 1 -40 rrcurveto
            hintmask 11111010
            28 -16 48 -19 56 -5 rrcurveto
            -83 53 83 vlineto
            109 8 52 66 64 vvcurveto
            endchar
          </CharString>
          <CharString index="27">
            -62 -3 rlineto
            91 -47 vlineto
            -11 -94 -126 -6 41 37 40 54 77 145 rlinecurve
            -11 13 rlineto
            -57 hlineto
            -42 -86 -47 -87 -57 -84 rrcurveto
            endchar
          </CharString>
          <CharString index="28">
            28 callsubr
            -31 -33 -3 callsubr
            -21 33 31 22 21 31 vhcurveto
            endchar
          </CharString>
          <CharString index="29">
            -13 -2 vhcurveto
            return
          </CharString>
          <CharString index="30">
            rmoveto
            49 -34 36 -60 -51 -49 -32 -51 -51 34 -35 62 52 46 32 52 vhcurveto
            -142 2 rmoveto
            27 17 18 29 30 14 -24 -24 -29 -15 -17 -29 -32 -14 24 25 vhcurveto
            endchar
          </CharString>
          <CharString index="31">
            624 568 rmoveto
            -228 -38 hlineto
            51 -11 rlineto
            13 -3 6 -7 -13 vvcurveto
            -182 -268 182 31 callgsubr
            12 2 vhcurveto
            54 11 rlineto
            38 -230 -38 vlineto
            -66 callgsubr
            7 -9 -13 vvcurveto
            -424 vlineto
            -13 -1 callgsubr
            -11 rlineto
            -37 230 37 vlineto
            -53 11 8 callgsubr
            8 12 vvcurveto
            198 268 -197 27 callgsubr
            -49 -49 callsubr
            227 37 vlineto
            -58 11 8 callgsubr
            8 13 vvcurveto
            424 vlineto
            13 6 9 13 2 vhcurveto
            58 11 rlineto
            return
          </CharString>
          <CharString index="32">
            7 rlineto
            -13 1 -7 8 13 vvcurveto
            297 return
          </CharString>
          <CharString index="33">
            -61 callsubr
            -8 return
          </CharString>
          <CharString index="34">
            287 2 callsubr
            3 vhcurveto
            43 10 rlineto
            38 return
          </CharString>
          <CharString index="35">
            125 rmoveto
            -85 80 -49 105 110 79 54 86 70 -55 36 -65 33 vhcurveto
            hintmask 11011000
            56 21 42 48 54 vvcurveto
            69 -67 47 -93 -97 -68 -53 -77 -57 36 -37 45 -27 vhcurveto
            hintmask 11100100
            -66 -23 -42 -49 -61 vvcurveto
            hintmask 11011000
            100 272 rmoveto
            40 31 32 56 55 36 -31 -53 -39 -21 -33 -43 -24 vhcurveto
            -62 29 -52 26 53 vvcurveto
            hintmask 11100100
            90 -364 rmoveto
            -60 -52 32 67 43 20 38 46 25 hvcurveto
            10 -5 10 -5 10 -4 rrcurveto
            61 -28 55 -22 -59 vvcurveto
            -49 -38 -33 -62 vhcurveto
            endchar
          </CharString>
          <CharString index="36">
            -38 -8 51 129.5 38 154.5 58 return
          </CharString>
          <CharString index="37">
            -169 rmoveto
            hintmask 01010111
            -15 213 rlineto
            -40 21 37 -13 30 hhcurveto
            46 53 30 64 25 hvcurveto
            hintmask 01101011
            -66 7 26 -28 41 hhcurveto
            26 29 11 17 22 hvcurveto
            34 -47 vlineto
            -27 -16 18 63 2 hvcurveto
            7 279 rlineto
            hintmask 01010111
            -12 12 -66 -13 3 -270 rlineto
            -57 -24 -45 -23 -37 hhcurveto
            -40 -49 27 87 -1 hvcurveto
            hintmask 01101011
            1 237 rlineto
            hintmask 01100111
            -11 12 -69 -14 rlineto
            4 -127 4 -88 -85 vvcurveto
            -88 -2 -93 -1 -110 vhcurveto
            hintmask 10100111
            12 -12 rlineto
            endchar
          </CharString>
          <CharString index="38">
            rmoveto
            -53 -46 29 -39 68 -58 59 -39 rlinecurve
            25 27 rlineto
            endchar
          </CharString>
          <CharString index="39">
            -11 rlineto
            12 -2 return
          </CharString>
          <CharString index="40">
            hmoveto
            37 vlineto
            -40 8 -15 4 -6 5 -9 16 rlinecurve
            -41 78 -14 29 -19 28 -30 12 rlinecurve
            61 15 37 41 8 60 rrcurveto
            hintmask 11111000
            84 38 hlineto
            hintmask 11110100
            -82 hlineto
            -3 40 -13 31 -30 20 rrcurveto
            132 38 -365 -40 94 hlineto
            73 21 -33 -56 3 hvcurveto
            -191 -38 hlineto
            hintmask 11111000
            190 hlineto
            -63 -7 -33 -29 -65 hhcurveto
            -85 -40 98 hlineto
            23 -10 14 -24 14 -29 41 -82 rcurveline
            -35 16 15 -21 18 hhcurveto
            endchar
          </CharString>
          <CharString index="41">
            144 rmoveto
            85 -75 39 -59 -1 vhcurveto
            hintmask 11110000
            51 17 56 48 66 vvcurveto
            69 -62 42 -76 -70 -59 -35 -50 -27 vhcurveto
            25 -24 rlineto
            29 27 37 25 44 hhcurveto
            48 30 -30 -39 -61 -58 -35 -80 -18 hvcurveto
            11 -40 rlineto
            hintmask 11101000
            17 2 21 5 17 5 58 -6 38 -37 -2 -59 rrcurveto
            -72 -2 -53 -25 -60 hhcurveto
            -46 -41 14 20 -32 hvcurveto
            -21 -30 rlineto
            -32 33 57 -25 66 hhcurveto
            104 83 64 89 hvcurveto
            endchar
          </CharString>
          <CharString index="42">
            -36 -32 51 -51 hhcurveto
            -52 -32 -48 -44 -13 hvcurveto
            27 -15 rlineto
            21 14 18 25 25 hhcurveto
            return
          </CharString>
          <CharString index="43">
            -8 -78 callsubr
            return
          </CharString>
          <CharString index="44">
            -24 callgsubr
            hintmask 11011110
            -65 callgsubr
            hintmask 11100110
            37 33 -51 53 hhcurveto
            51 37 48 43 13 hvcurveto
            endchar
          </CharString>
          <CharString index="45">
            -35 -28 12 8 -13 hvcurveto
            -9 7 -4 7 -4 16 -15 55 rcurveline
            -42 hlineto
            -4 -33 -2 -39 5 -40 rrcurveto
            return
          </CharString>
          <CharString index="46">
            rlineto
            13 -2 6 return
          </CharString>
          <CharString index="47">
            421 hmoveto
            37 vlineto
            -85 13 rlineto
            -14 2 -6 7 13 vvcurveto
            455 44 vlineto
            33 26 -3 -5 15 hvcurveto
            10 -4 6 -6 2 -12 rrcurveto
            return
          </CharString>
          <CharString index="48">
            -209 0 -78 callgsubr
            382.5 -20 return
          </CharString>
          <CharString index="49">
            42 7 39 32 46 vvcurveto
            52 -51 35 -67 -50 -49 -19 -45 -19 vhcurveto
            17 -16 rlineto
            24 25 29 10 29 hhcurveto
            41 29 -19 -35 return
          </CharString>
          <CharString index="50">
            229 rmoveto
            -64 -36 46 70 67 31 54 62 73 34 -80 -93 hvcurveto
            -29 vlineto
            -4 vlineto
            -19 -26 -41 -12 -33 hhcurveto
            280 vmoveto
            -111 -71 -75 -103 -89 58 -65 97 49 48 17 29 28 hvcurveto
            -114 -11 -56 -68 -83 hhcurveto
            -36 -32 12 12 -22 hvcurveto
            -16 -37 rlineto
            -22 27 46 -15 49 hhcurveto
            135 87 111 173 153 -73 81 -113 hvcurveto
            endchar
          </CharString>
          <CharString index="51">
            86 103 rmoveto
            -87 51 -24 60 55 49 24 45 21 vhcurveto
            -22 21 rlineto
            -21 -19 -26 -11 -31 hhcurveto
            -37 -22 15 64 hvcurveto
            235 135 49 -136 vlineto
            -1 124 rlineto
            -45 hlineto
            return
          </CharString>
          <CharString index="52">
            rmoveto
            -44 -56 42 -33 85 -37 64 -26 rlinecurve
            18 31 rlineto
            return
          </CharString>
          <CharString index="53">
            -93 441 rmoveto
            81 38 21 48 62 28 -32 -75 -73 -29 -30 -56 -64 -27 37 71 vhcurveto
            return
          </CharString>
          <CharString index="54">
            -19 callsubr
            153 hmoveto
            -22 callgsubr
          </CharString>
          <CharString index="55">
            0 46 callgsubr
            return
          </CharString>
          <CharString index="56">
            0 -78 callgsubr
            328.5 54 return
          </CharString>
          <CharString index="57">
            47 22 rmoveto
            -14 32 52 -17 57 hhcurveto
            96 66 44 78 76 -64 30 -67 26 hvcurveto
            return
          </CharString>
          <CharString index="58">
            -11 rlineto
            -37 return
          </CharString>
          <CharString index="59">
            -56 29 -28 34 29 21 23 28 25 -14 14 -15 8 vhcurveto
            -11 7 -7 4 18 vvcurveto
            32 28 33 33 26 vhcurveto
            -18 23 rlineto
            -63 -34 -46 -57 -66 vvcurveto
            return
          </CharString>
          <CharString index="60">
            86 rmoveto
            -23 -32 rlineto
            -35 31 56 -28 70 hhcurveto
            113 77 71 106 95 -60 59 -99 -33 -35 -7 -22 -30 hvcurveto
            13 145 rlineto
            211 hlineto
            8 62 rlineto
            -272 hlineto
            -15 -234 30 -21 rlineto
            16 30 31 8 27 hhcurveto
            68 38 -45 -64 -75 -50 -41 -69 -48 -40 19 23 -29 hvcurveto
            endchar
          </CharString>
          <CharString index="61">
            -25 callgsubr
            13 vvcurveto
            return
          </CharString>
          <CharString index="62">
            504 5 rmoveto
            232 vlineto
            43 7 rlineto
            43 -223 -43 vlineto
            100 -7 rlineto
            return
          </CharString>
          <CharString index="63">
            rmoveto
            42 31 62 52 31 37 -54 42 rcurveline
            -106 -139 rlineto
            185 -23 rmoveto
            44 28 67 53 33 35 -51 46 rcurveline
            -116 -137 rlineto
            endchar
          </CharString>
          <CharString index="64">
            -74 callsubr
            -13 vvcurveto
            return
          </CharString>
          <CharString index="65">
            267 hmoveto
            -39 callgsubr
            129 50 -129 73 vlineto
            72 43 25 65 31 38 -4 -15 38 vhcurveto
            return
          </CharString>
          <CharString index="66">
            442 rmoveto
            -101 -101 -81 -164 -18 -160 12 -17 rcurveline
            74 hlineto
            16 196 68 146 89 110 -21 48 rcurveline
            -322 hlineto
            hintmask 11010000
            -8 -48 -5 -59 2 -57 43 1 rcurveline
            hintmask 10110000
            25 78 4 14 8 4 14 3 rlinecurve
            4 19 31 2 40 hhcurveto
            endchar
          </CharString>
          <CharString index="67">
            345 568 rlineto
            -63 hlineto
            -345 -568 rlineto
            return
          </CharString>
          <CharString index="68">
            96 rmoveto
            218 hlineto
            hintmask 10110000
            -96 77 vlineto
            hintmask 01110000
            96 80 56 vlineto
            -80 -3 rlineto
            122 vlineto
            -67 -4 -8 -120 -178 -7 65 69 59 102 98 175 rlinecurve
            -10 21 rlineto
            -74 hlineto
            -63 -129 -70 -121 -71 -117 rrcurveto
            endchar
          </CharString>
          <CharString index="69">
            rmoveto
            24 63 18 74 8 62 -70 9 rcurveline
            -16 -200 rlineto
            endchar
          </CharString>
          <CharString index="70">
            40 37 hlineto
            -44 7 -46 callsubr
            344 vlineto
            -17 callsubr
            105 -2 vlineto
            return
          </CharString>
          <CharString index="71">
            34 0 44 222 51 210 41 return
          </CharString>
          <CharString index="72">
            rmoveto
            40 35 59 70 23 45 -57 33 rcurveline
            -91 -162 rlineto
            164 -21 rmoveto
            return
          </CharString>
          <CharString index="73">
            -14 12 -20 -4 -25 -9 -25 -10 rlinecurve
            14 -31 -9 callgsubr
            -3 callgsubr
          </CharString>
          <CharString index="74">
            -13 12 -20 -4 -25 -9 -26 -10 rlinecurve
            14 -30 -9 callgsubr
            -215 vlineto
            return
          </CharString>
          <CharString index="75">
            -7 -78 callsubr
            return
          </CharString>
          <CharString index="76">
            -1 -58 -7 -42 54 callgsubr
            56 13 callsubr
            return
          </CharString>
          <CharString index="77">
            rmoveto
            49 -35 37 -61 -51 -50 -33 -51 -1 vhcurveto
            -53 35 -37 63 53 46 34 54 1 vhcurveto
            -145 1 rmoveto
            27 17 19 30 32 14 -24 -25 -30 -16 -17 -30 -33 -14 24 26 vhcurveto
            endchar
          </CharString>
          <CharString index="78">
            621 90 rmoveto
            -26 15 rlineto
            -37 -24 -46 -22 -45 hhcurveto
            -67 -55 42 133 hvcurveto
            4 0 3 3 vvcurveto
            260 hlineto
            3 16 1 21 14 vvcurveto
            94 -62 49 -90 -61 -49 -23 -41 -33 vhcurveto
            return
          </CharString>
          <CharString index="79">
            -43 callgsubr
            vlineto
            return
          </CharString>
          <CharString index="80">
            575 rmoveto
            45 -27 24 -29 -26 -21 -20 -28 -15 6 -14 15 -11 vhcurveto
            6 -5 6 -5 -12 vvcurveto
            -23 -21 -32 -28 -20 vhcurveto
            16 -23 rlineto
            64 32 39 52 55 vvcurveto
            endchar
          </CharString>
          <CharString index="81">
            hstemhm
            -1 218 -218 813 -501 212 100 189 return
          </CharString>
          <CharString index="82">
            107 67 60 91 29 -7 25 -12 20 hvcurveto
            84 hlineto
            return
          </CharString>
          <CharString index="83">
            -21 -188 53 -25 -21 202 -21 378 35 return
          </CharString>
          <CharString index="84">
            rmoveto
            -38 23 -28 32 24 17 15 23 18 -11 9 -8 5 vhcurveto
            -6 4 -10 5 16 vvcurveto
            21 19 19 18 14 vhcurveto
            -20 22 -42 -21 -35 -37 -1 -47 rlinecurve
            endchar
          </CharString>
          <CharString index="85">
            rmoveto
            -27 16 rlineto
            -22 -14 -19 -25 -24 hhcurveto
            return
          </CharString>
          <CharString index="86">
            -45 -48 50 -57 hhcurveto
            -49 -42 -38 -46 -21 hvcurveto
            26 -22 rlineto
            25 19 26 19 28 hhcurveto
            return
          </CharString>
          <CharString index="87">
            41 33 64 67 26 43 -55 37 rcurveline
            -101 -157 rlineto
            endchar
          </CharString>
          <CharString index="88">
            rmoveto
            -81 callgsubr
            return
          </CharString>
          <CharString index="89">
            -12 11 -42 -1 -55 -8 -42 -12 rlinecurve
            -33 vlineto
            53 -8 rlineto
            13 -2 7 -7 -13 vvcurveto
            -503 vlineto
            -13 -7 -8 -12 -2 vhcurveto
            -45 -52 callgsubr
            vlineto
            return
          </CharString>
          <CharString index="90">
            21 callgsubr
            -52 -6 -43 -13 -88 callgsubr
            return
          </CharString>
          <CharString index="91">
            37 358 173 -41 41 hstemhm
            30 44 161 81 return
          </CharString>
          <CharString index="92">
            -68 callsubr
            6 return
          </CharString>
          <CharString index="93">
            -47 30 48 -28 70 hhcurveto
            79 62 38 60 20 hvcurveto
            -162 292 rmoveto
            55 30 -38 -58 hvcurveto
            -17 -183 vlineto
            79 10 36 34 52 hhcurveto
            return
          </CharString>
          <CharString index="94">
            6 61 -1 54 -7 58 rrcurveto
            -483 hlineto
            return
          </CharString>
          <CharString index="95">
            -85 -26 36 49 34 12 23 17 18 hvcurveto
            return
          </CharString>
          <CharString index="96">
            318 570 rmoveto
            -78 hlineto
            return
          </CharString>
          <CharString index="97">
            -279 -339 rmoveto
            -41 -21 21 35 45 32 21 59 4 hvcurveto
            71 6 2 -31 7 -28 10 -24 rlinecurve
            -34 -35 -47 -15 -37 hhcurveto
            return
          </CharString>
          <CharString index="98">
            6 -13 -23 4 -14 hhcurveto
            -53 -54 -39 -42 -31 hvcurveto
            return
          </CharString>
          <CharString index="99">
            -45 callgsubr
            hstem
            117 return
          </CharString>
          <CharString index="100">
            -106 -113 rlineto
            endchar
          </CharString>
          <CharString index="101">
            338 -4 84 -63 -21 534 38 return
          </CharString>
          <CharString index="102">
            vvcurveto
            -48 41 -22 50 -1 vhcurveto
            return
          </CharString>
          <CharString index="103">
            106 -9 43 500 43 return
          </CharString>
          <CharString index="104">
            -22 -21 -31 -31 22 return
          </CharString>
          <CharString index="105">
            30 -8 52 379 -20 return
          </CharString>
          <CharString index="106">
            0 143.5 -47.5 47.5 363.5 -20 hstemhm
            return
          </CharString>
          <CharString index="107">
            -1 124 28 callsubr
            -31 -32 -3 callsubr
            -21 32 31 22 21 31 vhcurveto
            endchar
          </CharString>
          <CharString index="108">
            rmoveto
            246 53 -246 hlineto
            return
          </CharString>
          <CharString index="109">
            31 callgsubr
            13 return
          </CharString>
          <CharString index="110">
            -1 41 220 41 -34 41 220 41 hstemhm
            30 68 141 70 86 68 141 70 return
          </CharString>
          <CharString index="111">
            -211 -1 rmoveto
            67 24 41 43 47 38 callsubr
            return
          </CharString>
          <CharString index="112">
            38 358 38 50 callgsubr
            return
          </CharString>
          <CharString index="113">
            hstemhm
            -2 221 11 82 29 187 return
          </CharString>
          <CharString index="114">
            56 0 -20 hstemhm
            return
          </CharString>
          <CharString index="115">
            hstem
            83 70 vstem
            268 -137 rmoveto
            37 vlineto
            -94 7 rlineto
            -14 2 -7 7 13 vvcurveto
            return
          </CharString>
          <CharString index="116">
            -17 61 hhcurveto
            142 76 91 144 140 -71 58 -92 -54 -39 -20 -30 -29 hvcurveto
            return
          </CharString>
          <CharString index="117">
            rmoveto
            51 -35 34 -53 -54 -35 -34 -51 -51 35 -33 54 53 35 33 51 vhcurveto
            endchar
          </CharString>
          <CharString index="118">
            -173 -21 194 -78 callgsubr
            323 59.5 0 -20 return
          </CharString>
          <CharString index="119">
            -20 23 -20 hstemhm
            return
          </CharString>
          <CharString index="120">
            58 callsubr
            7 -7 -13 vvcurveto
            return
          </CharString>
          <CharString index="121">
            60 -10 61 -4 -20 hstemhm
            return
          </CharString>
          <CharString index="122">
            -8 41 -33 46 callgsubr
            -42 54 return
          </CharString>
          <CharString index="123">
            vhcurveto
            11 -7 3 -9 2 -10 13 -70 rcurveline
            44 hlineto
            6 42 3 44 return
          </CharString>
          <CharString index="124">
            -27 -22 1 -21 hhcurveto
            -4 -38 50 -10 rlineto
            55 -10 26 -24 -62 return
          </CharString>
          <CharString index="125">
            0 17 319.5 163.5 -58 58 hstemhm
            return
          </CharString>
          <CharString index="126">
            -51 callsubr
            219 -20 return
          </CharString>
          <CharString index="127">
            187 -8 51 -51 54 126 38 21 38 96 58 -41 43 return
          </CharString>
          <CharString index="128">
            vvcurveto
            -79 41 -42 91 -5 vhcurveto
            -3 27 22 0 20 hhcurveto
            endchar
          </CharString>
          <CharString index="129">
            13 6 7 13 2 vhcurveto
            return
          </CharString>
          <CharString index="130">
            523 -4 rmoveto
            76 hlineto
            return
          </CharString>
          <CharString index="131">
            59 -40 -20 52 59 hstemhm
            return
          </CharString>
          <CharString index="132">
            -11 -61 callsubr
            return
          </CharString>
          <CharString index="133">
            -151 152 -40 -39 216 -216 215 216 return
          </CharString>
          <CharString index="134">
            70 -51 43 callgsubr
            214 77 215 77 return
          </CharString>
          <CharString index="135">
            rmoveto
            31 -22 21 return
          </CharString>
          <CharString index="136">
            0 160 -40 40 57 40 208 35 -32 35 hstemhm
            return
          </CharString>
          <CharString index="137">
            86 -52 62 -85 -71 -71 -56 -105 -87 52 -61 85 vhcurveto
            return
          </CharString>
          <CharString index="138">
            -87 0 40 314 71 -10 -20 return
          </CharString>
          <CharString index="139">
            -5 -7 -9 -7 rlinecurve
            return
          </CharString>
          <CharString index="140">
            hstem
            117 81 return
          </CharString>
          <CharString index="141">
            6 -8 -13 vvcurveto
            return
          </CharString>
          <CharString index="142">
            vlineto
            -13 6 callgsubr
            vlineto
            return
          </CharString>
          <CharString index="143">
            -6 3 -13 15 -71 rcurveline
            44 hlineto
            6 42 3 46 return
          </CharString>
          <CharString index="144">
            vvcurveto
            -43 -7 -37 -92 -7 vhcurveto
            -63 vlineto
            92 -7 7 return
          </CharString>
          <CharString index="145">
            27 -49 -70 -67 -23 -41 -43 -46 -29 47 72 vhcurveto
            return
          </CharString>
          <CharString index="146">
            -20 hstem
            189 61.5 vstem
            230 return
          </CharString>
          <CharString index="147">
            562 -22 callsubr
            return
          </CharString>
          <CharString index="148">
            rmoveto
            54 -325 -54 vlineto
            endchar
          </CharString>
          <CharString index="149">
            -54 0 41 334 38 return
          </CharString>
          <CharString index="150">
            34 47 callgsubr
            return
          </CharString>
          <CharString index="151">
            hlineto
            -1 -13 -1 -14 -14 -7 0 -7 -7 vvcurveto
            return
          </CharString>
          <CharString index="152">
            -10 63 -7 31 155 43 193 42 hstemhm
            return
          </CharString>
          <CharString index="153">
            33 rlineto
            -8 -16 -19 -4 -15 hhcurveto
            -30 -21 14 return
          </CharString>
          <CharString index="154">
            251 59 186 -20 hstem
            return
          </CharString>
          <CharString index="155">
            -36 vlineto
            51 -7 rlineto
            return
          </CharString>
          <CharString index="156">
            12 -42 -1 -58 -7 return
          </CharString>
          <CharString index="157">
            7 rlineto
            -12 2 return
          </CharString>
          <CharString index="158">
            71.5 194 73 hintmask 01100111
            return
          </CharString>
          <CharString index="159">
            93 7 vhcurveto
            63 vlineto
            -93 7 -7 37 43 return
          </CharString>
          <CharString index="160">
            0 37 164 40 92 38 91 38 hstemhm
            return
          </CharString>
          <CharString index="161">
            hstem
            136 71 vstem
            207 -136 rmoveto
            return
          </CharString>
          <CharString index="162">
            hstem
            41 77 vstem
            243 -137 rmoveto
            -32 return
          </CharString>
          <CharString index="163">
            rmoveto
            -27 14 rlineto
            -21 -13 -19 -24 -25 hhcurveto
            return
          </CharString>
          <CharString index="164">
            186 0 37 231 46 216 38 return
          </CharString>
          <CharString index="165">
            -8 rlineto
            12 -2 return
          </CharString>
        <CharString name=".notdef">
          167 0 92 329 94 hstem
          64 96 325 94 vstem
          160 141 rmoveto
          125 115 -125 123 41 42 121 -128 119 128 44 -42 -127 -122 127 -124 -41 -41 -123 128 -118 -128 rlineto
          -139 -92 rmoveto
          515 515 -515 hlineto
          endchar
        </CharString>
        <CharString name="A">
          -46 callgsubr
          -27 callgsubr
          hintmask 11010100
          -11 callsubr
          hintmask 11101010
          -173 -503 -100 callsubr
          -137 151 -32 callgsubr
        </CharString>
        <CharString name="AE">
          -80 callgsubr
          endchar
        </CharString>
        <CharString name="Aacute">
          -46 callgsubr
          -27 callgsubr
          hintmask 11010100
          -11 callsubr
          hintmask 11101010
          -173 -503 -100 callsubr
          -80 630 -94 callsubr
          -57 -479 -32 callgsubr
        </CharString>
        <CharString name="Abreve">
          -46 callgsubr
          63 61 -27 callgsubr
          hintmask 11011010
          -11 callsubr
          hintmask 11101101
          -173 -503 -100 callsubr
          -80 653 -86 callsubr
          -57 -502 -32 callgsubr
        </CharString>
        <CharString name="Acircumflex">
          -46 callgsubr
          82 -20 23 -20 -27 callgsubr
          hintmask 1101010100000000
          -11 callsubr
          hintmask 1101011010000000
          -173 -503 -100 callsubr
          -334 538 -82 callgsubr
          rlineto
          hintmask 1110101000000000
          -106 -113 rlineto
          223 -414 -32 callgsubr
        </CharString>
        <CharString name="Adieresis">
          -46 callgsubr
          70 96 57 callgsubr
          -45 94 84 94 -70 216 hintmask 1101101100000000
          -11 callsubr
          hintmask 1101110010000000
          -173 -503 -100 callsubr
          hintmask 1110101100000000
          -260 601 -95 callsubr
          -55 -450 -32 callgsubr
        </CharString>
        <CharString name="Agrave">
          -46 callgsubr
          87 -20 -27 callgsubr
          hintmask 11011010
          -11 callsubr
          hintmask 11101101
          -173 -503 -100 callsubr
          -305 691 -55 callsubr
          3 -419 -32 callgsubr
        </CharString>
        <CharString name="Amacron">
          -46 callgsubr
          89 53 -11 callgsubr
          -405 246 -57 216 hintmask 1101101000000000
          -11 callsubr
          hintmask 1101110010000000
          -173 -503 -100 callsubr
          hintmask 1110100100000000
          -341 572 1 callsubr
          204 -474 -32 callgsubr
        </CharString>
        <CharString name="Aogonek">
          85 -188 49 139 37 137 44 279 73 0 -20 57 callgsubr
          157 216 -206 70 hintmask 11101101
          542 42 callgsubr
          -8 -16 -18 -4 -15 hhcurveto
          -30 -22 14 29 37 40 38 53 21 hvcurveto
          hintmask 11101110
          43 37 hlineto
          -42 11 -11 3 -7 5 -4 11 rlinecurve
          -181 503 rlineto
          -78 hlineto
          -173 -503 -3 -11 -8 -5 -11 -3 rlinecurve
          -44 -49 callsubr
          189 37 vlineto
          -72 14 40 123 rlineto
          219 hlineto
          43 -123 -73 -14 rlineto
          -37 111 -2 vlineto
          hintmask 11101101
          -52 -22 -49 -42 -51 -5 callsubr
          34 37 11 17 23 hvcurveto
          -180 378 rmoveto
          -189 hlineto
          hintmask 11110101
          91 279 rlineto
          endchar
        </CharString>
        <CharString name="Aring">
          85 0 37 137 44 350 -20 150 38 57 callgsubr
          -8 51 96 51 -33 216 hintmask 11110110
          380 649 rmoveto
          50 -35 37 -61 -51 -50 -33 -52 -1 vhcurveto
          -39 20 -31 37 -13 vhcurveto
          hintmask 11111001
          -172 -501 -100 callsubr
          hintmask 11110110
          -180 501 35 13 25 29 1 39 rlinecurve
          3 callgsubr
          129 -432 -32 callgsubr
        </CharString>
        <CharString name="Atilde">
          -46 callgsubr
          66 59 -40 -20 52 59 -27 callgsubr
          hintmask 1101011010000000
          -11 callsubr
          hintmask 1101100101000000
          -173 -503 -100 callsubr
          -62 640 -24 callgsubr
          hintmask 1101011010000000
          -65 callgsubr
          hintmask 1101100010000000
          37 33 -51 53 hhcurveto
          hintmask 1101100101000000
          51 37 48 43 13 hvcurveto
          -75 -489 rmoveto
          -189 hlineto
          hintmask 1110011010000000
          91 279 rlineto
          endchar
        </CharString>
        <CharString name="B">
          70 -4 40 -36 36 237 43 219 33 -33 39 hstemhm
          117 80 191 80 -49 88 hintmask 10101110
          468 441 rmoveto
          86 -51 47 -137 vhcurveto
          hintmask 01110101
          -43 -35 -6 -45 hhcurveto
          -117 -38 hlineto
          61 -12 rlineto
          10 -2 6 -8 -10 vvcurveto
          -430 vlineto
          -10 -7 -8 -10 -2 vhcurveto
          -60 -49 callsubr
          115 vlineto
          55 25 -4 41 hhcurveto
          hintmask 10101101
          177 54 75 96 82 -54 51 -84 3 hvcurveto
          hintmask 10101110
          64 18 35 52 68 vvcurveto
          -271 90 rmoveto
          13 28 4 29 hhcurveto
          89 32 -33 -71 -78 -38 -37 -71 -15 -35 -1 1 -32 hvcurveto
          hintmask 10101101
          77 -280 rmoveto
          -24 -33 2 3 -20 hvcurveto
          231 vlineto
          33 40 1 22 hhcurveto
          87 40 -33 -82 -82 -41 -40 -104 hvcurveto
          endchar
        </CharString>
        <CharString name="C">
          30 callgsubr
          hstem
          45 92 vstem
          305 -10 rmoveto
          59 -101 callsubr
          -178 84 -106 176 hvcurveto
          endchar
        </CharString>
        <CharString name="Cacute">
          30 callgsubr
          hstem
          45 92 263 70 vstem
          305 -10 rmoveto
          59 -101 callsubr
          -178 84 -106 176 hvcurveto
          137 707 -94 callsubr
          endchar
        </CharString>
        <CharString name="Ccaron">
          30 callgsubr
          hstem
          45 92 vstem
          305 -10 rmoveto
          59 -101 callsubr
          -178 84 -106 176 hvcurveto
          114 762 -79 callgsubr
        </CharString>
        <CharString name="Ccedilla">
          46 36 callgsubr
          21 41 505 41 hstemhm
          45 92 166 70 vstemhm
          373 -97 rmoveto
          36 -24 23 -34 5 vhcurveto
          1 -6 -6 1 -4 hhcurveto
          hintmask 10111100
          7 21 rlineto
          58 -101 callsubr
          -166 73 -104 154 -13 hvcurveto
          hintmask 11111100
          -19 -55 rlineto
          26 -1 24 -10 -26 vvcurveto
          -28 -29 -23 -48 -4 vhcurveto
          4 -32 rlineto
          15 hlineto
          72 56 37 54 hvcurveto
          endchar
        </CharString>
        <CharString name="Ccircumflex">
          30 callgsubr
          55 12 callsubr
          45 92 hintmask 11011000
          305 -10 rmoveto
          59 -101 callsubr
          -178 84 -106 176 hvcurveto
          -117 615 -82 callgsubr
          rlineto
          hintmask 11101000
          -7 callsubr
        </CharString>
        <CharString name="Cdotaccent">
          30 callgsubr
          44 106 hstem
          45 92 113 108 vstem
          305 -10 rmoveto
          59 -101 callsubr
          -178 84 -106 176 hvcurveto
          53 684 -60 callgsubr
        </CharString>
        <CharString name="D">
          -73 callgsubr
          endchar
        </CharString>
        <CharString name="Dcaron">
          -73 callgsubr
          210 709 -79 callgsubr
        </CharString>
        <CharString name="Dcroat">
          -83 callsubr
        </CharString>
        <CharString name="E">
          -36 callsubr
          33 callsubr
          204 41 vstem
          -106 callgsubr
          endchar
        </CharString>
        <CharString name="Eacute">
          -36 callsubr
          33 callsubr
          204 41 vstem
          -106 callgsubr
          3 269 -94 callsubr
          endchar
        </CharString>
        <CharString name="Ebreve">
          -36 callsubr
          45 61 33 callsubr
          204 41 vstem
          -106 callgsubr
          3 292 -86 callsubr
          endchar
        </CharString>
        <CharString name="Ecaron">
          -36 callsubr
          33 callsubr
          204 41 vstem
          -106 callgsubr
          -20 324 -79 callgsubr
        </CharString>
        <CharString name="Ecircumflex">
          -36 callsubr
          64 12 callsubr
          117 81 204 41 hintmask 11101110
          -106 callgsubr
          -251 177 -82 callgsubr
          rlineto
          hintmask 11110110
          -7 callsubr
        </CharString>
        <CharString name="Edieresis">
          -36 callsubr
          52 96 hstemhm
          117 81 -67 94 84 94 -1 41 hintmask 11101001
          -106 callgsubr
          hintmask 11110110
          -177 240 -95 callsubr
          endchar
        </CharString>
        <CharString name="Edotaccent">
          -36 callsubr
          53 106 hstemhm
          117 81 15 108 81 41 hintmask 11101010
          -106 callgsubr
          hintmask 11111110
          -81 246 -60 callgsubr
        </CharString>
        <CharString name="Egrave">
          -36 callsubr
          69 -20 33 callsubr
          204 41 vstem
          -106 callgsubr
          -222 330 -55 callsubr
          endchar
        </CharString>
        <CharString name="Emacron">
          -36 callsubr
          71 53 hstemhm
          117 81 -54 246 12 41 hintmask 11111010
          -106 callgsubr
          hintmask 11110110
          -258 211 1 callsubr
          endchar
        </CharString>
        <CharString name="Eng">
          170 -183 45 -24 -21 25 -21 179 37 493 38 hstemhm
          117 52 319 53 hintmask 01011110
          541 23 rmoveto
          473 vlineto
          13 7 7 12 3 vhcurveto
          52 11 rlineto
          38 -204 -38 vlineto
          61 25 callsubr
          -9 -12 vvcurveto
          -363 vlineto
          -290 435 -88 callsubr
          13 vvcurveto
          395 vlineto
          314 -467 rlineto
          hintmask 10011110
          -9 -53 -21 -36 -34 -21 -24 -14 -34 -8 -31 -5 rrcurveto
          hintmask 00111110
          3 -41 rlineto
          hintmask 01011110
          -2 19 14 -2 18 hhcurveto
          123 34 86 120 hvcurveto
          endchar
        </CharString>
        <CharString name="Eogonek">
          34 -188 49 139 44 222 51 210 41 33 callsubr
          89 69 46 41 vstem
          472 -160 rmoveto
          -15 33 rlineto
          -15 callgsubr
          40 50 41 56 15 hvcurveto
          9 50 6 50 48 vvcurveto
          -40 5 -27 -78 -4 -11 -5 -7 -12 -61 callgsubr
          224 hlineto
          -67 callgsubr
          213 91 vlineto
          31 28 -2 -6 17 hvcurveto
          11 -5 7 -6 3 -11 16 -69 rcurveline
          41 hlineto
          -97 callgsubr
          351 -2 vlineto
          -55 -22 -49 -42 -51 vvcurveto
          -48 41 -22 49 -1 vhcurveto
          34 36 11 17 25 hvcurveto
          endchar
        </CharString>
        <CharString name="Eth">
          -83 callsubr
        </CharString>
        <CharString name="Euro">
          65 45 callgsubr
          115 85 vstem
          478 20 rmoveto
          7 40 2 43 -1 37 -45 3 rcurveline
          -23 -66 -4 -11 32 callsubr
          -10 -14 -26 -11 -30 hhcurveto
          -72 -41 52 92 -13 hvcurveto
          162 41 -165 hlineto
          -1 10 0 10 10 vvcurveto
          11 0 11 1 10 vhcurveto
          170 40 -166 hlineto
          104 14 48 47 65 hhcurveto
          26 27 -8 -9 15 hvcurveto
          9 -7 6 36 callsubr
          -2 39 rrcurveto
          17 -41 -52 8 -42 hhcurveto
          -117 -85 -63 -126 -25 hvcurveto
          -81 -40 76 44 callsubr
          -79 -41 83 hlineto
          -119 18 73 -64 125 hhcurveto
          50 57 12 16 36 hvcurveto
          endchar
        </CharString>
        <CharString name="Euro.tf">
          -40 45 callgsubr
          66 84 vstem
          1 175 rmoveto
          69 hlineto
          -122 16 68 -61 121 hhcurveto
          47 53 11 16 34 hvcurveto
          8 40 2 44 -3 40 -44 4 rcurveline
          -21 -68 -4 -12 -6 -9 -9 -7 rlinecurve
          -11 -13 -24 -9 -29 hhcurveto
          -65 -36 50 94 -11 hvcurveto
          148 41 -151 hlineto
          -1 9 0 9 9 vvcurveto
          12 0 12 1 11 vhcurveto
          154 40 -151 hlineto
          104 14 43 47 60 hhcurveto
          23 23 -7 -10 13 hvcurveto
          9 -7 4 36 callsubr
          -1 39 rrcurveto
          17 -40 -48 8 -39 hhcurveto
          -111 -80 -61 -128 -22 hvcurveto
          -70 -40 65 44 callsubr
          -65 hlineto
          endchar
        </CharString>
        <CharString name="F">
          -6 0 37 221.5 50.5 218 41 33 callsubr
          204 41 vstem
          375 256 rmoveto
          56 vlineto
          -177 -6 rlineto
          221 91 vlineto
          31 28 -2 -6 17 hvcurveto
          11 -5 7 -6 3 -11 16 -69 rcurveline
          41 hlineto
          -97 callgsubr
          268 37 vlineto
          -92 12 rlineto
          -11 1 -7 9 10 vvcurveto
          192 vlineto
          endchar
        </CharString>
        <CharString name="G">
          102 -9 -47 callgsubr
          hstemhm
          45 92 287 80 hintmask 00111110
          -45 callsubr
          hintmask 10011110
          -94 callgsubr
          hintmask 01011110
          46 -48 rlineto
          endchar
        </CharString>
        <CharString name="Gbreve">
          102 -9 -47 callgsubr
          36 61 hstemhm
          45 92 287 80 hintmask 00111111
          -45 callsubr
          hintmask 10011111
          -94 callgsubr
          hintmask 01011111
          46 -48 rlineto
          -34 724 -86 callsubr
          endchar
        </CharString>
        <CharString name="Gcircumflex">
          102 -9 -47 callgsubr
          55 12 callsubr
          45 92 287 80 hintmask 0011101110000000
          -45 callsubr
          hintmask 1001101110000000
          -94 callgsubr
          hintmask 0101101110000000
          46 -48 rlineto
          -288 609 -82 callgsubr
          rlineto
          hintmask 0011110110000000
          -7 callsubr
        </CharString>
        <CharString name="Gcommaaccent">
          102 -169 -21 181 -47 callgsubr
          hstemhm
          45 92 150 61 76 80 hintmask 1001111010000000
          -45 callsubr
          hintmask 1100111010000000
          -94 callgsubr
          hintmask 1010111110000000
          46 -48 rlineto
          -136 -102 -105 callsubr
        </CharString>
        <CharString name="Gdotaccent">
          102 -9 -47 callgsubr
          44 106 hstemhm
          45 92 121 108 58 80 hintmask 0011111010000000
          -45 callsubr
          hintmask 1001111010000000
          -94 callgsubr
          hintmask 0101111110000000
          46 -48 rlineto
          -118 678 -60 callgsubr
        </CharString>
        <CharString name="H">
          57 callsubr
          33 callsubr
          268 81 vstem
          -76 callsubr
          endchar
        </CharString>
        <CharString name="Hbar">
          187 0 37 213 46 84 40 110 38 33 callsubr
          268 81 vstem
          44 380 rmoveto
          73 -309 hlineto
          -13 -6 -64 callsubr
          -57 -49 callsubr
          230 37 vlineto
          -54 11 8 callgsubr
          8 12 vvcurveto
          180 268 -179 vlineto
          -13 -6 -64 callsubr
          -50 -49 callsubr
          227 37 vlineto
          -58 11 8 callgsubr
          8 13 vvcurveto
          309 73 40 -73 75 vlineto
          13 6 9 13 2 vhcurveto
          58 11 rlineto
          38 -227 -38 vlineto
          50 -11 rlineto
          13 -3 6 -7 -13 vvcurveto
          -76 -268 76 2 callsubr
          2 vhcurveto
          53 11 rlineto
          38 -229 -38 vlineto
          57 25 callsubr
          -9 -13 vvcurveto
          -75 -73 vlineto
          154 -124 rmoveto
          84 268 -84 vlineto
          endchar
        </CharString>
        <CharString name="Hcircumflex">
          57 callsubr
          64 12 callsubr
          117 81 268 81 hintmask 11101110
          -76 callsubr
          -407 75 -82 callgsubr
          rlineto
          hintmask 11110110
          -7 callsubr
        </CharString>
        <CharString name="I">
          -162 -8 callsubr
          81 vstem
          -103 callgsubr
          endchar
        </CharString>
        <CharString name="IJ">
          121 -8 callsubr
          81 225 81 vstem
          -103 callgsubr
          250 -11 -90 callsubr
          endchar
        </CharString>
        <CharString name="Iacute">
          -162 -8 callsubr
          81 vstem
          -103 callgsubr
          21 167 -94 callsubr
          endchar
        </CharString>
        <CharString name="Iacute_J.NLD">
          132 -8 callsubr
          81 225 81 vstem
          -103 callgsubr
          250 -11 -90 callsubr
          -229 178 -94 callsubr
          303 hmoveto
          -42 57 -173 -117 16 -30 65 23 92 35 42 32 rlinecurve
          endchar
        </CharString>
        <CharString name="Ibreve">
          -162 -45 callgsubr
          45 61 33 callsubr
          vstem
          -103 callgsubr
          21 190 -86 callsubr
          endchar
        </CharString>
        <CharString name="Icircumflex">
          -162 -45 callgsubr
          64 12 callsubr
          117 81 hintmask 11011000
          -103 callgsubr
          -233 75 -82 callgsubr
          rlineto
          hintmask 11101000
          -7 callsubr
        </CharString>
        <CharString name="Idieresis">
          -162 -45 callgsubr
          52 96 hstemhm
          21 94 2 81 1 94 hintmask 11101000
          -103 callgsubr
          hintmask 11110100
          -159 138 -95 callsubr
          endchar
        </CharString>
        <CharString name="Idotaccent">
          -162 -45 callgsubr
          53 106 hstemhm
          103 108 -94 81 hintmask 11001000
          -103 callgsubr
          hintmask 11110000
          -63 144 -60 callgsubr
        </CharString>
        <CharString name="Igrave">
          -162 -45 callgsubr
          69 -20 33 callsubr
          vstem
          -103 callgsubr
          -204 228 -55 callsubr
          endchar
        </CharString>
        <CharString name="Imacron">
          -162 -45 callgsubr
          71 53 33 callsubr
          vstem
          -103 callgsubr
          -240 109 1 callsubr
          endchar
        </CharString>
        <CharString name="Iogonek">
          -162 -188 49 139 37 493 38 hstemhm
          61 69 -13 81 hintmask 11101000
          245 -160 rmoveto
          -13 33 rlineto
          hintmask 11110000
          -8 -17 -19 -4 -15 hhcurveto
          -29 -22 14 29 37 38 38 52 21 hvcurveto
          hintmask 11101000
          54 37 hlineto
          -57 11 8 callgsubr
          8 13 vvcurveto
          425 vlineto
          13 6 40 callgsubr
          -66 callgsubr
          7 -9 -12 vvcurveto
          -426 vlineto
          -12 -6 -64 callsubr
          hintmask 11110000
          -14 callgsubr
          118 -2 vlineto
          -50 -22 -47 -42 -51 vvcurveto
          -48 41 -22 49 -1 vhcurveto
          hintmask 11101000
          33 37 11 17 24 hvcurveto
          endchar
        </CharString>
        <CharString name="Itilde">
          -162 -45 callgsubr
          48 24 callsubr
          117 81 hintmask 11011100
          -103 callgsubr
          hintmask 11100100
          39 177 -24 callgsubr
          hintmask 11011100
          -65 callgsubr
          hintmask 11100100
          37 33 -51 53 hhcurveto
          51 37 48 43 13 hvcurveto
          endchar
        </CharString>
        <CharString name="J">
          -182 530 38 hstem
          108 81 vstem
          209 519 -90 callsubr
          endchar
        </CharString>
        <CharString name="Jacute">
          -182 530 38 hstem
          108 81 vstem
          209 519 -90 callsubr
          75 178 -94 callsubr
          endchar
        </CharString>
        <CharString name="Jcircumflex">
          -182 530 38 64 12 callsubr
          108 81 hintmask 10110000
          209 519 -90 callsubr
          -179 86 -82 callgsubr
          rlineto
          hintmask 11010000
          -7 callsubr
        </CharString>
        <CharString name="K">
          101 -8 callsubr
          80 162 197 vstem
          -76 callgsubr
          endchar
        </CharString>
        <CharString name="Kcommaaccent">
          101 12 callgsubr
          37 493 38 hstemhm
          117 80 117 61 -16 197 hintmask 11110100
          -76 callgsubr
          hintmask 11111000
          335 -106 -105 callsubr
        </CharString>
        <CharString name="L">
          20 0 44 486 38 33 callsubr
          236 41 vstem
          -96 callsubr
          endchar
        </CharString>
        <CharString name="Lacute">
          20 0 44 486 38 33 callsubr
          236 41 vstem
          -96 callsubr
          -108 524 -94 callsubr
          endchar
        </CharString>
        <CharString name="Lcaron">
          21 0 44 486 38 33 callsubr
          236 41 vstem
          -96 callsubr
          -67 223 -38 callsubr
        </CharString>
        <CharString name="Lcommaaccent">
          20 12 callgsubr
          44 486 38 33 callsubr
          68 61 107 41 vstem
          -96 callsubr
          -107 -279 -105 callsubr
        </CharString>
        <CharString name="Ldot">
          21 0 44 215 105 166 38 hstemhm
          117 81 144 107 -15 41 hintmask 10110100
          -96 callsubr
          hintmask 11111000
          15 139 rmoveto
          -53 callgsubr
          endchar
        </CharString>
        <CharString name="Lslash">
          21 0 44 486 38 hstem
          118 81 236 41 vstem
          39 196 rmoveto
          79 33 rlineto
          -159 vlineto
          -13 -1 callgsubr
          -10 rlineto
          -37 419 vlineto
          11 54 4 62 1 52 -41 5 rcurveline
          -32 -98 -3 -11 -7 -7 -11 -4 rlinecurve
          -6 -16 -29 -3 -35 hhcurveto
          -103 215 hlineto
          160 66 rlineto
          53 vlineto
          -160 -71 rlineto
          189 vlineto
          22 callsubr
          75 12 rlineto
          38 -252 -38 vlineto
          58 -11 -43 callsubr
          -218 vlineto
          -79 -32 rlineto
          endchar
        </CharString>
        <CharString name="M">
          316 0 37 460 71 -38 38 hstemhm
          23 202 -202 754 -221 221 hintmask 10101000
          635 494 rmoveto
          -2 14 6 9 14 2 66 11 rcurveline
          38 -198 vlineto
          -121 -426 -137 426 rlineto
          -197 -38 hlineto
          65 -11 13 -2 7 -9 -2 -13 rlinecurve
          hintmask 11010100
          -52 -425 -1 -13 -7 -7 -11 -2 rlinecurve
          -55 -49 callsubr
          202 37 vlineto
          -74 12 51 447 159 -472 rlineto
          57 hlineto
          135 473 71 -448 -68 -12 rlineto
          -37 221 37 vlineto
          -54 11 -11 2 -8 7 -1 12 rlinecurve
          endchar
        </CharString>
        <CharString name="N">
          170 -8 callsubr
          52 319 53 vstem
          -98 callgsubr
          endchar
        </CharString>
        <CharString name="Nacute">
          170 -8 callsubr
          52 319 53 vstem
          -98 callgsubr
          -102 178 -94 callsubr
          endchar
        </CharString>
        <CharString name="Ncaron">
          170 -8 callsubr
          52 319 53 vstem
          -98 callgsubr
          -125 233 -79 callgsubr
        </CharString>
        <CharString name="Ncommaaccent">
          170 12 callgsubr
          37 493 38 hstem
          117 52 164 61 94 53 vstem
          -98 callgsubr
          -166 -625 -105 callsubr
        </CharString>
        <CharString name="Ntilde">
          170 -45 callgsubr
          48 24 callsubr
          117 52 319 53 hintmask 11011110
          -98 callgsubr
          hintmask 11100110
          -84 188 -63 callsubr
        </CharString>
        <CharString name="O">
          -4 callsubr
          hstem
          45 90 312 90 vstem
          -101 callgsubr
          endchar
        </CharString>
        <CharString name="OE">
          297 -8 40 -32 32 -32 44 222 51 210 41 -33 39 hstemhm
          45 89 248 80 204 40 hintmask 0101011100000000
          299 32 rmoveto
          -110 -55 85 166 171 59 81 108 27 29 -6 -15 25 hvcurveto
          -460 vlineto
          -16 -25 -28 -6 -30 hhcurveto
          hintmask 0011101110000000
          426 -32 rmoveto
          10 50 5 50 1 48 -40 5 rcurveline
          -28 -78 -3 -11 -6 -7 -11 -61 callgsubr
          224 hlineto
          -67 callgsubr
          213 90 vlineto
          32 28 -2 -6 16 hvcurveto
          11 -4 8 -6 2 -12 17 -69 rcurveline
          40 hlineto
          4 50 1 44 -4 46 rrcurveto
          -325 -1 hlineto
          hintmask 1001011100000000
          5 -26 -26 2 -24 hhcurveto
          -160 -101 -102 -200 -184 85 -96 161 30 32 4 5 29 hvcurveto
          -1 vlineto
          endchar
        </CharString>
        <CharString name="Oacute">
          -4 callsubr
          hstem
          45 90 312 90 vstem
          -101 callgsubr
          138 163 -94 callsubr
          endchar
        </CharString>
        <CharString name="Obreve">
          -4 callsubr
          36 61 hstem
          45 90 312 90 vstem
          -101 callgsubr
          138 186 -86 callsubr
          endchar
        </CharString>
        <CharString name="Ocircumflex">
          -4 callsubr
          55 12 callsubr
          45 90 312 90 hintmask 11011100
          -101 callgsubr
          -116 71 -82 callgsubr
          rlineto
          hintmask 11101100
          -7 callsubr
        </CharString>
        <CharString name="Odieresis">
          -4 callsubr
          43 96 hstemhm
          45 90 21 94 84 94 19 90 hintmask 11010010
          -101 callgsubr
          hintmask 11111110
          -42 134 -95 callsubr
          endchar
        </CharString>
        <CharString name="Ograve">
          -4 callsubr
          60 -20 hstem
          45 90 312 90 vstem
          -101 callgsubr
          -87 224 -55 callsubr
          endchar
        </CharString>
        <CharString name="Ohungarumlaut">
          -4 callsubr
          hstem
          45 90 312 90 vstem
          -101 callgsubr
          -99 65 -44 callsubr
        </CharString>
        <CharString name="Omacron">
          -4 callsubr
          62 53 hstem
          45 90 34 246 32 90 vstem
          -101 callgsubr
          -123 105 1 callsubr
          endchar
        </CharString>
        <CharString name="Oslash">
          106 -9 41 504 41 hstem
          45 86 319 87 vstem
          537 293 rmoveto
          111 -31 84 -63 47 vhcurveto
          33 65 -41 22 -33 -64 rlineto
          12 -29 -34 7 -39 hhcurveto
          -154 -101 -108 -194 -111 32 -85 63 -46 hvcurveto
          -41 -79 42 -22 39 78 rlineto
          -13 29 34 -6 38 hhcurveto
          156 100 110 192 hvcurveto
          -406 -10 rmoveto
          173 58 80 102 36 29 -9 -18 23 vhcurveto
          -206 -419 rlineto
          -28 42 -14 65 86 vvcurveto
          159 -251 rmoveto
          -35 -29 9 18 -24 hvcurveto
          207 418 rlineto
          27 -42 14 -64 -85 vvcurveto
          -173 -59 -81 -101 vhcurveto
          endchar
        </CharString>
        <CharString name="Otilde">
          -4 callsubr
          39 24 callsubr
          45 90 312 90 hintmask 11011110
          -101 callgsubr
          hintmask 11100110
          156 173 -63 callsubr
        </CharString>
        <CharString name="P">
          36 0 37 181 41 274 35 -35 40 hstemhm
          117 81 201 86 hintmask 11011100
          198 529 rmoveto
          18 20 4 33 hhcurveto
          88 42 -33 -88 -118 -61 -35 -69 -29 -18 1 2 -24 hvcurveto
          106 -225 rmoveto
          -88 12 rlineto
          -11 1 -7 9 10 vvcurveto
          151 vlineto
          -1 24 23 -1 24 hhcurveto
          126 90 71 124 101 -47 59 -151 hvcurveto
          hintmask 11101100
          -63 -21 -5 -45 hhcurveto
          -118 -38 hlineto
          61 -12 rlineto
          10 -2 6 -9 -9 vvcurveto
          -429 vlineto
          -11 -7 -8 -12 -2 vhcurveto
          -14 callgsubr
          264 vlineto
          endchar
        </CharString>
        <CharString name="Q">
          106 -151 62 91 32 -11 -21 532 43 hstemhm
          45 89 314 89 hintmask 10111100
          503 -151 rmoveto
          39 36 17 12 15 hvcurveto
          -8 34 rlineto
          -1 -9 -12 0 -13 hhcurveto
          -48 -33 22 28 -37 hvcurveto
          -22 16 -22 15 -26 10 rrcurveto
          107 33 67 103 155 vvcurveto
          175 -79 109 -157 -155 -101 -109 -193 -174 79 -109 156 -1 vhcurveto
          -35 81 38 -107 104 hhcurveto
          -211 685 rmoveto
          105 51 -83 -165 hvcurveto
          hintmask 11011100
          -172 -58 -80 -100 -105 -51 84 165 vhcurveto
          hintmask 10111100
          172 58 79 100 vhcurveto
          endchar
        </CharString>
        <CharString name="R">
          -98 callsubr
          endchar
        </CharString>
        <CharString name="Racute">
          -98 callsubr
          369 697 -94 callsubr
          endchar
        </CharString>
        <CharString name="Rcaron">
          -98 callsubr
          346 752 -79 callgsubr
        </CharString>
        <CharString name="Rcommaaccent">
          90 12 callgsubr
          37 213 40 243 35 -35 41 hstemhm
          117 80 109 61 30 86 hintmask 11101101
          197 528 rmoveto
          2 13 29 3 29 hhcurveto
          99 30 -42 -73 -88 -43 -39 -62 -1 hvcurveto
          -16 -47 -1 2 -32 hvcurveto
          82 -291 rmoveto
          37 vlineto
          -61 11 rlineto
          -14 3 -7 6 13 vvcurveto
          180 94 vlineto
          17 -18 16 -30 18 -37 36 -77 rcurveline
          -54 26 16 -34 23 hhcurveto
          112 37 hlineto
          -40 9 -16 4 -8 4 -9 18 rlinecurve
          -54 106 -21 40 -19 26 -28 18 rlinecurve
          51 13 72 35 113 vvcurveto
          102 -56 49 -146 vhcurveto
          hintmask 11110111
          -49 -32 -6 -43 hhcurveto
          -117 -38 hlineto
          57 -11 rlineto
          13 -2 7 -7 -14 vvcurveto
          -426 -85 callgsubr
          -57 -49 callsubr
          vlineto
          327 -106 -105 callsubr
        </CharString>
        <CharString name="S">
          -11 -12 40 510 40 hstem
          59 76 207 82 vstem
          -103 callsubr
          -6 -47 -3 -49 2 -47 rrcurveto
          -23 38 63 -24 77 hhcurveto
          138 59 82 81 hvcurveto
          endchar
        </CharString>
        <CharString name="Sacute">
          -11 -12 40 510 40 hstem
          59 76 207 82 vstem
          -103 callsubr
          -6 -47 -3 -49 2 -47 rrcurveto
          -23 38 63 -24 77 hhcurveto
          138 59 82 81 hvcurveto
          -49 546 -94 callsubr
          endchar
        </CharString>
        <CharString name="Scaron">
          -11 -12 40 510 40 hstem
          59 76 207 82 vstem
          -103 callsubr
          -6 -47 -3 -49 2 -47 rrcurveto
          -23 38 63 -24 77 hhcurveto
          138 59 82 81 hvcurveto
          -72 601 -79 callgsubr
        </CharString>
        <CharString name="Scedilla">
          -11 36 callgsubr
          19 40 510 40 hstemhm
          59 76 92 70 45 82 hintmask 10111110
          -103 callsubr
          hintmask 11111110
          -6 -47 -3 -49 2 -47 33 -20 51 -20 62 -6 -18 -53 rcurveline
          -89 callgsubr
          hintmask 10111110
          6 19 rlineto
          136 59 82 81 hvcurveto
          endchar
        </CharString>
        <CharString name="Scircumflex">
          -11 -12 40 510 40 54 12 callsubr
          59 76 207 82 hintmask 11011100
          -103 callsubr
          -6 -47 -3 -49 2 -47 rrcurveto
          -23 38 63 -24 77 hhcurveto
          138 59 82 81 hvcurveto
          -303 454 -82 callgsubr
          rlineto
          hintmask 11101100
          -7 callsubr
        </CharString>
        <CharString name="Scommaaccent">
          -11 -169 -21 178 40 510 40 hstem
          59 76 79 61 67 82 vstem
          -103 callsubr
          -6 -47 -3 -49 2 -47 rrcurveto
          -23 38 63 -24 77 hhcurveto
          138 59 82 81 hvcurveto
          -149 -257 -105 callsubr
        </CharString>
        <CharString name="T">
          -71 callgsubr
          endchar
        </CharString>
        <CharString name="Tbar">
          74 0 37 207 46 105 173 -41 41 hstemhm
          30 44 161 81 160 43 hintmask 11010110
          139 244 rmoveto
          96 -172 hlineto
          -13 -6 -7 -14 -2 vhcurveto
          -85 -13 rlineto
          -37 291 37 vlineto
          -85 13 rlineto
          -14 2 -6 7 13 vvcurveto
          172 96 46 -96 237 44 vlineto
          33 26 -3 -5 15 hvcurveto
          10 -4 6 -6 2 -12 rrcurveto
          hintmask 11100110
          24 -102 rlineto
          43 hlineto
          hintmask 11011110
          -13 callsubr
          hintmask 11101110
          -7 callgsubr
          hintmask 11010110
          24 102 2 12 6 6 12 4 rlinecurve
          5 13 29 3 32 hhcurveto
          43 -237 -96 hlineto
          endchar
        </CharString>
        <CharString name="Tcaron">
          -71 callgsubr
          262 752 -79 callgsubr
        </CharString>
        <CharString name="Thorn">
          34 0 37 84 39 246 41 83 38 hstem
          115 79 198 87 vstem
          275 hmoveto
          37 vlineto
          -61 11 -46 callsubr
          53 vlineto
          -2 26 26 -1 38 hhcurveto
          125 70 53 119 106 -62 48 -115 -36 -34 -2 -4 -38 hvcurveto
          55 33 callgsubr
          13 2 vhcurveto
          61 11 rlineto
          38 -230 -38 vlineto
          51 -11 rlineto
          12 -3 7 -8 -12 vvcurveto
          -426 vlineto
          -12 -6 -64 callsubr
          -51 -49 callsubr
          vlineto
          231 160 rmoveto
          -26 -26 2 3 -30 hvcurveto
          236 vlineto
          2 24 27 3 27 hhcurveto
          89 31 -42 -75 -97 -46 -32 -70 hvcurveto
          endchar
        </CharString>
        <CharString name="U">
          138 -8 41 497 38 hstem
          97 83 280 57 vstem
          -106 callsubr
          endchar
        </CharString>
        <CharString name="Uacute">
          -6 callgsubr
          hstem
          97 83 280 57 vstem
          -106 callsubr
          -125 129 -94 callsubr
          endchar
        </CharString>
        <CharString name="Ubreve">
          -6 callgsubr
          45 61 hstem
          97 83 280 57 vstem
          -106 callsubr
          -125 152 -86 callsubr
          endchar
        </CharString>
        <CharString name="Ucircumflex">
          -6 callgsubr
          64 12 callsubr
          97 83 280 57 hintmask 11011100
          -106 callsubr
          -379 37 -82 callgsubr
          rlineto
          hintmask 11101100
          -7 callsubr
        </CharString>
        <CharString name="Udieresis">
          -6 callgsubr
          52 96 hstemhm
          97 83 0 94 84 94 8 57 hintmask 11010010
          -106 callsubr
          hintmask 11101110
          -305 100 -95 callsubr
          endchar
        </CharString>
        <CharString name="Ugrave">
          -6 callgsubr
          69 -20 hstem
          97 83 280 57 vstem
          -106 callsubr
          -350 190 -55 callsubr
          endchar
        </CharString>
        <CharString name="Uhungarumlaut">
          -6 callgsubr
          hstem
          97 83 280 57 vstem
          -106 callsubr
          -362 31 -44 callsubr
        </CharString>
        <CharString name="Umacron">
          -6 callgsubr
          71 53 hstemhm
          97 83 13 70 116 60 21 57 hintmask 11110110
          379 568 rmoveto
          -38 vlineto
          hintmask 11110010
          63 -15 callsubr
          -8 -13 vvcurveto
          -291 vlineto
          -111 -40 -61 -101 -85 -54 46 131 vhcurveto
          285 33 callgsubr
          12 2 vhcurveto
          hintmask 11111010
          64 12 rlineto
          38 vlineto
          hintmask 11110010
          -226 -38 hlineto
          42 -10 rlineto
          12 -3 34 callsubr
          -278 vlineto
          -152 64 -74 144 134 78 65 152 vhcurveto
          -73 callsubr
          vlineto
          hintmask 11111110
          -386 71 1 callsubr
          endchar
        </CharString>
        <CharString name="Uogonek">
          138 -188 49 131 41 497 38 hstem
          97 83 74 69 137 57 vstem
          254 -117 rmoveto
          -48 41 -22 50 -1 vhcurveto
          32 37 11 17 25 hvcurveto
          -15 46 callsubr
          28 40 43 35 71 46 hvcurveto
          53 33 27 62 90 vvcurveto
          -73 callsubr
          -200 -38 vlineto
          63 -15 callsubr
          -8 -13 vvcurveto
          -291 vlineto
          -111 -40 -61 -101 -85 -54 46 131 vhcurveto
          285 33 callgsubr
          12 2 vhcurveto
          64 12 rlineto
          38 -226 -38 vlineto
          42 -10 rlineto
          12 -3 34 callsubr
          -278 vlineto
          -152 64 -74 144 15 14 1 1 13 vhcurveto
          -1 vlineto
          -44 -21 -49 -37 -52 vvcurveto
          endchar
        </CharString>
        <CharString name="Uring">
          -6 callgsubr
          29 39 96 39 hstemhm
          97 83 37 53 93 52 45 57 hintmask 11011111
          -106 callsubr
          hintmask 11111111
          -164 117 -30 callsubr
        </CharString>
        <CharString name="Utilde">
          -6 callgsubr
          48 24 callsubr
          97 83 280 57 hintmask 11011110
          -106 callsubr
          hintmask 11100110
          -107 139 -63 callsubr
        </CharString>
        <CharString name="V">
          84 -2 83 -62 -21 532 38 hstemhm
          -3 219 -219 562 -192 192 hintmask 01101000
          249 -2 rmoveto
          74 hlineto
          hintmask 10110100
          170 502 3 11 8 5 11 3 rlinecurve
          44 11 rlineto
          38 -192 -38 vlineto
          74 -14 -141 -435 -159 435 75 14 rlineto
          38 -219 -38 vlineto
          41 -11 12 -3 6 -5 4 -11 rlinecurve
          endchar
        </CharString>
        <CharString name="W">
          -6 callsubr
          -26 callsubr
          hintmask 01101000
          23 callsubr
          hintmask 10110110
          -92 callgsubr
          endchar
        </CharString>
        <CharString name="Wacute">
          -6 callsubr
          -26 callsubr
          hintmask 01101000
          23 callsubr
          hintmask 10110110
          -92 callgsubr
          136 320 -94 callsubr
          endchar
        </CharString>
        <CharString name="Wcircumflex">
          -6 callsubr
          64 -20 23 -20 -26 callsubr
          hintmask 0110101000000000
          23 callsubr
          hintmask 1010110110000000
          -92 callgsubr
          -118 228 -82 callgsubr
          rlineto
          hintmask 0111001000000000
          -7 callsubr
        </CharString>
        <CharString name="Wdieresis">
          -6 callsubr
          52 96 hstemhm
          -1 218 54 94 -54 212 -74 94 80 189 hintmask 0111110110000000
          23 callsubr
          147 503 3 12 7 5 11 3 rlinecurve
          45 11 rlineto
          38 -189 -38 vlineto
          73 -14 rlineto
          hintmask 1011101010000000
          -122 -432 -125 432 74 14 rlineto
          38 -212 -38 vlineto
          37 -11 11 -3 6 -6 4 -11 rlinecurve
          15 -43 -111 -376 -129 436 73 14 rlineto
          38 -218 -38 vlineto
          44 -11 11 -3 7 -6 3 -11 rlinecurve
          159 -503 rlineto
          76 hlineto
          110 381 rlineto
          hintmask 0111110110000000
          -44 291 -95 callsubr
          endchar
        </CharString>
        <CharString name="Wgrave">
          -6 callsubr
          69 -20 -26 callsubr
          hintmask 01110100
          23 callsubr
          hintmask 10111011
          -92 callgsubr
          -89 381 -55 callsubr
          endchar
        </CharString>
        <CharString name="X">
          69 -45 callgsubr
          hstemhm
          9 200 -188 224 70 222 -197 183 hintmask 11101000
          537 hmoveto
          37 vlineto
          -42 11 -10 2 -8 4 -5 10 rlinecurve
          -158 236 rlineto
          hintmask 11010100
          142 203 5 9 7 4 10 3 rlinecurve
          45 11 rlineto
          38 -183 -38 vlineto
          65 -13 -118 -181 -113 181 71 13 rlineto
          38 -224 -38 vlineto
          42 -11 10 -3 7 -5 6 -9 rlinecurve
          146 -223 rlineto
          hintmask 11101000
          -150 -215 -6 -10 -6 -4 -11 -2 rlinecurve
          -50 -49 callsubr
          200 37 vlineto
          -74 12 126 193 122 -193 -68 -12 rlineto
          -37 vlineto
          endchar
        </CharString>
        <CharString name="Y">
          57 -45 callgsubr
          6 callsubr
          hintmask 11010000
          -42 callgsubr
          hintmask 11111000
          -84 callgsubr
          hintmask 11010000
          -50 callgsubr
          endchar
        </CharString>
        <CharString name="Yacute">
          57 -45 callgsubr
          6 callsubr
          hintmask 11010000
          -42 callgsubr
          hintmask 11111000
          -84 callgsubr
          hintmask 11010000
          -50 callgsubr
          266 697 -94 callsubr
          endchar
        </CharString>
        <CharString name="Ycircumflex">
          57 -45 callgsubr
          64 -20 23 -20 6 callsubr
          hintmask 11010100
          -42 callgsubr
          hintmask 11011110
          -84 callgsubr
          hintmask 11010100
          -50 callgsubr
          12 605 -82 callgsubr
          rlineto
          hintmask 11100100
          -7 callsubr
        </CharString>
        <CharString name="Ydieresis">
          57 -45 callgsubr
          52 96 hstemhm
          -2 221 -87 94 4 82 -2 94 -63 187 hintmask 11100100
          -42 callgsubr
          hintmask 11110101
          -84 callgsubr
          hintmask 11100100
          -50 callgsubr
          hintmask 11101010
          86 668 -95 callsubr
          endchar
        </CharString>
        <CharString name="Ygrave">
          57 -45 callgsubr
          69 -20 6 callsubr
          hintmask 11101000
          -42 callgsubr
          hintmask 11111100
          -84 callgsubr
          hintmask 11101000
          -50 callgsubr
          41 758 -55 callsubr
          endchar
        </CharString>
        <CharString name="Z">
          -89 callsubr
          endchar
        </CharString>
        <CharString name="Zacute">
          -89 callsubr
          356 697 -94 callsubr
          endchar
        </CharString>
        <CharString name="Zcaron">
          -89 callsubr
          333 752 -79 callgsubr
        </CharString>
        <CharString name="Zdotaccent">
          20 0 44 362 162 -42 42 53 106 hstemhm
          208 108 hintmask 10101000
          441 hmoveto
          8 48 6 70 -2 48 -43 5 rcurveline
          -30 -96 -3 -12 -7 -6 -10 -4 rlinecurve
          -6 -18 -29 -3 -34 hhcurveto
          -150 hlineto
          324 492 -16 32 rlineto
          -366 hlineto
          hintmask 11001000
          -8 -51 -4 -59 3 -52 rrcurveto
          45 hlineto
          hintmask 10111000
          25 91 4 11 6 6 11 4 rlinecurve
          7 17 29 1 34 hhcurveto
          119 hlineto
          -327 -493 19 -33 rlineto
          272 674 -60 callgsubr
        </CharString>
        <CharString name="__periodcentered.CAT">
          -389 220 104 hstem
          -11 107 vstem
          96 272 -17 callgsubr
          endchar
        </CharString>
        <CharString name="__periodcentered.CAT.case">
          -476 261 104 hstem
          -152 107 vstem
          -45 313 28 callsubr
          -32 -32 -21 -21 -31 -31 21 -21 32 32 22 21 31 vhcurveto
          endchar
        </CharString>
        <CharString name="a">
          -71 callsubr
          hstem
          35 83 161 76 vstem
          -107 callsubr
          endchar
        </CharString>
        <CharString name="aacute">
          -71 callsubr
          217 -20 hstem
          35 83 161 76 vstem
          -107 callsubr
          23 466 rmoveto
          -92 callsubr
        </CharString>
        <CharString name="abreve">
          -71 callsubr
          48 62 hstem
          35 83 161 76 vstem
          -107 callsubr
          193 590 -87 callgsubr
        </CharString>
        <CharString name="acircumflex">
          -71 callsubr
          hstem
          35 83 161 76 vstem
          -107 callsubr
          -50 466 -85 callsubr
        </CharString>
        <CharString name="acute">
          -113 640 -20 hstem
          123 186 vstem
          147 458 rmoveto
          -92 callsubr
        </CharString>
        <CharString name="acutecomb">
          640 -20 hstem
          -59 186 vstem
          -35 458 rmoveto
          -92 callsubr
        </CharString>
        <CharString name="acutecomb.case">
          607 147 hstem
          -77 215 vstem
          138 697 -94 callsubr
          endchar
        </CharString>
        <CharString name="adieresis">
          -71 callsubr
          61 96 hstemhm
          35 83 -36 93 69 93 -58 76 hintmask 11111001
          -107 callsubr
          hintmask 11110110
          23 540 -96 callgsubr
        </CharString>
        <CharString name="ae">
          20 callsubr
          hstemhm
          35 83 161 79 186 78 hintmask 0101011110000000
          -29 callsubr
          hintmask 1011101110000000
          -34 callgsubr
          hintmask 0101011110000000
          -14 callsubr
          hintmask 1011011110000000
          -10 callsubr
          endchar
        </CharString>
        <CharString name="agrave">
          -71 callsubr
          217 -20 hstem
          35 83 161 76 vstem
          -107 callsubr
          1 648 -69 callsubr
        </CharString>
        <CharString name="amacron">
          -71 callsubr
          72 53 hstemhm
          35 83 -29 242 -52 76 hintmask 11111010
          -107 callsubr
          hintmask 11110100
          -63 503 -12 callgsubr
        </CharString>
        <CharString name="ampersand">
          107 -10 43 -39 53 227 38 231 33 hstemhm
          40 75 -26 75 140 70 58 113 hintmask 10110110
          164 451 rmoveto
          48 25 44 49 47 19 -40 -45 -58 -35 -44 -48 -36 vhcurveto
          -47 65 -10 36 30 vvcurveto
          68 -418 rmoveto
          hintmask 10111010
          -74 -43 45 65 53 29 31 33 26 hvcurveto
          38 -52 69 -81 57 -54 rrcurveto
          hintmask 10110110
          -22 -32 -39 -11 -38 hhcurveto
          hintmask 10110111
          313 241 rmoveto
          38 -186 -38 vlineto
          57 -11 rlineto
          15 -3 1 -12 -8 vvcurveto
          -40 -8 -47 -26 -36 vhcurveto
          -50 50 -62 69 -46 58 rrcurveto
          83 35 51 51 74 vvcurveto
          77 -55 45 -80 -95 -55 -63 -76 -50 23 -48 42 -57 vhcurveto
          hintmask 10111010
          -55 -22 -59 -41 -86 vvcurveto
          -99 79 -44 97 54 57 14 35 43 vhcurveto
          hintmask 01111011
          -33 40 29 -12 31 hhcurveto
          26 27 8 7 21 hvcurveto
          38 vlineto
          -60 -19 5 39 -40 hvcurveto
          42 43 16 51 8 54 2 13 2 6 13 5 rrcurveto
          endchar
        </CharString>
        <CharString name="aogonek">
          -38 -188 49 131 51 -25 -21 175.5 38 154.5 58 hstemhm
          35 83 107 69 -15 76 hintmask 10111101
          409 -160 rmoveto
          -13 33 rlineto
          hintmask 10111110
          -8 -17 -18 -4 -15 hhcurveto
          -30 -22 14 29 36 37 37 51 21 hvcurveto
          hintmask 11011101
          15 3 14 4 7 2 rrcurveto
          34 vlineto
          -41 4 rlineto
          -15 1 -7 7 16 vvcurveto
          205 vlineto
          101 -48 48 -97 -77 -66 -30 -57 -20 vhcurveto
          19 -18 rlineto
          33 35 41 14 46 hhcurveto
          62 29 -26 -76 hvcurveto
          -49 vlineto
          -83 -7 rlineto
          -75 -6 -86 -24 -85 vvcurveto
          -65 50 -35 67 vhcurveto
          hintmask 11011110
          51 48 21 33 31 hvcurveto
          hintmask 10111110
          6 -26 14 -16 22 -7 rrcurveto
          -1 vlineto
          -49 -22 -50 -41 -50 -5 callsubr
          hintmask 10111101
          33 37 11 17 23 hvcurveto
          hintmask 11011101
          -229 203 rmoveto
          -41 -21 21 35 45 32 21 59 4 hvcurveto
          70 7 rlineto
          -98 vlineto
          -21 -25 -39 -14 -35 hhcurveto
          endchar
        </CharString>
        <CharString name="approxequal">
          2 96 61 -12 62 34 61 -12 62 hstemhm
          58 361 hintmask 10101000
          419 180 rmoveto
          26 callgsubr
          hintmask 01101000
          -21 callsubr
          hintmask 10101000
          10 callgsubr
          145 vmoveto
          26 callgsubr
          hintmask 10011000
          -21 callsubr
          hintmask 10101000
          10 callgsubr
          endchar
        </CharString>
        <CharString name="aring">
          -71 callsubr
          43 37 94 38 hstemhm
          35 83 -5 52 90 52 -28 76 hintmask 1111110010000000
          -107 callsubr
          hintmask 1111101100000000
          155 558 -77 callsubr
        </CharString>
        <CharString name="asciicircum">
          -31 291 268 hstem
          38 371 vstem
          38 315 rmoveto
          33 -24 148 189 153 -189 37 24 -156 244 -67 -5 rlineto
          endchar
        </CharString>
        <CharString name="asciitilde">
          1 168 61 -12 62 hstemhm
          58 361 hintmask 10100000
          419 252 rmoveto
          26 callgsubr
          hintmask 01100000
          -21 callsubr
          hintmask 10100000
          10 callgsubr
          endchar
        </CharString>
        <CharString name="asterisk">
          -38 421 -20 95 -20 177 39 callsubr
          496 -44 callgsubr
        </CharString>
        <CharString name="at">
          294 -188 48 127 64 -62 55 289 50 131 48 hstemhm
          41 58 106 69 182 64 154 52 hintmask 1101111110000000
          337 -188 rmoveto
          78 69 23 31 39 hvcurveto
          -15 29 rlineto
          -19 -30 -71 -16 -56 hhcurveto
          -143 -109 100 193 224 148 137 176 126 125 -70 -174 hvcurveto
          hintmask 1011111110000000
          -146 -89 -80 -42 -16 -7 11 42 71 23 130 14 67 vhcurveto
          -48 16 -16 -24 rlineto
          18 -32 -32 8 -29 hhcurveto
          -122 -73 -133 -112 hvcurveto
          hintmask 1101111110000000
          -89 45 -62 59 68 57 86 88 32 vhcurveto
          hintmask 1011111110000000
          -7 -38 -3 -29 -20 vvcurveto
          -49 17 -36 41 68 144 98 199 181 -120 95 -161 -215 -190 -169 -258 1 vhcurveto
          hintmask 1101111110000000
          -192 1 107 -131 188 hhcurveto
          118 416 rmoveto
          -95 -32 -51 -82 -46 hhcurveto
          -36 -16 53 56 89 39 84 75 26 35 -11 -25 25 hvcurveto
          -4 -20 -6 -24 -9 -25 rrcurveto
          endchar
        </CharString>
        <CharString name="atilde">
          -71 callsubr
          48 14 callsubr
          35 83 161 76 hintmask 11110111
          -107 callsubr
          208 570 -22 callsubr
          hintmask 11101011
          -65 callsubr
          hintmask 11110111
          -36 callgsubr
        </CharString>
        <CharString name="b">
          -5 -8 41 338 54 218 -20 31 -20 hstemhm
          68 78 200 85 hintmask 11011100
          68 20 rmoveto
          -11 25 59 9 callsubr
          hintmask 11101100
          268 vlineto
          hintmask 11011100
          -12 11 -42 -1 -54 -8 -43 -12 rlinecurve
          -33 vlineto
          54 13 callsubr
          151 -537 19 callgsubr
          68 43 -42 -122 -2 hvcurveto
          -122 -1 -44 -52 -82 hhcurveto
          endchar
        </CharString>
        <CharString name="backslash">
          -126 633 -20 hstem
          26 298 vstem
          324 -105 rmoveto
          -231 738 rlineto
          -67 hlineto
          231 -738 rlineto
          endchar
        </CharString>
        <CharString name="bar">
          -247 -110 799 hstem
          83 64 vstem
          83 -110 rmoveto
          64 799 -64 hlineto
          endchar
        </CharString>
        <CharString name="braceleft">
          -156 -147 43 360 13 callgsubr
          56 7 71 57 vvcurveto
          60 -33 34 -68 16 vhcurveto
          68 15 33 31 59 58 -7 70 56 24 callgsubr
          -2 -27 hvcurveto
          -91 -5 -41 -43 -78 -75 12 -59 -54 37 callsubr
          -36 -43 -54 -12 -60 -74 21 callsubr
        </CharString>
        <CharString name="braceright">
          -156 -147 43 360 63 366 38 hstem
          140 82 vstem
          90 -145 rmoveto
          90 6 42 42 79 74 -13 60 54 vvcurveto
          43 7 36 52 callsubr
          54 13 59 75 vvcurveto
          79 -42 42 -90 5 vhcurveto
          2 17 callsubr
          -56 -7 -70 -58 vvcurveto
          -59 33 -34 68 -15 vhcurveto
          -68 -15 -33 -32 -60 -57 7 -71 -56 vvcurveto
          -62 -26 -23 -55 -11 vhcurveto
          -50 -8 4 -39 rlineto
          21 22 0 2 27 hvcurveto
          endchar
        </CharString>
        <CharString name="bracketleft">
          -188 -137 -78 callgsubr
          768.5 41 8 callsubr
          717 vlineto
          14 7 7 14 1 vhcurveto
          94 8 rlineto
          37 vlineto
          -53 6 -73 4 -48 -1 -11 -11 rcurveline
          -847 41 callgsubr
        </CharString>
        <CharString name="bracketright">
          -188 -137 -78 callgsubr
          768.5 41 54 callsubr
          847 vlineto
          -12 11 -49 1 -72 -4 -53 -6 rlinecurve
          -37 vlineto
          94 -8 rlineto
          13 -1 8 -7 -14 vvcurveto
          -717 5 callgsubr
        </CharString>
        <CharString name="breve">
          -113 471 62 hstem
          47 270 vstem
          317 582 -87 callgsubr
        </CharString>
        <CharString name="brokenbar">
          -249 -110 799 hstem
          82 64 vstem
          82 345 rmoveto
          64 344 -64 hlineto
          -799 vmoveto
          64 343 -64 hlineto
          endchar
        </CharString>
        <CharString name="bullet">
          -162 147 169 hstem
          69 177 vstem
          246 231 10 callsubr
        </CharString>
        <CharString name="bulletoperator">
          -142 165 116 hstem
          110 116 vstem
          226 223 rmoveto
          35 -23 23 -35 -35 -23 -23 -35 -34 23 -24 35 35 23 24 34 vhcurveto
          endchar
        </CharString>
        <CharString name="c">
          29 callgsubr
          hstem
          40 86 vstem
          -97 callsubr
          endchar
        </CharString>
        <CharString name="cacute">
          29 callgsubr
          215 -20 hstem
          40 86 vstem
          -97 callsubr
          154 256 rmoveto
          -92 callsubr
        </CharString>
        <CharString name="caron">
          -113 642 -10 callgsubr
          49 274 hintmask 01100000
          295 643 rmoveto
          hintmask 10100000
          -58 callgsubr
          hintmask 01100000
          15 callgsubr
        </CharString>
        <CharString name="ccaron">
          29 callgsubr
          217 -10 callgsubr
          40 86 hintmask 11011000
          -97 callsubr
          302 441 rmoveto
          hintmask 11101000
          -58 callgsubr
          hintmask 11011000
          15 callgsubr
        </CharString>
        <CharString name="ccedilla">
          -67 36 callgsubr
          23 54 338 41 hstemhm
          40 86 94 70 hintmask 10111100
          40 202 rmoveto
          hintmask 11111100
          -110 50 -82 100 -15 vhcurveto
          -20 -59 rlineto
          -89 callgsubr
          hintmask 10111100
          7 23 rlineto
          1 hlineto
          72 54 30 49 23 hvcurveto
          -22 19 rlineto
          -24 -23 -36 -20 -45 hhcurveto
          -77 -44 56 117 111 39 54 68 25 20 -7 -10 12 hvcurveto
          10 -8 2 -8 3 -14 16 -61 rcurveline
          40 hlineto
          6 38 4 47 -3 37 rrcurveto
          15 -29 -52 12 -46 hhcurveto
          -132 -69 -94 -129 hvcurveto
          endchar
        </CharString>
        <CharString name="ccircumflex">
          29 callgsubr
          hstem
          40 86 vstem
          -97 callsubr
          81 256 -85 callsubr
        </CharString>
        <CharString name="cdotaccent">
          29 callgsubr
          58 104 hstem
          40 86 56 108 vstem
          -97 callsubr
          250 333 -79 callsubr
        </CharString>
        <CharString name="cedilla">
          -113 -188 32 92 83 hstem
          188 70 vstem
          166 19 rmoveto
          -28 -83 rlineto
          -89 callgsubr
          16 50 rlineto
          endchar
        </CharString>
        <CharString name="cent">
          -47 5 52 339 40 -40 117 hstemhm
          42 86 65 53 -19 54 hintmask 10111000
          42 -64 callgsubr
        </CharString>
        <CharString name="cent.tf">
          -40 5 52 339 40 -40 117 hstemhm
          45 86 65 53 -19 54 hintmask 10111000
          45 -64 callgsubr
        </CharString>
        <CharString name="circumflex">
          -113 458 171 hstem
          46 274 vstem
          74 458 -85 callsubr
        </CharString>
        <CharString name="colon">
          -250 -8 105 203 104 hstem
          60 107 vstem
          167 352 -17 callgsubr
          -307 vmoveto
          31 -21 21 -32 -33 -21 -21 -31 -31 21 -22 33 32 21 22 31 vhcurveto
          endchar
        </CharString>
        <CharString name="comma">
          -255 -147 256 hstem
          102 66 vstem
          168 26 rmoveto
          55 -29 28 -33 -31 -21 -23 -28 -25 15 -14 14 -9 vhcurveto
          11 -6 8 -4 -18 vvcurveto
          -33 -22 -38 -39 -35 vhcurveto
          17 -23 rlineto
          63 37 47 63 73 vvcurveto
          endchar
        </CharString>
        <CharString name="copyright">
          251 -40 40 104 52 270 41 104 38 hstem
          42 46 116 72 365 45 vstem
          362 104 rmoveto
          65 46 29 39 20 hvcurveto
          -20 20 rlineto
          -22 -19 -36 -14 -37 hhcurveto
          -69 -36 49 89 83 31 49 60 19 18 -5 -9 13 hvcurveto
          11 -7 2 -8 2 -8 13 -53 rcurveline
          39 hlineto
          6 36 2 36 -2 31 rrcurveto
          14 -19 -47 14 -46 hhcurveto
          -103 -71 -68 -117 -105 58 -73 100 hvcurveto
          -274 181 rmoveto
          166 115 120 161 161 116 -120 -166 -166 -116 -119 -161 -161 -115 119 166 vhcurveto
          -46 hmoveto
          -186 138 -139 184 184 138 139 186 185 -137 139 -185 -184 -138 -139 -185 vhcurveto
          endchar
        </CharString>
        <CharString name="currency">
          36 119 56 212 57 hstem
          97 60 198 63 vstem
          97 277 rmoveto
          -36 11 -32 18 -26 vhcurveto
          -77 -77 40 -41 79 79 rlineto
          -16 25 30 -9 33 hhcurveto
          32 30 10 16 26 hvcurveto
          79 -78 40 40 -78 78 rlineto
          21 28 12 35 37 vvcurveto
          36 -11 33 -20 26 vhcurveto
          77 77 -40 40 -79 -78 rlineto
          16 -26 -30 9 -33 hhcurveto
          -33 -29 -10 -17 -25 hvcurveto
          -80 79 -40 -40 79 -79 rlineto
          -20 -28 -11 -35 -37 vvcurveto
          159 -102 rmoveto
          -55 -44 46 58 56 33 52 64 55 46 -48 -59 -58 -32 -47 -67 hvcurveto
          endchar
        </CharString>
        <CharString name="d">
          16 -82 callsubr
          endchar
        </CharString>
        <CharString name="dagger">
          -127 410 39 hstemhm
          133 84 -69 63 hintmask 10100000
          194 -90 rmoveto
          17 464 rlineto
          9 8 5 13 3 vhcurveto
          90 19 rlineto
          41 vlineto
          hintmask 11000000
          -109 -4 4 99 rlineto
          59 -84 -59 vlineto
          4 -99 -109 4 rlineto
          -41 vlineto
          hintmask 10100000
          89 -19 14 -3 7 -5 1 -13 rlinecurve
          1 -7 16 -453 rlineto
          endchar
        </CharString>
        <CharString name="daggerdbl">
          -114 234 39 137 39 hstemhm
          139 85 -76.5 70.5 -66 54 hintmask 11001000
          201 -91 rmoveto
          10 286 1 11 6 5 15 3 rlinecurve
          96 20 rlineto
          41 vlineto
          hintmask 11010000
          -115 -4 4 97 rlineto
          2 vlineto
          1 13 6 5 14 3 90 19 rcurveline
          41 vlineto
          hintmask 11100000
          -109 -4 4 99 rlineto
          59 -85 -59 vlineto
          4 -99 -108 4 rlineto
          -41 vlineto
          hintmask 11010000
          89 -19 13 -3 7 -4 2 -11 rlinecurve
          3 -102 -114 4 rlineto
          -41 vlineto
          hintmask 11001000
          95 -20 15 -3 6 -5 1 -13 rlinecurve
          -2 vlineto
          11 -281 rlineto
          endchar
        </CharString>
        <CharString name="dcaron">
          29 -82 callsubr
          288 484 -38 callsubr
        </CharString>
        <CharString name="dcroat">
          16 -8 53 327 42 67 43 118 37 callgsubr
          41 84 202 78 hintmask 11101110
          196 481 rmoveto
          131 -76 hlineto
          5 -20 -27 4 -27 hhcurveto
          -126 -86 -72 -150 -142 75 -58 89 56 41 25 31 28 hvcurveto
          -31 9 19 -23 40 hhcurveto
          23 30 7 6 17 hvcurveto
          34 vlineto
          -42 4 rlineto
          -13 1 -8 5 18 vvcurveto
          412 52 43 -52 vlineto
          hintmask 11110110
          118 vlineto
          hintmask 11101110
          -12 12 -41 -31 callsubr
          -46 -131 vlineto
          37 -479 rmoveto
          -58 -50 36 123 hvcurveto
          129 1 54 39 69 hhcurveto
          31 30 -9 -10 17 hvcurveto
          -275 vlineto
          -20 -25 -32 -13 -37 hhcurveto
          endchar
        </CharString>
        <CharString name="degree">
          -140 343 47 160 48 hstem
          40 51 154 52 vstem
          168 343 rmoveto
          72 57 54 73 70 -54 58 -75 -70 -58 -55 -73 -70 58 -57 70 hvcurveto
          1 47 rmoveto
          -43 -35 37 43 46 32 34 45 44 33 -36 -44 -47 -31 -33 -45 hvcurveto
          endchar
        </CharString>
        <CharString name="dieresis">
          -113 484 96 hstem
          54 93 69 93 vstem
          147 532 -96 callgsubr
        </CharString>
        <CharString name="divide">
          -34 49 91 57 54 58 90 hstem
          175 94 vstem
          388 197 rmoveto
          54 -332 -54 vlineto
          213 -103 rmoveto
          27 -20 19 -28 -28 -18 -19 -27 -26 18 -19 28 28 20 19 26 vhcurveto
          260 vmoveto
          27 -20 18 -28 -28 -18 -18 -27 -27 18 -18 28 28 20 18 27 vhcurveto
          endchar
        </CharString>
        <CharString name="dollar">
          -53 7 40 408 39 83 -20 hstemhm
          52 74 49 53 -28 54 55 80 hintmask 11111010
          389 -81 callsubr
        </CharString>
        <CharString name="dollar.tf">
          -40 7 40 408 39 83 -20 hstemhm
          58 74 49 53 -28 54 55 80 hintmask 11111010
          395 -81 callsubr
        </CharString>
        <CharString name="dotaccent">
          -113 483 104 hstem
          135 108 vstem
          243 535 -79 callsubr
        </CharString>
        <CharString name="dotlessi">
          -59 callsubr
          hstem
          100 78 vstem
          -104 callsubr
          endchar
        </CharString>
        <CharString name="dotlessj">
          -235 -173 -21 617 -20 hstem
          92 77 vstem
          158 423 rmoveto
          -41 -1 -53 -6 -42 -13 rrcurveto
          -86 callgsubr
          endchar
        </CharString>
        <CharString name="e">
          -37 callgsubr
          hstem
          41 82 187 77 vstem
          -105 callgsubr
          endchar
        </CharString>
        <CharString name="eacute">
          -37 callgsubr
          215 -20 hstem
          41 82 187 77 vstem
          -105 callgsubr
          -34 74 rmoveto
          -92 callsubr
        </CharString>
        <CharString name="ebreve">
          -37 callgsubr
          46 62 hstem
          41 82 187 77 vstem
          -105 callgsubr
          136 198 -87 callgsubr
        </CharString>
        <CharString name="ecaron">
          -37 callgsubr
          217 -10 callgsubr
          41 82 187 77 hintmask 11101110
          -105 callgsubr
          114 259 rmoveto
          hintmask 11110110
          -58 callgsubr
          hintmask 11101110
          15 callgsubr
        </CharString>
        <CharString name="ecircumflex">
          -37 callgsubr
          hstem
          41 82 187 77 vstem
          -105 callgsubr
          -107 74 -85 callsubr
        </CharString>
        <CharString name="edieresis">
          -37 callgsubr
          59 96 hstemhm
          41 82 -26 93 69 93 -42 77 hintmask 11101001
          -105 callgsubr
          hintmask 11110110
          -34 148 -96 callgsubr
        </CharString>
        <CharString name="edotaccent">
          -37 callgsubr
          58 104 hstemhm
          41 82 55 108 24 77 hintmask 11101010
          -105 callgsubr
          hintmask 11111110
          62 151 -79 callsubr
        </CharString>
        <CharString name="egrave">
          -37 callgsubr
          215 -20 hstem
          41 82 187 77 vstem
          -105 callgsubr
          -56 256 -69 callsubr
        </CharString>
        <CharString name="eight">
          -14 -9 42 436 40 hstemhm
          44 55 callgsubr
          44 -72 callsubr
        </CharString>
        <CharString name="eight.tf">
          -40 -9 42 436 40 hstemhm
          31 55 callgsubr
          31 -72 callsubr
        </CharString>
        <CharString name="ellipsis">
          156 -8 105 hstem
          52 107 104 107 104 108 vstem
          370 45 rmoveto
          -53 callgsubr
          212 hmoveto
          31 -22 21 -32 -32 -22 -21 -23 callgsubr
          -423 hmoveto
          -53 callgsubr
          endchar
        </CharString>
        <CharString name="emacron">
          -37 callgsubr
          70 53 hstemhm
          41 82 -19 242 -36 77 hintmask 11111010
          -105 callgsubr
          hintmask 11110100
          -120 111 -12 callgsubr
        </CharString>
        <CharString name="emdash">
          333 189 55 hstem
          59 693 vstem
          59 189 rmoveto
          693 55 -693 hlineto
          endchar
        </CharString>
        <CharString name="endash">
          64 188 56 hstem
          59 423 vstem
          59 188 rmoveto
          423 56 -423 hlineto
          endchar
        </CharString>
        <CharString name="eng">
          35 -183 40 -17 -21 181 -78 callgsubr
          328.5 54 hstemhm
          100 78 188 79 hintmask 01111100
          445 5 rmoveto
          259 vlineto
          102 -29 57 -98 -49 -53 -15 -43 -41 vhcurveto
          -5 45 -14 13 -38 -1 -48 -7 -40 -12 -88 callgsubr
          202 37 vlineto
          -41 7 rlineto
          -12 3 -7 7 13 7 callgsubr
          38 12 36 hhcurveto
          66 16 -38 -81 hvcurveto
          -229 vlineto
          hintmask 10111100
          -72 -7 -39 -19 -21 vhcurveto
          -20 -21 -33 -6 -26 -5 rrcurveto
          hintmask 01111100
          3 -38 rlineto
          -1 14 16 -1 14 hhcurveto
          99 38 66 122 hvcurveto
          endchar
        </CharString>
        <CharString name="enspace">
          -53 endchar
        </CharString>
        <CharString name="eogonek">
          -48 -188 49 131 54 185 38 113 43 hstem
          41 82 56 69 62 77 vstem
          179 -118 rmoveto
          -47 41 -22 49 -1 vhcurveto
          43 callsubr
          -14 46 callsubr
          29 40 31 35 59 46 hvcurveto
          24 18 16 22 8 25 -26 15 rcurveline
          -37 -24 -43 -22 -47 hhcurveto
          -71 -52 43 131 hvcurveto
          4 0 4 3 vvcurveto
          260 hlineto
          3 16 1 21 14 vvcurveto
          94 -62 49 -90 -118 -76 -83 -139 -123 59 -88 124 11 12 1 1 10 vhcurveto
          -2 vlineto
          -35 -22 -43 -37 -51 vvcurveto
          45 500 rmoveto
          55 31 -37 -58 -7 -1 -4 -1 -7 hvcurveto
          -182 hlineto
          80 10 36 33 52 hhcurveto
          endchar
        </CharString>
        <CharString name="equal">
          -25 125 55 87 55 hstem
          59 333 vstem
          392 267 rmoveto
          55 -333 -55 vlineto
          333 -142 rmoveto
          55 -333 -55 vlineto
          endchar
        </CharString>
        <CharString name="estimated">
          41 -8 42 194 43 184 40 hstem
          46 106 224 99 vstem
          450 42 rmoveto
          -20 33 rlineto
          -25 -35 -46 -16 -52 hhcurveto
          -61 -56 23 35 -28 hvcurveto
          136 319 vlineto
          2 17 2 21 23 vvcurveto
          139 -1 -85 67 -115 hhcurveto
          -145 -83 -107 -142 -157 103 -97 143 57 57 16 34 44 hvcurveto
          -298 362 rmoveto
          30 23 43 21 53 hhcurveto
          45 40 -13 -24 20 hvcurveto
          -147 -224 vlineto
          endchar
        </CharString>
        <CharString name="eth">
          -12 -8 41 325 50 241 -20 24 -20 hstemhm
          41 85 207 84 hintmask 11011100
          417 234 rmoveto
          hintmask 11101100
          118 -47 116 -96 84 vhcurveto
          86 56 -29 41 rlineto
          hintmask 11011100
          -93 -68 -43 30 -50 25 -57 17 rlinecurve
          -15 -35 44 -21 39 -23 33 -27 rlinecurve
          -101 -67 29 -42 105 78 40 -41 30 -47 18 -55 rlinecurve
          24 -26 -38 11 -35 hhcurveto
          -77 -93 -54 -155 -129 64 -78 114 131 67 98 144 hvcurveto
          -188 -201 rmoveto
          -77 -26 74 91 119 44 41 60 36 34 -14 -26 24 hvcurveto
          6 -29 3 -32 -34 vvcurveto
          -124 -29 -66 -75 vhcurveto
          endchar
        </CharString>
        <CharString name="exclam">
          -238 -8 98 hstemhm
          69 101 -95 89 hintmask 10100000
          75 563 rmoveto
          22 -394 rlineto
          46 hlineto
          21 394 rlineto
          60 -89 vlineto
          hintmask 11000000
          95 -582 rmoveto
          29 -20 20 -31 -29 -21 -20 -29 -28 21 -21 29 31 20 21 28 vhcurveto
          endchar
        </CharString>
        <CharString name="exclamdown">
          -250 328 97 hstemhm
          63 101 -94 88 hintmask 10100000
          158 -205 rmoveto
          60 vlineto
          -21 394 rlineto
          -47 hlineto
          -20 -394 rlineto
          -60 vlineto
          hintmask 11000000
          94 582 rmoveto
          28 -20 20 -30 -30 -21 -20 -28 -30 21 -19 30 30 20 19 30 vhcurveto
          endchar
        </CharString>
        <CharString name="f">
          -154 -52 callsubr
          170 70 hstem
          101 78 vstem
          102 455 rmoveto
          -42 -43 callgsubr
          239 37 vlineto
          -77 -75 callsubr
          123 50 -123 73 vlineto
          73 27 23 63 1 vhcurveto
          23 33 -3 -6 28 hvcurveto
          13 51 rlineto
          17 -29 -32 11 -32 hhcurveto
          -83 -88 -87 -111 hvcurveto
          endchar
        </CharString>
        <CharString name="f_b">
          309 15 callsubr
          158 70 -10 -20 hstemhm
          101 77 205 77 201 84 hintmask 0110101110000000
          275 hmoveto
          37 vlineto
          -77 -75 callsubr
          129 50 -129 73 vlineto
          72 39 25 66 29 35 -4 -14 36 vhcurveto
          hintmask 1001011110000000
          -545 vlineto
          -11 26 57 -17 62 hhcurveto
          141 76 91 144 140 -71 58 -91 -54 -40 -21 -30 -29 hvcurveto
          269 vlineto
          hintmask 0110101110000000
          -12 11 -20 -4 -25 -8 -26 -11 rlinecurve
          14 -29 -29 8 -26 hhcurveto
          -89 -102 -85 -111 hvcurveto
          -44 -28 callsubr
          hintmask 1001101110000000
          497 33 rmoveto
          -33 -22 8 10 -19 hvcurveto
          288 vlineto
          20 25 29 12 37 hhcurveto
          69 43 -42 -122 -2 hvcurveto
          -122 -2 -43 -52 -82 hhcurveto
          endchar
        </CharString>
        <CharString name="f_f">
          135 -52 callsubr
          151 70 -51 70 hstemhm
          101 77 214 77 hintmask 11011100
          264 hmoveto
          37 vlineto
          -66 -75 callsubr
          214 -297 -85 callgsubr
          -43 -52 callgsubr
          237 37 vlineto
          -77 -75 callsubr
          123 50 -123 73 vlineto
          73 27 23 64 1 vhcurveto
          22 32 -3 -6 29 hvcurveto
          13 52 rlineto
          16 -30 -31 11 -32 hhcurveto
          -83 -87 -87 -111 hvcurveto
          -42 -215 vlineto
          hintmask 11101100
          -84 callsubr
          endchar
        </CharString>
        <CharString name="f_f_b">
          600 15 callsubr
          139 70 -51 70 -10 -20 hstemhm
          101 77 214 77 205 77 201 84 hintmask 0110010111100000
          264 hmoveto
          37 vlineto
          -66 -75 callsubr
          214 -297 vlineto
          -13 6 callgsubr
          238 37 vlineto
          -77 -75 callsubr
          128 50 -128 73 vlineto
          72 41 25 63 30 36 -4 -14 35 vhcurveto
          hintmask 1001001111100000
          -545 vlineto
          -11 26 57 9 callsubr
          268 vlineto
          hintmask 0110010111100000
          -13 11 -20 -4 -24 -8 -25 -11 rlinecurve
          14 -29 -30 8 -26 hhcurveto
          -87 -104 -85 -111 hvcurveto
          -44 -215 vlineto
          hintmask 0110100111100000
          -84 callsubr
          hintmask 1001010111100000
          787 33 19 callgsubr
          69 42 -42 -122 -1 hvcurveto
          -122 -2 -43 -52 -83 hhcurveto
          endchar
        </CharString>
        <CharString name="f_f_h">
          636 -52 callsubr
          -44 54 141 27 callsubr
          189 78 hintmask 1100101111000000
          -75 callgsubr
          -498 -85 callgsubr
          -43 -52 callgsubr
          199 37 vlineto
          -40 7 rlineto
          -12 3 -7 6 14 vvcurveto
          hintmask 1010011111000000
          2 callgsubr
          39 12 38 hhcurveto
          63 17 -20 callgsubr
          -8 -5 -12 -3 vhcurveto
          -40 -52 callgsubr
          202 37 vlineto
          -45 7 1 callgsubr
          197 vlineto
          101 -28 58 -97 -51 -51 -14 -41 -40 vhcurveto
          274 vlineto
          hintmask 1100101111000000
          -33 callsubr
          hintmask 1101001111000000
          54 vlineto
          73 28 23 63 1 vhcurveto
          22 31 -4 -7 27 hvcurveto
          17 51 rlineto
          18 -30 -31 12 -32 hhcurveto
          -83 -87 -84 -111 -1 hvcurveto
          -26 vlineto
          -73 -10 rlineto
          hintmask 1010101111000000
          -72 callgsubr
          vlineto
          endchar
        </CharString>
        <CharString name="f_f_k">
          605 -52 callsubr
          -35 35 151 27 callsubr
          91 198 hintmask 1100101110000000
          -75 callgsubr
          -497 27 callgsubr
          -43 -52 callgsubr
          204 37 vlineto
          -44 7 rlineto
          -13 2 -7 7 14 vvcurveto
          64 vlineto
          69 72 11 -18 11 -21 13 -23 rlinecurve
          41 -78 rlineto
          -37 20 14 -26 20 hhcurveto
          110 37 hlineto
          -45 10 -11 3 -9 6 -8 14 rlinecurve
          -76 126 -14 25 -11 17 -14 19 rlinecurve
          hintmask 1010101111000000
          94 97 9 9 8 3 13 2 rlinecurve
          44 10 rlineto
          hintmask 1100101111000000
          35 -198 vlineto
          hintmask 1010011111000000
          -35 vlineto
          74 -12 -165 -179 rlineto
          455 vlineto
          hintmask 1100101110000000
          -33 callsubr
          hintmask 1101001110000000
          -84 callsubr
          endchar
        </CharString>
        <CharString name="f_f_l">
          376 -52 callsubr
          151 27 callsubr
          hintmask 11010111
          -75 callgsubr
          -498 -85 callgsubr
          -43 -52 callgsubr
          213 36 vlineto
          -53 8 rlineto
          -13 2 -7 7 14 vvcurveto
          hintmask 11001111
          575 vlineto
          hintmask 11010111
          -33 callsubr
          hintmask 11100111
          -84 callsubr
          endchar
        </CharString>
        <CharString name="f_h">
          345 -52 callsubr
          -44 54 160 43 callgsubr
          215 78 188 78 hintmask 11010111
          -42 callsubr
          -498 -85 callgsubr
          -43 -52 callgsubr
          199 37 vlineto
          -39 7 rlineto
          -13 51 callgsubr
          hintmask 10101111
          2 callgsubr
          38 12 38 hhcurveto
          63 17 -20 callgsubr
          -8 -5 -12 -3 vhcurveto
          -39 -52 callgsubr
          201 37 vlineto
          -44 7 rlineto
          -13 2 -7 7 14 vvcurveto
          197 vlineto
          101 -28 58 -97 -50 -51 -14 -40 -40 vhcurveto
          273 vlineto
          hintmask 11010111
          -14 12 -20 -4 -25 -9 -25 -10 rlinecurve
          14 -31 -9 callgsubr
          vlineto
          -73 -10 rlineto
          hintmask 10110111
          -72 callgsubr
          vlineto
          endchar
        </CharString>
        <CharString name="f_k">
          314 -52 callsubr
          -35 35 170 43 callgsubr
          215 78 91 198 hintmask 11010110
          -42 callsubr
          -497 27 callgsubr
          -43 -52 callgsubr
          204 37 vlineto
          -44 7 8 callgsubr
          7 14 vvcurveto
          65 vlineto
          69 71 11 -18 10 -21 13 -23 rlinecurve
          41 -78 rlineto
          -37 20 14 -26 20 hhcurveto
          110 37 hlineto
          -45 10 -11 3 -9 6 -8 14 rlinecurve
          -76 126 -14 25 -10 17 -15 19 rlinecurve
          hintmask 10110111
          94 97 9 9 8 3 14 2 rlinecurve
          44 10 rlineto
          hintmask 11010111
          35 -198 vlineto
          hintmask 10101111
          -35 vlineto
          73 -12 -164 -178 rlineto
          454 vlineto
          hintmask 11010110
          -34 callsubr
        </CharString>
        <CharString name="f_l">
          85 -52 callsubr
          170 43 callgsubr
          215 78 hintmask 11101100
          -42 callsubr
          -498 -85 callgsubr
          -43 -52 callgsubr
          213 36 vlineto
          -53 8 8 callgsubr
          7 14 vvcurveto
          hintmask 11011100
          575 vlineto
          hintmask 11101100
          -34 callsubr
        </CharString>
        <CharString name="five">
          -51 -9 53 225 53 116 62 hstem
          77.5 54 162.5 88 vstem
          58 -47 callsubr
        </CharString>
        <CharString name="five.tf">
          -40 -9 53 225 53 116 62 hstem
          82.5 54 162.5 88 vstem
          63 -47 callsubr
        </CharString>
        <CharString name="four">
          -36 -1 callsubr
          258 77 hintmask 01110000
          40 -39 callsubr
        </CharString>
        <CharString name="four.dnom">
          -103 0 105 -39 39 233 13 hstemhm
          212 59 hintmask 01110000
          51 66 rmoveto
          161 hlineto
          hintmask 10110000
          -66 59 vlineto
          hintmask 01110000
          66 62 48 vlineto
          -80 callsubr
        </CharString>
        <CharString name="four.numr">
          -103 294 39 233 13 hstem
          216 59 vstem
          55 294 rmoveto
          161 -66 59 66 62 48 hlineto
          -80 callsubr
        </CharString>
        <CharString name="four.tf">
          -40 -1 callsubr
          255 77 hintmask 01110000
          37 -39 callsubr
        </CharString>
        <CharString name="foursuperior">
          -110 294 39 233 13 hstem
          212 59 vstem
          51 294 rmoveto
          161 -66 59 66 62 48 hlineto
          -80 callsubr
        </CharString>
        <CharString name="fraction">
          -13 callgsubr
        </CharString>
        <CharString name="g">
          -91 callgsubr
          endchar
        </CharString>
        <CharString name="gbreve">
          -49 callgsubr
          73 62 11 callgsubr
          173 79 -24 76 hintmask 1101010100101000
          -69 callgsubr
          hintmask 1101100101010000
          -25 callsubr
          hintmask 1101001101010000
          59 vlineto
          hintmask 1101010101010000
          -70 callgsubr
          hintmask 1101010100110000
          -26 callgsubr
          hintmask 1101010110010000
          -28 callgsubr
          hintmask 1101010100101000
          -21 callgsubr
          hintmask 1011010110010000
          -12 callsubr
          hintmask 1101010101001000
          -30 callgsubr
          hintmask 1101010100101000
          -67 -56 -32 -82 vhcurveto
          hintmask 1101010101010000
          -54 callsubr
          227 299 -87 callgsubr
        </CharString>
        <CharString name="gcircumflex">
          -91 callgsubr
          -16 175 -85 callsubr
        </CharString>
        <CharString name="gcommaaccent">
          -49 callgsubr
          253 -20 11 callgsubr
          38 61 74 79 -24 76 hintmask 1101010100110100
          -69 callgsubr
          hintmask 1101100101011000
          -25 callsubr
          hintmask 1101001101011000
          59 vlineto
          hintmask 1101010101011000
          -70 callgsubr
          hintmask 1101010100111000
          -26 callgsubr
          hintmask 1101010110011000
          -28 callgsubr
          hintmask 1101010100110100
          -21 callgsubr
          hintmask 1011010110011000
          -12 callsubr
          hintmask 1101010101010100
          -30 callgsubr
          hintmask 1101010100110100
          -67 -56 -32 -82 vhcurveto
          hintmask 1101010101011000
          -54 callsubr
          41 263 -23 callsubr
        </CharString>
        <CharString name="gdotaccent">
          -49 callgsubr
          85 104 11 callgsubr
          42 108 23 79 -24 76 hintmask 1101010000100100
          -69 callgsubr
          hintmask 1101100001001000
          -25 callsubr
          hintmask 1101001001001000
          59 vlineto
          hintmask 1101010001001000
          -70 callgsubr
          hintmask 1101010000101000
          -26 callgsubr
          hintmask 1101010010001000
          -28 callgsubr
          hintmask 1101010000100100
          -21 callgsubr
          hintmask 1011010010001000
          -12 callsubr
          hintmask 1101010001000100
          -30 callgsubr
          hintmask 1101010000100100
          -67 -56 -32 -82 vhcurveto
          hintmask 1101010001001000
          -54 callsubr
          hintmask 1101010101011000
          153 252 -79 callsubr
        </CharString>
        <CharString name="germandbls">
          75 -10 39 -29 -78 callgsubr
          324 48.5 183 57 hstemhm
          100 78 85 74 34 81 -1 75 hintmask 10111101
          526 115 rmoveto
          65 -44 32 -60 31 vhcurveto
          -49 26 -36 17 38 vvcurveto
          40 36 30 62 14 vhcurveto
          hintmask 01111110
          10 26 7 37 31 vvcurveto
          90 -62 61 -87 -106 -97 -90 -123 vhcurveto
          -27 vlineto
          -71 -10 rlineto
          -34 vlineto
          71 -9 rlineto
          -294 vlineto
          -13 -7 -7 -12 -2 vhcurveto
          -45 -52 callgsubr
          142 461 vlineto
          100 36 35 59 67 31 -47 -62 -17 -2 -25 -8 -22 vhcurveto
          -49 -20 -49 -37 -63 vvcurveto
          -62 47 -28 50 -27 vhcurveto
          hintmask 10111101
          54 -29 37 -20 -44 vvcurveto
          -40 -30 -24 -43 -30 -22 11 9 -12 vhcurveto
          -10 7 -3 6 -5 17 -14 52 rcurveline
          -42 hlineto
          -2 -18 -2 -20 -22 vvcurveto
          -16 1 -16 2 -17 vhcurveto
          -14 28 46 -18 55 hhcurveto
          90 68 45 80 hvcurveto
          endchar
        </CharString>
        <CharString name="grave">
          -113 640 -20 hstem
          72 181 vstem
          125 640 -69 callsubr
        </CharString>
        <CharString name="gravecomb">
          640 -20 hstem
          -110 181 vstem
          -57 640 -69 callsubr
        </CharString>
        <CharString name="gravecomb.case">
          637 -20 hstem
          -131 209 vstem
          -87 758 -55 callsubr
          endchar
        </CharString>
        <CharString name="greater">
          -58 48 350 hstem
          51 333 vstem
          384 201 rmoveto
          45 vlineto
          -308 152 -25 -53 262 -122 -262 -122 25 -53 rlineto
          endchar
        </CharString>
        <CharString name="greaterequal">
          -39 0 54 hstem
          57 332 vstem
          389 253 rmoveto
          44 vlineto
          -308 143 -23 -54 262 -112 -262 -111 23 -53 rlineto
          301 -110 41 callsubr
        </CharString>
        <CharString name="guillemotleft">
          36 412 -20 hstem
          39 436 vstem
          39 197 rmoveto
          203 -41 callgsubr
          -203 -164 rlineto
          205 -51 rmoveto
          203 -41 callgsubr
          -203 -164 rlineto
          endchar
        </CharString>
        <CharString name="guillemotright">
          29 412 -20 hstem
          38 429 -4 callgsubr
          401 160 rmoveto
          51 vlineto
          -203 16 callgsubr
        </CharString>
        <CharString name="guilsinglleft">
          -169 412 -20 hstem
          39 231 vstem
          39 197 rmoveto
          203 -41 callgsubr
          -203 -164 rlineto
          endchar
        </CharString>
        <CharString name="guilsinglright">
          -169 412 -20 hstem
          38 231 -4 callgsubr
          endchar
        </CharString>
        <CharString name="h">
          -77 callgsubr
          endchar
        </CharString>
        <CharString name="hbar">
          42 0 -78 callgsubr
          318.5 54 68 42 119 37 callgsubr
          90 78 189 77 hintmask 11101110
          25 481 rmoveto
          65 -415 hlineto
          -13 6 callgsubr
          201 37 vlineto
          -39 7 rlineto
          -14 51 callgsubr
          257 vlineto
          24 32 38 11 38 hhcurveto
          64 17 -39 -80 hvcurveto
          -173 vlineto
          -15 -9 -5 -11 -3 vhcurveto
          -39 -52 callgsubr
          201 37 vlineto
          -45 50 callsubr
          -8 7 14 vvcurveto
          187 vlineto
          101 -28 58 -96 -51 -51 -14 -40 -40 vhcurveto
          122 123 42 -123 vlineto
          hintmask 11110110
          119 vlineto
          hintmask 11101110
          -12 12 -41 -1 -57 -6 49 callgsubr
          53 -8 rlineto
          13 -2 7 -7 -13 vvcurveto
          -48 -65 vlineto
          endchar
        </CharString>
        <CharString name="hcircumflex">
          -77 callgsubr
          6 679 -82 callgsubr
          -7 callsubr
        </CharString>
        <CharString name="hungarumlaut">
          -113 648 12 callsubr
          78 295 hintmask 01100000
          104 468 -35 callsubr
          hintmask 10100000
          -20 callsubr
        </CharString>
        <CharString name="hyphen">
          -86 189 55 hstem
          59 273 vstem
          59 189 rmoveto
          273 55 -273 hlineto
          endchar
        </CharString>
        <CharString name="i">
          -59 callsubr
          80 104 hstemhm
          76 108 -84 78 hintmask 11101000
          -104 callsubr
          hintmask 11110000
          6 468 28 callsubr
          -32 -32 -3 callsubr
          -21 32 32 22 21 31 vhcurveto
          endchar
        </CharString>
        <CharString name="iacute">
          -59 callsubr
          237 -20 hstem
          100 78 vstem
          -104 callsubr
          -90 391 rmoveto
          -92 callsubr
        </CharString>
        <CharString name="iacute_j.NLD">
          33 11 callsubr
          237 -20 hstemhm
          100 78 182 77 hintmask 11011110
          32 callgsubr
          hintmask 11101110
          -102 callsubr
          248 356 rmoveto
          -41 -1 -53 -6 -42 -13 rrcurveto
          -86 callgsubr
          -349 47 rmoveto
          60 39 72 58 30 39 -53 46 rcurveline
          -133 -156 rlineto
          276 -26 rmoveto
          -92 callsubr
        </CharString>
        <CharString name="ibreve">
          -59 callsubr
          68 60 hstem
          100 78 vstem
          -104 callsubr
          73 515 -18 callgsubr
        </CharString>
        <CharString name="icircumflex">
          -59 callsubr
          hstem
          100 78 vstem
          -104 callsubr
          -151 392 -16 callgsubr
        </CharString>
        <CharString name="idieresis">
          -59 callsubr
          81 96 hstemhm
          -5 93 12 78 -21 93 hintmask 11101000
          -104 callsubr
          hintmask 11110100
          -90 465 -96 callgsubr
        </CharString>
        <CharString name="igrave">
          -59 callsubr
          237 -20 hstem
          100 78 vstem
          -104 callsubr
          -112 573 -69 callsubr
        </CharString>
        <CharString name="ij">
          21 11 callsubr
          80 104 hstemhm
          76 108 -84 78 138 107 -76 77 hintmask 1101101010000000
          32 callgsubr
          hintmask 1110101010000000
          -102 callsubr
          hintmask 1101110010000000
          6 468 28 callsubr
          -32 -32 -3 callsubr
          -21 32 32 22 21 31 vhcurveto
          229 -112 rmoveto
          -41 -1 -53 -6 -42 -13 rrcurveto
          hintmask 1110101010000000
          -86 callgsubr
          hintmask 1101101100000000
          0 callsubr
        </CharString>
        <CharString name="imacron">
          -59 callsubr
          92 53 hstemhm
          12 221 -133 78 hintmask 11101000
          -104 callsubr
          hintmask 11110000
          -166 428 rmoveto
          221 53 -221 hlineto
          endchar
        </CharString>
        <CharString name="infinity">
          217 72 47 -45 55 176 55 -45 47 hstemhm
          47 57 486 58 hintmask 10011100
          648 227 rmoveto
          hintmask 10101100
          76 -52 57 -75 -64 -54 -41 -61 -40 vhcurveto
          hintmask 01011100
          70 -58 -39 34 -64 hhcurveto
          -92 -63 -69 -85 -78 51 -56 75 64 54 41 61 40 hvcurveto
          hintmask 10011100
          -71 58 39 -33 64 hhcurveto
          92 64 68 87 hvcurveto
          hintmask 01011100
          -454 -98 rmoveto
          -51 -39 44 57 49 30 36 39 47 41 -53 -63 51 hvcurveto
          -45 -41 -39 -25 -38 hhcurveto
          hintmask 10101100
          326 -10 rmoveto
          -46 -41 53 63 -51 hvcurveto
          45 41 39 25 37 hhcurveto
          52 39 -45 -56 -49 -30 -36 -40 hvcurveto
          endchar
        </CharString>
        <CharString name="integral">
          -153 -195 52 748 52 hstemhm
          82 79 3 81 hintmask 11010000
          245 -20 rmoveto
          hintmask 11100000
          139 -84 252 130 vvcurveto
          76 32 28 43 21 23 -5 -12 20 vhcurveto
          18 32 rlineto
          23 -20 -38 14 -37 hhcurveto
          -74 -67 -55 -121 hvcurveto
          hintmask 11010000
          -141 82 -248 -131 vvcurveto
          -77 -31 -27 -46 -20 -23 5 12 -21 vhcurveto
          -18 -32 rlineto
          -23 21 36 -14 39 hhcurveto
          76 68 55 120 hvcurveto
          endchar
        </CharString>
        <CharString name="iogonek">
          14 callgsubr
          80 104 hstemhm
          40 70 -34 108 -84 78 hintmask 11110010
          225 42 callgsubr
          hintmask 11111000
          -15 callgsubr
          37 40 38 52 21 hvcurveto
          hintmask 11110010
          -37 callsubr
          hintmask 11111000
          -52 -22 -49 -42 -51 -5 callsubr
          hintmask 11110010
          43 callsubr
          hintmask 11110100
          -41 695 -79 callsubr
        </CharString>
        <CharString name="itilde">
          -59 callsubr
          68 60 -10 61 -6 -20 hstemhm
          100 78 hintmask 11101100
          -104 callsubr
          87 495 56 callsubr
          hintmask 11010100
          9 callgsubr
          hintmask 11101100
          31 27 -50 45 hhcurveto
          52 32 47 44 13 hvcurveto
          endchar
        </CharString>
        <CharString name="j">
          -235 -173 -21 617 -20 80 104 hstemhm
          61 107 -76 77 hintmask 11101000
          158 423 rmoveto
          -41 -1 -53 -6 -42 -13 rrcurveto
          -86 callgsubr
          hintmask 11110000
          0 callsubr
        </CharString>
        <CharString name="jacute">
          -235 -173 -21 617 -20 237 -20 hstem
          92 77 vstem
          158 423 rmoveto
          -41 -1 -53 -6 -42 -13 rrcurveto
          -86 callgsubr
          -97 47 rmoveto
          -92 callsubr
        </CharString>
        <CharString name="jcircumflex">
          -235 -173 -21 617 -20 hstem
          92 77 vstem
          158 423 rmoveto
          -41 -1 -53 -6 -42 -13 rrcurveto
          -86 callgsubr
          -158 48 -16 callgsubr
        </CharString>
        <CharString name="k">
          11 0 -78 callgsubr
          337.5 35 230 -20 31 -20 hstemhm
          90 78 91 198 hintmask 11011100
          -54 callgsubr
          hintmask 11101100
          455 vlineto
          hintmask 11011100
          -18 callsubr
          endchar
        </CharString>
        <CharString name="kcommaaccent">
          11 12 callgsubr
          -78 callgsubr
          337.5 35 230 -20 31 -20 hstemhm
          90 78 91 198 -197 61 hintmask 11101110
          -54 callgsubr
          hintmask 11110110
          455 vlineto
          hintmask 11101101
          -18 callsubr
          295 -106 -105 callsubr
        </CharString>
        <CharString name="l">
          -216 0 40 602 37 callgsubr
          92 78 hintmask 11010000
          170 642 rmoveto
          hintmask 10110000
          -87 callsubr
          endchar
        </CharString>
        <CharString name="lacute">
          -216 0 40 602 37 callgsubr
          92 78 hintmask 11010000
          170 642 rmoveto
          hintmask 10110000
          -87 callsubr
          87 710 -94 callsubr
          endchar
        </CharString>
        <CharString name="lcaron">
          -202 0 40 602 37 callgsubr
          92 78 hintmask 11010000
          170 642 rmoveto
          hintmask 10110000
          -87 callsubr
          88 409 -38 callsubr
        </CharString>
        <CharString name="lcommaaccent">
          -216 12 callgsubr
          40 602 37 callgsubr
          92 78 -50 61 hintmask 11101000
          170 642 rmoveto
          hintmask 11011000
          -87 callsubr
          hintmask 11010100
          11 -173 -105 callsubr
        </CharString>
        <CharString name="ldot">
          -128 0 40 180 104 318 37 callgsubr
          92 78 80 107 hintmask 11101000
          170 642 rmoveto
          hintmask 11011100
          -87 callsubr
          187 205 -17 callgsubr
          endchar
        </CharString>
        <CharString name="less">
          -58 48 350 hstem
          36 332 vstem
          368 101 rmoveto
          -263 123 263 121 -25 53 -307 -152 rlineto
          -45 vlineto
          307 -153 rlineto
          endchar
        </CharString>
        <CharString name="lessequal">
          -39 0 54 hstem
          50 332 vstem
          382 163 rmoveto
          -263 112 263 112 -24 53 -308 -143 rlineto
          -44 vlineto
          308 -143 rlineto
          24 -110 41 callsubr
        </CharString>
        <CharString name="logicalnot">
          -2 195 56 hstem
          355 60 vstem
          60 195 rmoveto
          295 -156 60 212 -355 hlineto
          endchar
        </CharString>
        <CharString name="lslash">
          -200 0 40 372 -20 262 -20 hstem
          102 78 vstem
          19 246 rmoveto
          83 42 rlineto
          -222 vlineto
          -13 -7 -7 -12 -2 vhcurveto
          -53 -52 callgsubr
          223 36 vlineto
          -53 8 rlineto
          -13 2 -7 7 14 vvcurveto
          252 vlineto
          82 40 rlineto
          53 vlineto
          -82 -43 rlineto
          273 vlineto
          -11 12 -42 -31 callsubr
          -233 vlineto
          -83 -40 rlineto
          endchar
        </CharString>
        <CharString name="m">
          298 -51 callsubr
          hstem
          100 78 178 53 callgsubr
          cntrmask 00111000
          755 hmoveto
          37 vlineto
          -46 7 1 callgsubr
          193 vlineto
          107 -29 56 -99 -48 -53 -13 -46 -43 vhcurveto
          38 -17 -33 21 -57 hhcurveto
          -49 -50 -14 -42 -37 hvcurveto
          -5 43 -14 13 -38 -1 -48 -7 -40 -12 rlinecurve
          -95 callgsubr
          -12 -2 vhcurveto
          -45 -52 callgsubr
          201 37 vlineto
          -40 7 rlineto
          -13 51 callgsubr
          269 vlineto
          22 30 40 11 33 hhcurveto
          63 12 -20 callgsubr
          -8 -5 -12 -3 vhcurveto
          -39 -52 callgsubr
          196 37 vlineto
          -39 7 rlineto
          -13 3 -7 6 14 vvcurveto
          197 vlineto
          27 -2 24 -4 20 vhcurveto
          24 32 35 10 33 hhcurveto
          66 18 -37 -83 hvcurveto
          -182 vlineto
          -15 -8 -5 -12 -3 vhcurveto
          -39 -52 callgsubr
          vlineto
          endchar
        </CharString>
        <CharString name="macron">
          -113 495 53 hstem
          61 242 vstem
          61 495 -12 callgsubr
        </CharString>
        <CharString name="minus">
          -32 195 56 hstem
          60 325 vstem
          60 195 rmoveto
          325 56 -325 hlineto
          endchar
        </CharString>
        <CharString name="minute">
          -284 414 -20 hstem
          48 114 vstem
          48 414 rmoveto
          17 callgsubr
          endchar
        </CharString>
        <CharString name="multiply">
          -72 71 307 hstem
          52 301 vstem
          94 71 rmoveto
          109 117 109 -117 41 43 -113 110 113 110 -41 44 -109 -117 -109 117 -42 -44 113 -110 -113 -110 rlineto
          endchar
        </CharString>
        <CharString name="n">
          52 -51 callsubr
          hstem
          100 78 189 77 vstem
          509 -102 callgsubr
          endchar
        </CharString>
        <CharString name="nacute">
          52 -51 callsubr
          217 -20 hstem
          100 78 189 77 vstem
          509 -102 callgsubr
          -75 458 rmoveto
          -92 callsubr
        </CharString>
        <CharString name="napostrophe">
          58 -51 callsubr
          221 -20 hstemhm
          23 70 13 78 189 77 hintmask 11101100
          515 -102 callgsubr
          hintmask 11111100
          -220 -27 callsubr
        </CharString>
        <CharString name="ncaron">
          52 19 callsubr
          21 -20 hstemhm
          100 78 189 77 hintmask 11011100
          509 -102 callgsubr
          73 643 rmoveto
          hintmask 11101100
          -58 callgsubr
          hintmask 11011100
          15 callgsubr
        </CharString>
        <CharString name="ncommaaccent">
          52 12 callgsubr
          -78 callgsubr
          328.5 54 hstem
          100 78 87 61 41 77 vstem
          509 -102 callgsubr
          19 -106 -105 callsubr
        </CharString>
        <CharString name="nine">
          -20 -9 50 136 52 237 43 hstem
          41 82 200 86 vstem
          223 -57 callsubr
        </CharString>
        <CharString name="nine.tf">
          -40 -9 50 136 52 237 43 hstem
          30 82 200 86 vstem
          212 -57 callsubr
        </CharString>
        <CharString name="notequal">
          -59 125 55 87 55 -55 153 hstemhm
          43 332 hintmask 11010000
          375 125 rmoveto
          55 -162 vlineto
          38 87 rlineto
          124 55 -100 hlineto
          hintmask 10110000
          43 98 rlineto
          -48 hlineto
          hintmask 11010000
          -43 -98 rlineto
          -184 -55 160 hlineto
          -38 -87 rlineto
          -122 -55 98 hlineto
          -41 -94 rlineto
          48 hlineto
          41 94 rlineto
          endchar
        </CharString>
        <CharString name="ntilde">
          52 -51 callsubr
          48 14 callsubr
          100 78 189 77 hintmask 11101110
          509 -102 callgsubr
          110 562 -63 callgsubr
        </CharString>
        <CharString name="numbersign">
          50 0 177 -46 46 153 44 -44 169 hstemhm
          117 62 -42.5 61 -42.5 61 89 62 -44.5 62.5 -43 61 hintmask 1010100010000000
          111 hmoveto
          62 hlineto
          hintmask 0110100100000000
          12 131 rlineto
          126 hlineto
          hintmask 1010010100000000
          -12 -131 rlineto
          62 hlineto
          hintmask 0110010100000000
          12 131 rlineto
          hintmask 0110010010000000
          96 hlineto
          -1 46 rlineto
          -90 hlineto
          14 153 rlineto
          hintmask 0110010001000000
          92 hlineto
          1 44 rlineto
          -88 hlineto
          hintmask 0101010001000000
          12 125 rlineto
          -61 hlineto
          hintmask 0110001001000000
          -12 -125 rlineto
          -126 hlineto
          hintmask 0101001010000000
          12 125 rlineto
          -61 hlineto
          hintmask 0110001010000000
          -12 -125 rlineto
          hintmask 0110010010000000
          -93 -44 88 hlineto
          -15 -153 rlineto
          hintmask 0110100010000000
          -85 -46 79 hlineto
          hintmask 0110010010000000
          67 46 rmoveto
          15 153 rlineto
          125 hlineto
          -15 -153 rlineto
          endchar
        </CharString>
        <CharString name="o">
          -5 callgsubr
          hstem
          41 86 214 86 vstem
          -99 callgsubr
          endchar
        </CharString>
        <CharString name="oacute">
          -5 callgsubr
          215 -20 hstem
          41 86 214 86 vstem
          -99 callgsubr
          158 253 rmoveto
          -92 callsubr
        </CharString>
        <CharString name="obreve">
          -5 callgsubr
          46 62 hstem
          41 86 214 86 vstem
          -99 callgsubr
          328 377 -87 callgsubr
        </CharString>
        <CharString name="ocircumflex">
          -5 callgsubr
          hstem
          41 86 214 86 vstem
          -99 callgsubr
          85 253 -85 callsubr
        </CharString>
        <CharString name="odieresis">
          -5 callgsubr
          59 96 hstemhm
          41 86 -21 93 69 93 -20 86 hintmask 11010010
          -99 callgsubr
          hintmask 11101100
          158 327 -96 callgsubr
        </CharString>
        <CharString name="oe">
          254 -8 43 -43 54 185 38 113 43 hstemhm
          41 86 213 85 186 78 hintmask 10111110
          127 212 rmoveto
          120 33 50 71 84 25 -70 -108 -119 -32 -50 -71 -85 -25 70 107 vhcurveto
          hintmask 01111110
          560 -122 rmoveto
          -26 15 rlineto
          -37 -23 -46 -22 -45 hhcurveto
          -70 -52 43 131 hvcurveto
          4 0 4 3 vvcurveto
          259 hlineto
          3 16 2 21 14 vvcurveto
          94 -62 49 -90 -65 -52 -26 -47 -34 vhcurveto
          47 -27 -49 26 -71 hhcurveto
          -108 -90 -66 -153 hvcurveto
          hintmask 10111110
          -129 57 -85 128 64 57 21 52 34 vhcurveto
          hintmask 01111110
          -46 30 48 -27 68 hhcurveto
          79 62 39 59 19 hvcurveto
          -161 292 rmoveto
          55 30 -37 -58 -7 0 -4 -1 -7 hvcurveto
          -182 hlineto
          80 10 36 33 52 hhcurveto
          endchar
        </CharString>
        <CharString name="ogonek">
          -113 -188 49 165 -21 hstem
          89 70 vstem
          274 -33 callgsubr
        </CharString>
        <CharString name="ograve">
          -5 callgsubr
          215 -20 hstem
          41 86 214 86 vstem
          -99 callgsubr
          136 435 -69 callsubr
        </CharString>
        <CharString name="ohungarumlaut">
          -5 callgsubr
          223 12 callsubr
          41 86 214 86 hintmask 11011100
          -99 callgsubr
          115 263 -35 callsubr
          hintmask 11101100
          -20 callsubr
        </CharString>
        <CharString name="omacron">
          -5 callgsubr
          70 53 hstemhm
          41 86 -14 242 -14 86 hintmask 11110100
          -99 callgsubr
          hintmask 11101000
          72 290 -12 callgsubr
        </CharString>
        <CharString name="one">
          -135 0 37 465 -20 28 -20 hstemhm
          154 77 hintmask 11010000
          231 -38 callgsubr
        </CharString>
        <CharString name="one.dnom">
          -103 0 35 callgsubr
          hstem
          177 62 vstem
          239 345 -83 callgsubr
          endchar
        </CharString>
        <CharString name="one.numr">
          -103 228 35 callgsubr
          306.5 -20 hstem
          173 62 vstem
          235 573 -83 callgsubr
          endchar
        </CharString>
        <CharString name="one.tf">
          -40 0 37 465 -20 28 -20 hstemhm
          201 77 hintmask 11010000
          278 -38 callgsubr
        </CharString>
        <CharString name="onehalf">
          366 0 45 183 35 callgsubr
          35 callgsubr
          48 215 -20 25 -20 hstemhm
          142 62 515 69 hintmask 11101110
          204 573 -83 callgsubr
          67 -290 rmoveto
          hintmask 11110110
          -40 callsubr
          341 hmoveto
          -55 callgsubr
          -62 callgsubr
        </CharString>
        <CharString name="onequarter">
          368 0 105 -39 39 123 35 callgsubr
          71.5 13 217 -20 25 -20 hstemhm
          144 62 492 59 hintmask 01110111
          206 573 -83 callgsubr
          hintmask 10111011
          67 -290 rmoveto
          -40 callsubr
          hintmask 01110111
          327 66 rmoveto
          161 hlineto
          hintmask 10110111
          -66 59 vlineto
          hintmask 01110111
          66 62 48 vlineto
          -80 callsubr
        </CharString>
        <CharString name="onesuperior">
          -143 228 35 callgsubr
          306.5 -20 hstem
          153 62 vstem
          215 573 -83 callgsubr
          endchar
        </CharString>
        <CharString name="ordfeminine">
          -79 247 44 92 34 107 50 hstem
          46 77 116 71 vstem
          168 291 rmoveto
          -31 -14 14 26 31 22 16 45 3 hvcurveto
          49 4 rlineto
          -72 vlineto
          -13 -19 -27 -9 -25 hhcurveto
          -28 -44 rmoveto
          41 37 14 25 24 hvcurveto
          -26 9 20 -12 29 hhcurveto
          20 27 7 3 11 hvcurveto
          30 vlineto
          -31 3 rlineto
          -11 1 -6 4 12 vvcurveto
          150 vlineto
          78 -38 38 -82 -65 -53 -25 -44 -16 vhcurveto
          17 -16 rlineto
          24 27 32 11 37 hhcurveto
          47 23 -18 -54 hvcurveto
          -35 vlineto
          -65 -5 rlineto
          -61 -3 -67 -23 -63 vvcurveto
          -48 39 -28 55 vhcurveto
          endchar
        </CharString>
        <CharString name="ordmasculine">
          -75 244 36 258 36 hstem
          43 80 156 80 vstem
          279 405 rmoveto
          -90 -25 -35 -51 -62 -18 47 86 90 25 35 51 61 19 -47 -86 vhcurveto
          -236 1 rmoveto
          -102 49 -60 104 91 72 48 119 103 -49 60 -104 -90 -73 -48 -120 vhcurveto
          endchar
        </CharString>
        <CharString name="oslash">
          -9 -8 41 -11 -21 382 42 -10 -20 hstemhm
          41 83 221 82 hintmask 10011100
          427 210 rmoveto
          84 -24 65 -52 36 vhcurveto
          32 63 -39 21 -33 -64 rlineto
          hintmask 01101100
          6 -20 -24 4 -26 hhcurveto
          -110 -90 -66 -154 -84 25 -65 53 -36 hvcurveto
          -33 -67 38 -21 36 69 rlineto
          hintmask 10101100
          -6 19 23 -3 25 hhcurveto
          hintmask 10011100
          111 89 65 153 hvcurveto
          hintmask 10101100
          -303 3 rmoveto
          120 35 50 72 24 19 -5 -10 16 vhcurveto
          -139 -292 rlineto
          -20 32 -7 47 58 vvcurveto
          113 -180 rmoveto
          -23 -19 5 9 -15 hvcurveto
          138 291 rlineto
          20 -32 7 -46 -57 vvcurveto
          -119 -36 -51 -72 vhcurveto
          endchar
        </CharString>
        <CharString name="otilde">
          -5 callgsubr
          46 14 callsubr
          41 86 214 86 hintmask 11101110
          -99 callgsubr
          343 357 -63 callgsubr
        </CharString>
        <CharString name="p">
          18 -180 -78 callgsubr
          131.5 41 -10 -21 369 54 hstemhm
          91 78 201 84 hintmask 11011100
          244 33 rmoveto
          -31 -27 7 11 -17 hvcurveto
          286 vlineto
          18 20 31 16 41 hhcurveto
          76 35 -54 -109 -2 hvcurveto
          -130 -1 -49 -45 -76 hhcurveto
          210 194 rmoveto
          138 -70 60 -91 -60 -40 -25 -32 -27 vhcurveto
          -5 42 -13 13 -41 -1 -44 -7 -41 -12 rlinecurve
          48 callsubr
          13 -2 5 -8 -13 vvcurveto
          -452 vlineto
          -12 -6 -8 -13 -1 vhcurveto
          -45 -52 callgsubr
          223 37 vlineto
          -61 7 rlineto
          -12 1 -8 8 12 vvcurveto
          hintmask 10111100
          117 vlineto
          hintmask 11011100
          -8 23 28 -2 22 hhcurveto
          133 79 88 147 hvcurveto
          endchar
        </CharString>
        <CharString name="paragraph">
          49 0 37 488 51 -46 38 hstemhm
          195 66 84 66 hintmask 11011000
          104 -126 rmoveto
          122 40 35 45 128 vvcurveto
          438 vlineto
          28 32 -3 -1 24 hvcurveto
          -521 143 37 vlineto
          -58 11 rlineto
          -11 2 -8 8 11 vvcurveto
          hintmask 10111000
          429 vlineto
          11 7 8 13 2 vhcurveto
          53 11 rlineto
          38 -79 vlineto
          -75 -62 8 -49 hhcurveto
          hintmask 11011000
          -133 -59 -69 -90 -109 87 -54 81 -4 hvcurveto
          -132 vlineto
          -107 -16 -48 -93 -51 vhcurveto
          endchar
        </CharString>
        <CharString name="parenleft">
          -218 -165 907 55 callsubr
          43 -97 146 4 253 2 223 84 133 39 52 -29 29 rcurveline
          -40 -37 -133 -159 -254 vvcurveto
          -283 142 -146 31 -28 vhcurveto
          endchar
        </CharString>
        <CharString name="parenright">
          -218 -165 907 hstem
          142 77 vstem
          219 283 rmoveto
          284 -142 147 -31 28 vhcurveto
          -29 -29 31 -44 98 -145 -4 -254 rlinecurve
          -3 -222 -83 -133 -39 -52 29 -28 rcurveline
          39 35 134 159 254 vvcurveto
          endchar
        </CharString>
        <CharString name="partialdiff">
          10 -9 53 282 45 216 55 hstem
          40 88 236 82 vstem
          40 161 rmoveto
          -103 62 -67 103 161 80 165 184 176 -73 126 -151 -65 -52 -23 -39 -31 vhcurveto
          17 -26 rlineto
          19 27 32 14 40 hhcurveto
          118 49 -120 -128 6 hvcurveto
          23 -34 -45 9 -40 hhcurveto
          -114 -90 -85 -125 hvcurveto
          184 -117 rmoveto
          -61 -35 54 77 84 42 67 82 34 45 -11 -26 33 hvcurveto
          -126 -5 -44 -119 -91 hhcurveto
          endchar
        </CharString>
        <CharString name="percent">
          227 3 callsubr
          hintmask 10111111
          211 hmoveto
          -40 callsubr
          hintmask 11011111
          -35 callgsubr
          hintmask 10111111
          30 callsubr
          hintmask 11011111
          72 70 56 105 hvcurveto
          hintmask 10111111
          4 callsubr
          endchar
        </CharString>
        <CharString name="period">
          -266 -8 105 hstem
          52 107 vstem
          159 45 rmoveto
          -53 callgsubr
          endchar
        </CharString>
        <CharString name="periodcentered">
          -253 189 105 hstem
          59 107 vstem
          166 242 rmoveto
          -53 callgsubr
          endchar
        </CharString>
        <CharString name="perthousand">
          559 3 callsubr
          55 68 141 70 hintmask 1011111111000000
          211 hmoveto
          -40 callsubr
          hintmask 1101110100000000
          -35 callgsubr
          hintmask 1010001100000000
          30 callsubr
          hintmask 1101110100000000
          72 70 56 105 hvcurveto
          hintmask 1010001111000000
          4 callsubr
          545 1 rmoveto
          86 -52 62 -85 -72 -70 -56 -105 -87 52 -61 85 72 70 56 105 vhcurveto
          -211 -1 rmoveto
          67 24 41 42 48 38 callsubr
          endchar
        </CharString>
        <CharString name="pi">
          58 -8 67 282 72 -9 9 hstemhm
          308 70 hintmask 11010000
          234 236 rmoveto
          21 105 rlineto
          77 hlineto
          -21 -213 rlineto
          -2 -17 -1 -21 -11 vvcurveto
          -56 22 -31 45 39 46 25 31 31 vhcurveto
          -17 32 rlineto
          -13 -24 -28 -8 -17 hhcurveto
          -18 -11 12 46 2 hvcurveto
          10 224 rlineto
          104 hlineto
          hintmask 10110000
          20 63 rlineto
          hintmask 11010000
          -13 11 -322 -2 rlineto
          -78 -43 -28 -88 -22 hvcurveto
          32 -17 rlineto
          42 27 31 19 41 hhcurveto
          42 hlineto
          -17 -67 -32 -116 -56 -72 -60 -32 rlinecurve
          -2 -17 48 -48 69 47 49 66 28 134 rlinecurve
          endchar
        </CharString>
        <CharString name="plus">
          -63 196 55 hstem
          177 59 vstem
          236 55 rmoveto
          82 vlineto
          -2 62 61 -3 rlineto
          78 55 -78 hlineto
          -61 -3 2 62 rlineto
          82 -59 -82 vlineto
          3 -62 -61 3 rlineto
          -78 -55 78 hlineto
          61 3 -3 -62 rlineto
          -82 vlineto
          endchar
        </CharString>
        <CharString name="plusminus">
          -38 0 54 180 54 -54 185 hstemhm
          190 59 hintmask 11010000
          249 104 rmoveto
          71 vlineto
          -3 61 62 -2 rlineto
          78 54 -78 hlineto
          -62 -2 rlineto
          hintmask 10110000
          3 62 rlineto
          71 -59 vlineto
          hintmask 11010000
          -71 vlineto
          3 -62 -62 2 rlineto
          -78 -54 78 hlineto
          62 2 -3 -61 rlineto
          -71 vlineto
          192 -104 41 callsubr
        </CharString>
        <CharString name="product">
          131 -81 37 569 43 hstem
          112 81 223 81 vstem
          497 498 rmoveto
          13 6 7 13 3 vhcurveto
          58 9 rlineto
          38 -539 -38 vlineto
          -66 callgsubr
          7 -8 -13 vvcurveto
          -506 vlineto
          -12 -7 -8 -12 -3 vhcurveto
          -14 callgsubr
          221 37 vlineto
          -45 10 rlineto
          -12 3 -6 8 13 vvcurveto
          535 223 -535 vlineto
          -13 -6 -8 -13 -3 vhcurveto
          -42 -10 rlineto
          -37 219 37 vlineto
          -58 11 rlineto
          -13 3 -6 8 12 vvcurveto
          endchar
        </CharString>
        <CharString name="q">
          -1 -180 -78 callgsubr
          131.5 53 338 42 hstem
          41 84 201 78 vstem
          207 -8 rmoveto
          51 40 23 29 28 hvcurveto
          -159 vlineto
          -12 -7 -8 -13 -1 vhcurveto
          -62 -52 callgsubr
          212 37 vlineto
          -33 6 rlineto
          -12 2 -7 8 12 vvcurveto
          525 vlineto
          -15 13 -40 -20 rlineto
          13 -28 -36 9 -36 hhcurveto
          -122 -86 -80 -149 -144 73 -60 93 hvcurveto
          26 53 rmoveto
          -59 -49 36 129 129 55 44 71 29 27 -8 -16 19 hvcurveto
          -281 vlineto
          -20 -25 -32 -13 -36 hhcurveto
          endchar
        </CharString>
        <CharString name="question">
          -87 -8 98 500 46 hstemhm
          121 100 -95 65.5 85.5 86 hintmask 01011000
          188 169 rmoveto
          7 61 4 39 9 7 41 34 rlinecurve
          60 47 54 45 74 vvcurveto
          84 -70 76 -111 -63 -56 -25 -28 -33 vhcurveto
          -42 8 -48 12 -38 vhcurveto
          46 hlineto
          8 73 1 15 3 10 11 11 rlinecurve
          13 13 28 13 31 hhcurveto
          56 30 -40 -55 -54 -27 -32 -61 -56 hvcurveto
          -39 -36 -24 -18 -42 vvcurveto
          -26 10 -36 9 -26 vhcurveto
          hintmask 11101000
          76 -128 rmoveto
          29 -20 20 -31 -30 -19 -20 -29 -28 19 -21 30 31 20 21 28 vhcurveto
          endchar
        </CharString>
        <CharString name="questiondown">
          -93 -218 44 502 97 hstemhm
          25 85 56 101 -71.5 66.5 25.5 70.5 hintmask 11101000
          199 249 rmoveto
          -7 -61 -4 -39 -9 -7 -41 -34 rlinecurve
          -60 -48 -53 -45 -73 vvcurveto
          -84 68 -76 112 vhcurveto
          hintmask 11110100
          63 57 25 27 33 hvcurveto
          -1 43 -8 46 -11 39 rrcurveto
          -47 hlineto
          -7 -72 -3 -16 -3 -9 -9 -11 rlinecurve
          -13 -14 -28 -15 -32 hhcurveto
          -56 -29 42 54 54 27 33 62 56 hvcurveto
          hintmask 11101000
          39 36 24 18 41 vvcurveto
          26 -11 36 -9 27 vhcurveto
          hintmask 11110000
          -76 128 rmoveto
          -30 20 -19 30 30 21 19 30 28 -21 20 -30 -30 -20 -20 -28 vhcurveto
          endchar
        </CharString>
        <CharString name="quotedbl">
          -97 339 277 hstem
          61.5 64 130 64 vstem
          69 339 25 callgsubr
          209 -277 25 callgsubr
          endchar
        </CharString>
        <CharString name="quotedblbase">
          -96 -100 241 hstem
          103 67 86 67 vstem
          170 57 -53 callsubr
        </CharString>
        <CharString name="quotedblleft">
          -119 442 241 hstem
          40 66 87 66 vstem
          40 526 rmoveto
          -48 callsubr
          153 hmoveto
          -48 callsubr
          endchar
        </CharString>
        <CharString name="quotedblright">
          -119 435 241 hstem
          103 67 86 67 vstem
          170 592 -53 callsubr
        </CharString>
        <CharString name="quoteleft">
          -273 442 241 hstem
          40 66 vstem
          40 526 rmoveto
          -48 callsubr
          endchar
        </CharString>
        <CharString name="quoteright">
          -271 435 241 hstem
          103 67 vstem
          170 592 rmoveto
          -22 callgsubr
        </CharString>
        <CharString name="quotesinglbase">
          -249 -100 241 hstem
          103 67 vstem
          170 57 rmoveto
          -22 callgsubr
        </CharString>
        <CharString name="quotesingle">
          -290 339 277 hstem
          61.5 64 vstem
          69 339 25 callgsubr
          endchar
        </CharString>
        <CharString name="r">
          31 callsubr
          hstemhm
          100 78 hintmask 11010000
          -91 callsubr
          hintmask 10110000
          28 callgsubr
          hintmask 11010000
          -9 callsubr
          endchar
        </CharString>
        <CharString name="racute">
          31 callsubr
          245 -20 hstemhm
          100 78 hintmask 11011000
          -91 callsubr
          hintmask 10111000
          28 callgsubr
          hintmask 11011000
          -9 callsubr
          7 114 rmoveto
          -92 callsubr
        </CharString>
        <CharString name="radical">
          75 -138 818 hstem
          -3 553 vstem
          13 164 rmoveto
          61 18 13 3 11 -1 5 -13 rlinecurve
          126 -309 64 9 257 809 rlineto
          -62 hlineto
          -219 -723 -115 305 -17 9 -43 -13 -60 -32 -37 -28 rlinecurve
          endchar
        </CharString>
        <CharString name="rcaron">
          31 callsubr
          247 -10 callgsubr
          100 78 hintmask 11001100
          -91 callsubr
          hintmask 10101100
          28 callgsubr
          hintmask 11001100
          -9 callsubr
          155 299 rmoveto
          hintmask 10110100
          -58 callgsubr
          hintmask 10101100
          15 callgsubr
        </CharString>
        <CharString name="rcommaaccent">
          -87 12 callgsubr
          40 314 71 -10 -20 hstemhm
          100 78 -37 61 hintmask 11101000
          -91 callsubr
          hintmask 11011000
          28 callgsubr
          hintmask 11101000
          -9 callsubr
          hintmask 11010100
          27 -450 -105 callsubr
        </CharString>
        <CharString name="registered">
          170 115 37 92 28.5 97 33.5 119 30 90 36 hstem
          43 42 136 57 108 61 115 41 vstem
          85 397 rmoveto
          143 100 102 138 139 100 -102 -143 -143 -100 -102 -139 -138 -100 102 143 vhcurveto
          -42 hmoveto
          -161 120 -121 160 160 120 121 161 161 -120 120 -160 -160 -120 -119 -162 vhcurveto
          282 6 rmoveto
          -15 -15 0 1 -17 hvcurveto
          114 vlineto
          3 15 10 1 12 hhcurveto
          50 21 -16 -41 -42 -23 -20 -38 hvcurveto
          -7 -133 rmoveto
          -27 5 rlineto
          -9 2 -4 5 9 vvcurveto
          78 vlineto
          55 1 9 -10 8 -14 6 -15 rlinecurve
          25 -56 rlineto
          -21 9 7 -10 16 hhcurveto
          61 30 hlineto
          -26 6 -6 4 -7 13 -27 51 rcurveline
          -8 17 -9 9 -14 6 rrcurveto
          45 11 25 32 46 vvcurveto
          58 -39 26 -77 vhcurveto
          -20 -31 -1 -32 hhcurveto
          -63 -29 hlineto
          23 -5 rlineto
          9 -2 4 -5 -9 vvcurveto
          -210 vlineto
          -9 -4 -5 -8 -2 vhcurveto
          -24 -6 rlineto
          -26 133 vlineto
          endchar
        </CharString>
        <CharString name="ring">
          -113 466 37 94 38 hstem
          85 52 90 52 vstem
          279 550 -77 callsubr
        </CharString>
        <CharString name="s">
          -88 -9 5 callsubr
          151 75 hintmask 11101000
          -50 callsubr
          hintmask 11011000
          -99 callsubr
          hintmask 11101000
          -62 callsubr
          endchar
        </CharString>
        <CharString name="sacute">
          -88 -9 38 358 38 215 -20 50 callgsubr
          151 75 hintmask 11110100
          -50 callsubr
          hintmask 11101100
          -99 callsubr
          hintmask 11110100
          -62 callsubr
          110 436 rmoveto
          hintmask 11101100
          -92 callsubr
        </CharString>
        <CharString name="scaron">
          -88 -9 38 358 38 217 -20 21 -20 50 callgsubr
          151 75 hintmask 11011010
          -50 callsubr
          hintmask 11010110
          -99 callsubr
          hintmask 11011010
          -62 callsubr
          hintmask 11010110
          258 621 rmoveto
          hintmask 11100110
          -58 callgsubr
          hintmask 11010110
          15 callgsubr
        </CharString>
        <CharString name="scedilla">
          -88 36 callgsubr
          22 5 callsubr
          67 70 14 75 hintmask 11111010
          47 22 rmoveto
          27 -12 40 -13 46 -5 -19 -56 rcurveline
          -89 callgsubr
          hintmask 10110110
          7 22 rlineto
          hintmask 10110111
          90 66 44 78 76 -64 30 -67 26 hvcurveto
          -99 callsubr
          hintmask 10111010
          -35 -28 12 8 -13 hvcurveto
          -9 7 -4 7 -4 16 -15 55 rcurveline
          -42 hlineto
          hintmask 11111010
          -4 -33 -2 -39 5 -40 rrcurveto
          endchar
        </CharString>
        <CharString name="scircumflex">
          -88 -9 5 callsubr
          151 75 hintmask 11101000
          -50 callsubr
          hintmask 11011000
          -99 callsubr
          hintmask 11101000
          -62 callsubr
          37 436 -85 callsubr
        </CharString>
        <CharString name="scommaaccent">
          -88 -169 -21 181 5 callsubr
          54 61 36 75 hintmask 11110110
          -50 callsubr
          hintmask 11101110
          -99 callsubr
          hintmask 11110110
          -62 callsubr
          hintmask 11101110
          192 -128 -105 callsubr
        </CharString>
        <CharString name="second">
          -118 414 -20 hstem
          48 281 vstem
          48 414 rmoveto
          17 callgsubr
          115 hmoveto
          17 callgsubr
          endchar
        </CharString>
        <CharString name="section">
          -12 -103 41 621 41 hstemhm
          44 65 -41 71 195 72 -49 64 hintmask 11100100
          62 -61 rmoveto
          -18 30 63 -24 78 hhcurveto
          hintmask 11101000
          117 56 57 70 44 -20 28 -36 23 hvcurveto
          hintmask 11010100
          40 22 31 42 54 vvcurveto
          73 -55 35 -87 39 vhcurveto
          -86 39 -54 20 51 vvcurveto
          37 28 28 60 34 33 -10 -11 17 vhcurveto
          10 -8 5 -8 2 -10 12 -68 rcurveline
          47 hlineto
          7 40 3 40 -3 40 rrcurveto
          17 -27 -64 19 -66 hhcurveto
          -118 -51 -58 -67 -43 19 -29 33 -24 hvcurveto
          hintmask 11101000
          -41 -21 -35 -42 -57 vvcurveto
          -71 55 -36 90 -41 vhcurveto
          92 -41 53 -16 -49 vvcurveto
          -40 -33 -27 -60 -39 -36 10 17 -21 vhcurveto
          -11 8 -4 9 -1 8 -13 70 rcurveline
          -47 hlineto
          hintmask 11100100
          -7 -41 -2 -40 2 -40 rrcurveto
          198 225 rmoveto
          -100 44 -51 25 51 vvcurveto
          28 16 30 22 20 vhcurveto
          18 -10 21 -10 22 -10 rrcurveto
          99 -44 50 -24 -51 vvcurveto
          -27 -15 -30 -22 -20 vhcurveto
          -18 9 -20 9 -22 10 rrcurveto
          endchar
        </CharString>
        <CharString name="semicolon">
          -234 300 105 hstemhm
          68 107 -60 67 hintmask 10100000
          182 26 rmoveto
          55 -29 28 -34 -30 -21 -23 -28 -25 14 -14 14 -9 vhcurveto
          12 -6 7 -4 -18 vvcurveto
          -33 -21 -38 -40 -35 vhcurveto
          18 -23 rlineto
          62 37 48 63 73 vvcurveto
          hintmask 11000000
          -7 327 28 callsubr
          -32 -32 -21 -21 -31 -32 21 -21 32 32 22 21 32 vhcurveto
          endchar
        </CharString>
        <CharString name="seven">
          -67 18 callsubr
          37 354 hintmask 10110000
          332 -41 callsubr
        </CharString>
        <CharString name="seven.tf">
          -40 18 callsubr
          51 354 hintmask 10110000
          346 -41 callsubr
        </CharString>
        <CharString name="six">
          -19 -9 43 237 52 137 49 hstem
          47 86 200 83 vstem
          234 -57 callgsubr
        </CharString>
        <CharString name="six.tf">
          -40 -9 43 237 52 137 49 hstem
          37 86 200 83 vstem
          224 -57 callgsubr
        </CharString>
        <CharString name="slash">
          -126 633 -20 hstem
          27 299 vstem
          95 -105 rmoveto
          231 738 rlineto
          -68 hlineto
          -231 -738 rlineto
          endchar
        </CharString>
        <CharString name="space">
          -261 endchar
        </CharString>
        <CharString name="sterling">
          7 45 callsubr
          120 80 188 56 hintmask 10111100
          444 90 rmoveto
          28 -5 29 -4 18 vhcurveto
          -47 hlineto
          -2 -19 -3 -27 -4 -15 rrcurveto
          -28 -7 -18 -23 -38 -42 -49 24 -58 20 callgsubr
          38 24 31 18 18 -4 -9 14 16 callsubr
          -2 40 rrcurveto
          16 -34 -37 9 -35 hhcurveto
          -101 -72 22 callgsubr
          -38 -28 vhcurveto
          24 -43 23 9 31 16 27 26 rlinecurve
          hintmask 10111100
          73 55 -56 76 hhcurveto
          58 42 30 70 hvcurveto
          endchar
        </CharString>
        <CharString name="sterling.tf">
          -40 45 callsubr
          98 80 178 56 hintmask 10111100
          412 90 rmoveto
          28 -5 29 -5 18 vhcurveto
          -46 hlineto
          -2 -19 -4 -27 -3 -15 rrcurveto
          -28 -7 -17 -23 -39 -38 -47 24 -54 20 callgsubr
          34 24 29 16 17 -3 -10 12 16 callsubr
          -1 40 rrcurveto
          16 -33 -36 9 -35 hhcurveto
          -96 -69 22 callgsubr
          -36 -28 vhcurveto
          24 -43 22 9 31 16 26 26 rlinecurve
          hintmask 10111100
          69 52 -56 74 hhcurveto
          56 43 30 70 hvcurveto
          endchar
        </CharString>
        <CharString name="summation">
          24 -81 58 433 158 -41 41 hstemhm
          393 41 hintmask 10110000
          444 -81 rmoveto
          9 60 4 64 1 51 -40 7 rcurveline
          -27 -93 -3 -12 -6 -7 -11 -4 rlinecurve
          -5 -15 -27 -3 -38 hhcurveto
          -178 hlineto
          205 290 -184 260 rlineto
          140 hlineto
          34 25 -2 -6 17 hvcurveto
          hintmask 11010000
          11 -5 6 -6 4 -14 22 -84 rcurveline
          41 hlineto
          hintmask 10110000
          5 63 -2 49 -5 46 rrcurveto
          -383 hlineto
          -18 -31 207 -292 -211 -296 18 -30 rlineto
          endchar
        </CharString>
        <CharString name="t">
          -144 -8 58 314 -2 callgsubr
          hintmask 11010000
          -56 callsubr
          hintmask 10110000
          -31 callgsubr
          endchar
        </CharString>
        <CharString name="tbar">
          -142 -8 58 173 45 95 50 -49 42.5 hstemhm
          87 78 hintmask 11101000
          27 223 rmoveto
          60 -120 hlineto
          -87 51 -24 60 55 48 24 45 22 vhcurveto
          -22 21 rlineto
          -21 -19 -26 -11 -31 hhcurveto
          -37 -23 15 64 hvcurveto
          94 132 45 -132 95 136 50 -136 vlineto
          -1 124 rlineto
          -45 hlineto
          hintmask 11011000
          -26 -107 -3 -12 -7 -7 -13 -1 rlinecurve
          -46 -7 rlineto
          -35 vlineto
          63 -8 rlineto
          -92 -60 vlineto
          endchar
        </CharString>
        <CharString name="tcaron">
          -144 -8 58 314 -2 callgsubr
          hintmask 11010000
          -56 callsubr
          hintmask 10110000
          -31 callgsubr
          166 116 -38 callsubr
        </CharString>
        <CharString name="thorn">
          -2 -180 -78 callgsubr
          131.5 41 -10 -21 369 54 218 -20 31 -20 hstemhm
          72 77 201 84 hintmask 11011011
          224 33 rmoveto
          -31 -26 7 10 -18 hvcurveto
          289 vlineto
          18 20 32 14 39 hhcurveto
          74 38 -49 -114 -2 hvcurveto
          -128 -1 -49 -47 -76 hhcurveto
          210 194 rmoveto
          139 -70 59 -93 -54 -38 -20 -30 -30 vhcurveto
          268 vlineto
          -11 11 rlineto
          hintmask 10110111
          -43 -1 -54 -8 -43 -12 rrcurveto
          -33 vlineto
          54 58 callsubr
          8 -7 -13 vvcurveto
          -685 vlineto
          -12 -7 -8 -13 -1 vhcurveto
          -46 -52 callgsubr
          223 37 vlineto
          -60 7 rlineto
          -13 1 -7 8 12 vvcurveto
          117 vlineto
          hintmask 11010111
          -7 22 27 -3 23 hhcurveto
          hintmask 11011011
          133 80 87 148 hvcurveto
          endchar
        </CharString>
        <CharString name="three">
          -56 -9 53 199 24 187 55 hstemhm
          267 83 -61 88 hintmask 11101000
          377 -66 callsubr
        </CharString>
        <CharString name="three.dnom">
          -103 -5 44 114 39 115 46 hstemhm
          230 66 -45 69 hintmask 11101000
          48 43 -8 callgsubr
          53 -45 31 -60 hvcurveto
          hintmask 11110000
          -58 callsubr
          -37 -32 -24 -58 hvcurveto
          -14 -39 hlineto
          hintmask 11101000
          -29 callgsubr
          endchar
        </CharString>
        <CharString name="three.numr">
          -103 39 callgsubr
          233 66 -45 69 hintmask 10110100
          51 -56 callgsubr
        </CharString>
        <CharString name="three.tf">
          -40 -9 53 199 24 187 55 hstemhm
          275 83 -61 88 hintmask 11101000
          385 -66 callsubr
        </CharString>
        <CharString name="threequarters">
          372 0 105 -39 39 118 44 71 13 30 28 -28 39 115 46 -13 -20 hstemhm
          216 66 -45 69 396 59 hintmask 0110010101100000
          34 271 -8 callgsubr
          hvcurveto
          hintmask 0110100101100000
          53 -45 31 -60 vhcurveto
          hintmask 0110101010100000
          -58 callsubr
          hvcurveto
          hintmask 0110010110100000
          -37 -32 -24 -58 vhcurveto
          -14 -39 hlineto
          hintmask 1010010101100000
          -29 callgsubr
          225 -299 rmoveto
          -40 callsubr
          hintmask 0110010101100000
          327 66 rmoveto
          161 hlineto
          hintmask 1010010101100000
          -66 59 vlineto
          hintmask 0111010101100000
          66 62 48 vlineto
          -80 callsubr
        </CharString>
        <CharString name="threesuperior">
          -122 39 callgsubr
          224 66 -45 69 hintmask 10110100
          42 -56 callgsubr
        </CharString>
        <CharString name="tilde">
          -113 471 14 callsubr
          32 300 hintmask 10110000
          332 40 callsubr
          hintmask 01010000
          -65 callsubr
          hintmask 10110000
          -36 callgsubr
        </CharString>
        <CharString name="tildecomb">
          471 14 callsubr
          -150 300 hintmask 10110000
          150 40 callsubr
          hintmask 01010000
          -65 callsubr
          hintmask 10110000
          -36 callgsubr
        </CharString>
        <CharString name="tildecomb.case">
          616 24 callsubr
          -156 312 hintmask 10010000
          156 707 -24 callgsubr
          hintmask 01110000
          -65 callgsubr
          hintmask 10010000
          37 33 -51 53 hhcurveto
          51 37 48 43 13 hvcurveto
          endchar
        </CharString>
        <CharString name="trademark">
          341 280 29 226 33 hstem
          153 63 123 119 171 137 vstem
          271 280 rmoveto
          26 vlineto
          -38 6 rlineto
          -11 2 -6 6 10 vvcurveto
          205 47 vlineto
          11 5 -6 -9 2 hvcurveto
          13 -55 rlineto
          28 hlineto
          2 37 0 34 -4 32 rrcurveto
          -268 hlineto
          -6 -32 -1 -34 2 -37 rrcurveto
          29 hlineto
          13 55 rlineto
          9 2 7 6 11 hhcurveto
          44 -205 hlineto
          -10 -5 -5 -11 -3 vhcurveto
          -37 -6 rlineto
          -26 vlineto
          358 hmoveto
          26 vlineto
          -41 8 26 207 82 -244 rlineto
          40 hlineto
          75 241 27 -204 -38 -8 rlineto
          -26 137 26 vlineto
          -23 6 -10 3 -5 5 -2 10 rlinecurve
          -26 185 -1 11 6 6 11 2 rlinecurve
          26 4 rlineto
          30 -122 vlineto
          -64 -205 -66 205 rlineto
          -127 -30 hlineto
          26 -4 11 -2 7 -6 -2 -11 rlinecurve
          -24 -185 -1 -11 -5 -4 -11 -3 rlinecurve
          -25 -6 rlineto
          -26 vlineto
          endchar
        </CharString>
        <CharString name="two">
          -41 0 57 387 65 hstem
          280 87 vstem
          377 -51 callgsubr
        </CharString>
        <CharString name="two.dnom">
          -103 0 45 260 48 hstem
          229 69 vstem
          59 hmoveto
          -55 callgsubr
          -62 callgsubr
        </CharString>
        <CharString name="two.numr">
          -103 228 45 231 -20 49 48 hstemhm
          231 69 hintmask 11010000
          61 228 rmoveto
          -55 callgsubr
          hintmask 11110000
          -62 callgsubr
        </CharString>
        <CharString name="two.tf">
          -40 0 57 387 65 hstem
          281 87 vstem
          378 -51 callgsubr
        </CharString>
        <CharString name="twosuperior">
          -107 228 45 231 -20 49 48 hstemhm
          229 69 hintmask 11010000
          59 228 rmoveto
          -55 callgsubr
          hintmask 11110000
          -62 callgsubr
        </CharString>
        <CharString name="u">
          -2 callsubr
          hstem
          85 53 callgsubr
          vstem
          -107 callgsubr
          endchar
        </CharString>
        <CharString name="uacute">
          -2 callsubr
          237 -20 hstem
          85 53 callgsubr
          vstem
          -107 callgsubr
          -279 451 rmoveto
          -92 callsubr
        </CharString>
        <CharString name="ubreve">
          -2 callsubr
          68 62 hstem
          85 53 callgsubr
          vstem
          -107 callgsubr
          -109 575 -87 callgsubr
        </CharString>
        <CharString name="ucircumflex">
          -2 callsubr
          hstem
          85 53 callgsubr
          vstem
          -107 callgsubr
          -352 451 -85 callsubr
        </CharString>
        <CharString name="udieresis">
          -2 callsubr
          81 96 hstemhm
          85 78 -53 93 69 93 -24 78 hintmask 11110010
          -107 callgsubr
          hintmask 11101100
          -279 525 -96 callgsubr
        </CharString>
        <CharString name="ugrave">
          -2 callsubr
          237 -20 hstem
          85 53 callgsubr
          vstem
          -107 callgsubr
          -301 633 -69 callsubr
        </CharString>
        <CharString name="uhungarumlaut">
          -2 callsubr
          245 12 callsubr
          85 53 callgsubr
          hintmask 11011100
          -107 callgsubr
          -322 461 -35 callsubr
          hintmask 11101100
          -20 callsubr
        </CharString>
        <CharString name="umacron">
          -2 callsubr
          92 53 hstem
          85 53 callgsubr
          vstem
          -107 callgsubr
          -365 488 -12 callgsubr
        </CharString>
        <CharString name="underscore">
          160 -137 46 hstem
          0 637 vstem
          -91 vmoveto
          -46 637 46 vlineto
          endchar
        </CharString>
        <CharString name="uni000D">
          endchar
        </CharString>
        <CharString name="uni00A0">
          -261 endchar
        </CharString>
        <CharString name="uni00AD">
          -73 189 55 hstem
          59 286 vstem
          59 189 rmoveto
          286 55 -286 hlineto
          endchar
        </CharString>
        <CharString name="uni00B5">
          55 18 callgsubr
          83 51 callsubr
          158 -70 callsubr
        </CharString>
        <CharString name="uni0162">
          74 36 callgsubr
          31 -16 callsubr
          -35 70 125 43 hintmask 1010101010000000
          -60 callsubr
          hintmask 1011001010000000
          24 -102 rlineto
          43 hlineto
          hintmask 1010111010000000
          -13 callsubr
          hintmask 1011011010000000
          -7 callgsubr
          hintmask 1010101010000000
          -59 callgsubr
          hintmask 1110100110000000
          123 hlineto
          -22 -64 rlineto
          -89 callgsubr
          10 31 rlineto
          endchar
        </CharString>
        <CharString name="uni0163">
          -144 36 callgsubr
          23 58 -32 -21 367 -2 callgsubr
          19 70 hintmask 10011010
          86 103 rmoveto
          -65 29 -30 40 -11 vhcurveto
          hintmask 11011011
          -21 -61 rlineto
          -89 callgsubr
          hintmask 10101011
          7 23 rlineto
          4 3 0 3 hhcurveto
          55 49 24 45 21 hvcurveto
          -22 21 rlineto
          hintmask 10101010
          -21 -19 -26 -11 -31 hhcurveto
          -37 -22 15 64 hvcurveto
          235 135 49 -136 vlineto
          -1 124 rlineto
          -45 hlineto
          hintmask 10010110
          -31 callgsubr
          endchar
        </CharString>
        <CharString name="uni018F">
          73 -9 44 200 42.5 258.5 41 hstem
          43 87 285 90 vstem
          255 -9 rmoveto
          147 103 103 191 194 -103 98 -161 -66 -62 -16 -28 -47 hvcurveto
          -2 -38 6 -56 8 -39 rrcurveto
          47 hlineto
          16 84 1 9 5 8 9 8 rlinecurve
          14 18 31 13 40 hhcurveto
          103 65 -90 -169 2 hvcurveto
          -367 1 rlineto
          -3 -16 -2 -25 -26 vvcurveto
          -149 90 -71 122 vhcurveto
          7 44 rmoveto
          -83 -49 58 99 18 2 14 1 11 hvcurveto
          281 hlineto
          -130 -8 -53 -70 -91 hhcurveto
          endchar
        </CharString>
        <CharString name="uni0192">
          -81 -173 -21 428 51 -48.5 43.5 173 7 callsubr
          102 77.5 -66 78 hintmask 11010100
          129 -108 rmoveto
          21 32 14 49 10 126 11 135 rcurveline
          118 51 hlineto
          hintmask 11010010
          -114 hlineto
          5 55 rlineto
          86 7 31 27 43 hhcurveto
          10 13 -3 -8 7 hvcurveto
          6 -5 1 -9 1 -11 5 -47 rcurveline
          41 hlineto
          hintmask 11001100
          10 40 10 44 1 37 rrcurveto
          hintmask 10110010
          13 -19 -33 5 -22 hhcurveto
          -83 -98 -78 -119 -10 hvcurveto
          -3 -27 rlineto
          hintmask 10110100
          -74 -10 rlineto
          -34 vlineto
          69 -9 -10 -131 -12 -153 -13 -45 -85 -62 rlinecurve
          22 -35 rlineto
          hintmask 11010100
          52 19 44 29 24 38 rrcurveto
          endchar
        </CharString>
        <CharString name="uni01FC">
          -80 callgsubr
          351 443 -94 callsubr
          endchar
        </CharString>
        <CharString name="uni01FD">
          20 callsubr
          215 -20 hstemhm
          35 83 161 79 186 78 hintmask 0101011111000000
          -29 callsubr
          hintmask 1011101111000000
          -34 callgsubr
          hintmask 0101011111000000
          -14 callsubr
          hintmask 1011011111000000
          -10 callsubr
          134 415 rmoveto
          -92 callsubr
        </CharString>
        <CharString name="uni021A">
          74 12 callgsubr
          -16 callsubr
          -48 61 147 43 hintmask 11010101
          -60 callsubr
          hintmask 11100101
          24 -102 rlineto
          43 hlineto
          hintmask 11011101
          -13 callsubr
          hintmask 11101101
          -7 callgsubr
          hintmask 11010101
          -59 callgsubr
          hintmask 11010011
          199 -106 -105 callsubr
        </CharString>
        <CharString name="uni021B">
          -144 -169 -21 182 58 314 -2 callgsubr
          5 61 hintmask 11101000
          -56 callsubr
          hintmask 11011000
          -31 callgsubr
          hintmask 11100100
          145 -467 -105 callsubr
        </CharString>
        <CharString name="uni0259">
          -50 -8 42 136 38 162 55 hstem
          39 77 188 82 vstem
          386 211 rmoveto
          142 -75 72 -111 -63 -57 -24 -51 -30 vhcurveto
          21 -21 rlineto
          25 27 35 16 44 hhcurveto
          68 54 -39 -123 5 hvcurveto
          -260 hlineto
          -3 -16 -2 -23 -17 vvcurveto
          -106 64 -54 93 109 81 72 147 vhcurveto
          -182 -177 rmoveto
          -58 -30 40 64 14 1 10 1 8 hvcurveto
          186 hlineto
          -103 -5 -41 -33 -54 hhcurveto
          endchar
        </CharString>
        <CharString name="uni02BC">
          -187 644 -20 hstem
          125 70 vstem
          195 -27 callsubr
        </CharString>
        <CharString name="uni02C9">
          -113 500 53 hstem
          60 243 vstem
          60 500 rmoveto
          243 53 -243 hlineto
          endchar
        </CharString>
        <CharString name="uni0302">
          458 171 hstem
          -136 274 vstem
          -108 458 -85 callsubr
        </CharString>
        <CharString name="uni0302.case">
          632 12 callsubr
          -142 283 hintmask 01100000
          -116 605 -82 callgsubr
          rlineto
          hintmask 10100000
          -7 callsubr
        </CharString>
        <CharString name="uni0304">
          495 53 hstem
          -121 242 vstem
          -121 495 -12 callgsubr
        </CharString>
        <CharString name="uni0304.case">
          639 53 hstem
          -123 246 vstem
          -123 639 1 callsubr
          endchar
        </CharString>
        <CharString name="uni0306">
          471 62 hstem
          -135 270 vstem
          135 582 -87 callgsubr
        </CharString>
        <CharString name="uni0306.case">
          613 61 hstem
          -138 276 vstem
          138 720 -86 callsubr
          endchar
        </CharString>
        <CharString name="uni0307">
          483 104 hstem
          -47 108 vstem
          61 535 -79 callsubr
        </CharString>
        <CharString name="uni0307.case">
          621 106 hstem
          -54 108 vstem
          54 674 -60 callgsubr
        </CharString>
        <CharString name="uni0308">
          484 96 hstem
          -128 93 69 93 vstem
          -35 532 -96 callgsubr
        </CharString>
        <CharString name="uni0308.case">
          620 96 hstem
          -136 94 84 94 vstem
          -42 668 -95 callsubr
          endchar
        </CharString>
        <CharString name="uni030A">
          466 37 94 38 hstem
          -97 52 90 52 vstem
          97 550 -77 callsubr
        </CharString>
        <CharString name="uni030A.case">
          597 39 96 39 hstem
          -99 53 93 52 vstem
          99 685 -30 callsubr
        </CharString>
        <CharString name="uni030B">
          648 12 callsubr
          -104 295 hintmask 01100000
          -78 468 -35 callsubr
          hintmask 10100000
          -20 callsubr
        </CharString>
        <CharString name="uni030B.case">
          599 162 hstem
          -124 329 vstem
          -99 599 -44 callsubr
        </CharString>
        <CharString name="uni030C">
          642 -10 callgsubr
          -133 274 hintmask 01100000
          113 643 rmoveto
          hintmask 10100000
          -58 callgsubr
          hintmask 01100000
          15 callgsubr
        </CharString>
        <CharString name="uni030C.case">
          609 143 hstem
          -142 283 vstem
          115 752 -79 callgsubr
        </CharString>
        <CharString name="uni0326">
          -169 -21 hstem
          -7 61 vstem
          54 -106 -105 callsubr
        </CharString>
        <CharString name="uni0327">
          -188 32 92 83 hstem
          6 70 vstem
          -16 19 rmoveto
          -28 -83 rlineto
          -89 callgsubr
          16 50 rlineto
          endchar
        </CharString>
        <CharString name="uni0328">
          -188 49 165 -21 hstem
          -93 70 vstem
          92 -33 callgsubr
        </CharString>
        <CharString name="uni0394">
          51 0 60 439 71 0 -20 hstemhm
          27 478 hintmask 10110000
          488 -19 callgsubr
        </CharString>
        <CharString name="uni03A9">
          226 0 50 481 45 hstem
          97 89 336 89 vstem
          291 -74 callgsubr
        </CharString>
        <CharString name="uni03BC">
          34 18 callgsubr
          75 51 callsubr
          150 -70 callsubr
        </CharString>
        <CharString name="uni1E9E">
          135 -9 42 -33 37 -37 165 371 41 hstemhm
          102 80 309 82 hintmask 10011100
          573 157 rmoveto
          105 -80 55 -91 29 vhcurveto
          115 171 -5 23 rlineto
          20 -56 -72 17 -65 hhcurveto
          -151 -66 -91 -157 hvcurveto
          hintmask 01011100
          -259 vlineto
          -11 -5 -9 -78 callsubr
          -59 -49 callsubr
          157 348 vlineto
          117 40 71 86 43 47 -18 -23 32 vhcurveto
          -108 -186 6 -16 rlineto
          hintmask 10011100
          83 -19 80 -45 -96 vvcurveto
          -61 -33 -39 -55 -30 -30 13 11 -12 vhcurveto
          hintmask 00111100
          -9 8 -2 6 -2 10 -12 84 rcurveline
          -48 hlineto
          hintmask 10011100
          -8 -46 -3 -50 3 -46 rrcurveto
          -15 32 57 -17 54 hhcurveto
          116 64 72 94 hvcurveto
          endchar
        </CharString>
        <CharString name="uni2003">
          216 endchar
        </CharString>
        <CharString name="uni2009">
          -351 endchar
        </CharString>
        <CharString name="uni20B9">
          -10 53 callsubr
          243 171 -170 88 hintmask 11110100
          398 -67 callsubr
        </CharString>
        <CharString name="uni20B9.tf">
          -40 53 callsubr
          223 171 -170 88 hintmask 11110100
          378 -67 callsubr
        </CharString>
        <CharString name="uni20BA">
          16 0 48 452 -20 hstem
          131 77 171 76 vstem
          193 hmoveto
          169 93 76 134 12 0 9 -2 9 hvcurveto
          -74 -11 rlineto
          -127 -60 -54 -111 vhcurveto
          172 vlineto
          139 61 rlineto
          45 vlineto
          -139 -61 rlineto
          62 vlineto
          141 62 rlineto
          45 vlineto
          -141 -62 rlineto
          128 -77 -162 vlineto
          -87 -38 rlineto
          -45 vlineto
          87 38 rlineto
          -61 vlineto
          -89 -39 rlineto
          -45 vlineto
          89 39 rlineto
          -187 vlineto
          endchar
        </CharString>
        <CharString name="uni20BA.tf">
          -40 0 48 452 -20 hstem
          97 77 160 76 vstem
          159 hmoveto
          161 90 75 130 13 -1 8 -1 9 hvcurveto
          -74 -10 rlineto
          -124 -57 -53 -103 vhcurveto
          172 vlineto
          135 59 rlineto
          45 vlineto
          -135 -59 rlineto
          62 vlineto
          137 60 rlineto
          46 vlineto
          -137 -60 rlineto
          127 -77 -161 vlineto
          -81 -36 rlineto
          -45 vlineto
          81 35 rlineto
          -61 vlineto
          -84 -37 rlineto
          -45 vlineto
          84 37 rlineto
          -187 vlineto
          endchar
        </CharString>
        <CharString name="uni20BD">
          29 34 callgsubr
          143 75 171 85 hintmask 10110110
          218 461 rmoveto
          1 16 22 4 27 hhcurveto
          70 36 -23 -70 -78 -45 -29 -83 hvcurveto
          -43 hlineto
          hintmask 01110110
          -160 -139 rmoveto
          85 hlineto
          hintmask 10110110
          -58 vlineto
          -11 -7 -8 -11 -2 vhcurveto
          -59 -49 callsubr
          258 vlineto
          hintmask 01110110
          37 vlineto
          -88 12 rlineto
          -10 1 -8 9 10 vvcurveto
          58 165 vlineto
          hintmask 10101110
          40 -165 59 60 vlineto
          114 82 49 103 102 -81 25 -96 hvcurveto
          hintmask 10110110
          1 -45 -34 -6 -38 hhcurveto
          -114 -38 hlineto
          60 56 callgsubr
          -85 -40 85 -59 -85 vlineto
          endchar
        </CharString>
        <CharString name="uni20BD.tf">
          -40 34 callgsubr
          113 73 157 85 hintmask 10110110
          186 461 rmoveto
          1 16 18 4 25 hhcurveto
          63 35 -24 -69 -78 -44 -29 -78 hvcurveto
          -35 hlineto
          hintmask 01110110
          -152 -139 rmoveto
          79 hlineto
          hintmask 10110110
          -58 vlineto
          -11 -7 -8 -12 -2 vhcurveto
          -59 -49 callsubr
          257 vlineto
          hintmask 01110110
          37 vlineto
          -87 12 rlineto
          -10 1 -9 9 10 vvcurveto
          58 156 vlineto
          hintmask 10101110
          40 -156 59 52 vlineto
          109 81 49 103 102 -80 25 -90 hvcurveto
          hintmask 10110110
          1 -42 -31 -6 -36 hhcurveto
          -114 -38 hlineto
          61 56 callgsubr
          -79 -40 79 -59 -79 vlineto
          endchar
        </CharString>
        <CharString name="uni2113">
          -71 -8 61 507 46 hstem
          88 72 149 74 vstem
          325 123 rmoveto
          -40 -19 -30 -30 -35 hhcurveto
          -31 -20 24 36 -13 hvcurveto
          137 117 69 145 112 vvcurveto
          83 -39 36 -49 -106 -101 -171 -216 -43 4 -37 8 -31 vhcurveto
          -23 -17 -24 -16 -27 -16 20 -37 rcurveline
          24 14 23 14 22 15 rrcurveto
          -49 23 36 -24 46 hhcurveto
          68 47 54 60 20 hvcurveto
          -195 136 rmoveto
          165 57 153 52 21 19 -23 -63 -101 -45 -111 -99 -98 vhcurveto
          -3 25 -2 26 27 vvcurveto
          endchar
        </CharString>
        <CharString name="uni2126">
          217 0 50 481 45 hstem
          91 89 336 89 vstem
          285 -74 callgsubr
        </CharString>
        <CharString name="uni2190">
          83 47 callsubr
          40 477 vstem
          517 251 rmoveto
          59 -330 vlineto
          -43 -5 151 4 callgsubr
          endchar
        </CharString>
        <CharString name="uni2191">
          83 51 477 hstem
          250 59 vstem
          250 51 rmoveto
          59 330 hlineto
          -5 44 151 -152 40 39 -215 216 -216 -216 40 -39 151 152 -5 -44 rlineto
          endchar
        </CharString>
        <CharString name="uni2192">
          81 47 callsubr
          42 477 vstem
          303 65 rmoveto
          216 216 -216 215 -39 -40 151 -151 -43 5 rlineto
          -330 -59 330 hlineto
          44 5 -152 -152 rlineto
          endchar
        </CharString>
        <CharString name="uni2193">
          83 52 477 hstem
          250 59 vstem
          250 529 rmoveto
          -330 vlineto
          5 -44 26 callsubr
          -40 39 -151 -152 5 44 rlineto
          330 vlineto
          endchar
        </CharString>
        <CharString name="uni2194">
          440 47 callsubr
          40 868 vstem
          908 281 rmoveto
          -216 215 -39 -40 152 -151 -44 5 rlineto
          -574 hlineto
          -44 -5 152 4 callgsubr
          574 hlineto
          44 5 -152 -152 39 -39 rlineto
          endchar
        </CharString>
        <CharString name="uni2195">
          83 499 -20 hstem
          250 59 vstem
          280 715 rmoveto
          -216 -216 40 -39 151 151 -5 -43 rlineto
          -575 vlineto
          5 -43 26 callsubr
          -39 39 -151 -153 4 44 rlineto
          575 vlineto
          -4 44 151 -152 39 39 rlineto
          endchar
        </CharString>
        <CharString name="uni2206">
          52 0 60 439 71 0 -20 hstemhm
          26 478 hintmask 10110000
          487 -19 callgsubr
        </CharString>
        <CharString name="uni2215">
          -13 callgsubr
        </CharString>
        <CharString name="uni25CA">
          -28 18 -21 hstem
          27 396 vstem
          225 96 rmoveto
          -114 169 -11 16 115 161 11 14 114 -161 10 -15 -115 -169 rlineto
          -10 -114 rmoveto
          53 74 145 209 -52 72 -146 202 -52 -70 -146 -205 51 -74 rlineto
          endchar
        </CharString>
        <CharString name="uogonek">
          30 -188 49 131 52 -26 -21 426 -20 hstemhm
          85 78 126 69 -17 78 hintmask 10111010
          473 42 callgsubr
          hintmask 10111100
          -8 -16 -18 -4 -15 hhcurveto
          -30 -22 14 29 35 37 37 49 21 hvcurveto
          hintmask 11011010
          15 3 13 4 10 3 rrcurveto
          34 vlineto
          -42 4 rlineto
          -13 1 -8 5 18 vvcurveto
          342 vlineto
          -11 12 rlineto
          -42 -57 -6 -11 -41 hvcurveto
          -36 vlineto
          54 58 callsubr
          7 -8 -14 vvcurveto
          -259 vlineto
          -24 -29 -34 -11 -35 hhcurveto
          -62 -18 35 78 hvcurveto
          254 vlineto
          -11 12 -41 -1 -49 -6 -41 -11 rlinecurve
          -36 vlineto
          45 -8 -43 callsubr
          -195 vlineto
          -102 39 -49 91 vhcurveto
          hintmask 11011100
          57 40 23 32 33 hvcurveto
          hintmask 10111100
          6 -24 13 -18 23 -8 rrcurveto
          -1 vlineto
          -48 -22 -50 -41 -50 -5 callsubr
          hintmask 10111010
          33 47 callgsubr
          endchar
        </CharString>
        <CharString name="uring">
          -2 callsubr
          63 37 94 38 hstemhm
          85 78 -22 52 90 52 6 78 hintmask 11111001
          -107 callgsubr
          hintmask 11110110
          -147 543 -77 callsubr
        </CharString>
        <CharString name="utilde">
          -2 callsubr
          68 14 callsubr
          85 53 callgsubr
          hintmask 11101110
          -107 callgsubr
          -94 555 -63 callgsubr
        </CharString>
        <CharString name="v">
          -25 378 35 hstem
          7 194 82 158 vstem
          195 -6 rmoveto
          68 hlineto
          129 357 4 11 8 5 10 3 rlinecurve
          27 8 rlineto
          35 -158 -35 vlineto
          63 -11 -102 -296 -106 296 63 11 rlineto
          35 -194 -35 vlineto
          27 -8 11 -3 6 -7 4 -9 rlinecurve
          endchar
        </CharString>
        <CharString name="w">
          183 378 35 -93 callsubr
          endchar
        </CharString>
        <CharString name="wacute">
          183 378 35 227 -20 -93 callsubr
          250 107 rmoveto
          -92 callsubr
        </CharString>
        <CharString name="wcircumflex">
          183 378 35 -93 callsubr
          177 107 -85 callsubr
        </CharString>
        <CharString name="wdieresis">
          183 378 35 71 96 hstemhm
          10 177 24 93 69 93 33 150 hintmask 10011100
          169 -6 rmoveto
          68 hlineto
          93 328 98 -328 rlineto
          67 hlineto
          108 357 4 11 7 6 11 3 rlinecurve
          24 7 rlineto
          35 -150 -35 vlineto
          57 -11 -81 -291 -93 337 rlineto
          -73 hlineto
          hintmask 10111100
          -94 -339 -84 293 56 11 rlineto
          35 -177 -35 vlineto
          23 -7 11 -3 7 -5 3 -12 rlinecurve
          hintmask 11011100
          250 181 -96 callgsubr
        </CharString>
        <CharString name="wgrave">
          183 378 35 227 -20 -93 callsubr
          228 289 -69 callsubr
        </CharString>
        <CharString name="x">
          -12 0 -78 callgsubr
          334.5 38 hstemhm
          17 174 -164 188 40 192 -167 159 hintmask 11100100
          191 hmoveto
          37 vlineto
          -61 7 rlineto
          hintmask 11101000
          90 126 85 -126 -50 -52 callgsubr
          192 37 vlineto
          -30 4 -11 2 -7 4 -6 8 rlinecurve
          -119 161 rlineto
          hintmask 11010100
          110 142 6 7 7 5 10 2 rlinecurve
          32 6 rlineto
          35 -159 -35 vlineto
          54 -9 -88 -120 -83 120 52 9 rlineto
          35 -188 -35 vlineto
          29 -6 10 -2 7 -5 6 -8 rlinecurve
          113 -153 rlineto
          hintmask 11100100
          -114 -149 -7 -8 -8 -4 -10 -1 rlinecurve
          -36 -5 rlineto
          -37 vlineto
          endchar
        </CharString>
        <CharString name="y">
          -24 callsubr
          hstemhm
          10 197 83 158 hintmask 10111100
          17 -135 rmoveto
          hintmask 01111100
          -46 vlineto
          hintmask 10111100
          -93 callgsubr
          -43 -105 -56 -20 -115 -10 rrcurveto
          endchar
        </CharString>
        <CharString name="yacute">
          -24 callsubr
          227 -20 hstemhm
          10 197 83 158 hintmask 10111110
          17 -135 rmoveto
          hintmask 01111110
          -46 vlineto
          hintmask 10111110
          -93 callgsubr
          -43 -105 -56 -20 -115 -10 rrcurveto
          189 593 rmoveto
          hintmask 01111110
          -92 callsubr
        </CharString>
        <CharString name="ycircumflex">
          -24 callsubr
          hstemhm
          10 197 83 158 hintmask 10111100
          17 -135 rmoveto
          hintmask 01111100
          -46 vlineto
          hintmask 10111100
          -93 callgsubr
          -43 -105 -56 -20 -115 -10 rrcurveto
          116 593 -85 callsubr
        </CharString>
        <CharString name="ydieresis">
          -24 callsubr
          71 96 hstemhm
          10 197 -94 93 69 93 -78 158 hintmask 1011101100000000
          17 -135 rmoveto
          hintmask 0111101100000000
          -46 vlineto
          hintmask 1011110010000000
          -93 callgsubr
          hintmask 1011101100000000
          -43 -105 -56 -20 -115 -10 rrcurveto
          hintmask 0111101100000000
          189 667 -96 callgsubr
        </CharString>
        <CharString name="yen">
          67 29 callsubr
          33 213 -7 76 14 181 hintmask 01110010
          97 120 rmoveto
          142 23 callgsubr
          250 vlineto
          hintmask 01110010
          35 vlineto
          -68 13 rlineto
          -12 2 -7 6 13 vvcurveto
          51 142 vlineto
          hintmask 10110010
          40 -142 57 142 40 -128 vlineto
          hintmask 10101101
          116 186 5 9 6 4 11 3 rlinecurve
          43 9 rlineto
          35 -181 -35 vlineto
          66 -12 -104 -174 rlineto
          hintmask 10110100
          -109 170 64 13 rlineto
          35 -213 -35 vlineto
          43 -10 11 -3 5 -5 6 -8 rlinecurve
          125 -182 rlineto
          -126 -40 hlineto
          hintmask 10110010
          142 -57 -142 hlineto
          endchar
        </CharString>
        <CharString name="yen.tf">
          -40 29 callsubr
          -4 209 -18 75 2 177 hintmask 01110010
          63 120 rmoveto
          124 23 callgsubr
          249 vlineto
          hintmask 01110010
          35 vlineto
          -68 13 8 callgsubr
          6 13 vvcurveto
          51 124 vlineto
          hintmask 10110010
          40 -124 57 124 40 -109 vlineto
          hintmask 10101101
          99 186 5 9 6 4 11 3 rlinecurve
          43 9 rlineto
          35 -177 -35 vlineto
          62 -12 -87 -177 rlineto
          hintmask 10110100
          -94 173 60 13 rlineto
          35 -209 -35 vlineto
          44 -10 11 -3 6 -4 5 -9 rlinecurve
          107 -182 rlineto
          -106 -40 hlineto
          hintmask 10110010
          124 -57 -124 hlineto
          endchar
        </CharString>
        <CharString name="ygrave">
          -24 callsubr
          227 -20 hstemhm
          10 197 83 158 hintmask 10111110
          17 -135 rmoveto
          hintmask 01111110
          -46 vlineto
          hintmask 10111110
          -93 callgsubr
          -43 -105 -56 -20 -115 -10 rrcurveto
          hintmask 01111110
          167 775 -69 callsubr
        </CharString>
        <CharString name="z">
          42 callsubr
          hstem
          57 41 241 37.5 vstem
          -90 callgsubr
          endchar
        </CharString>
        <CharString name="zacute">
          42 callsubr
          227 -20 hstem
          57 41 241 37.5 vstem
          -90 callgsubr
          -108 83 rmoveto
          -92 callsubr
        </CharString>
        <CharString name="zcaron">
          42 callsubr
          229 -10 callgsubr
          57 41 241 37.5 hintmask 11011100
          -90 callgsubr
          40 268 rmoveto
          hintmask 11101100
          -58 callgsubr
          hintmask 11011100
          15 callgsubr
        </CharString>
</ttFont>
